<svg width="250" height="250" xmlns="http://www.w3.org/2000/svg">
	<g transform="matrix(0.33446989,0,0,0.33446989,43.352223,9.6369971)">
		<path fill="#fb7e36" d="M 281.35547,16.048828 C 277.7584,15.898344 275.46288,16.862079 273.5,21.6875 273.01438,23.12992 272.51175,24.566639 272,26 c -2.26461,5.037476 -4.0166,10.060018 -5.60547,15.351562 -2.14113,7.236838 -4.28659,14.464857 -6.70312,21.615235 -2.6334,7.733037 -5.22568,15.473134 -7.6211,23.283203 -1.28669,4.198024 -2.54347,8.392222 -4.13281,12.488281 -1.97942,4.724309 -3.60883,9.386629 -5,14.324219 -1.03136,3.79346 -2.11917,7.54391 -3.37109,11.26953 -0.79257,2.3454 -1.57363,4.69229 -2.32032,7.05274 L 236.5,133.78906 c -0.50074,1.61175 -1.00074,3.22373 -1.5,4.83594 -0.96258,3.13841 -1.92952,6.2715 -3,9.375 -2.63545,6.03986 -4.5967,12.0567 -6.4375,18.375 -2.24499,7.74901 -4.1261,16.63434 -9.5,22.875 L 214,191 c -2.31232,2.5625 -2.31232,2.5625 -5,5 -9.26701,4.90607 -16.16697,12.0179 -21.74609,20.89453 L 186,219 c -7.77858,12.1441 -10.08225,28.7797 -9,43 l 1,3 c -7.57438,-2.63457 -14.06046,-7.42027 -19.15234,-13.62109 L 157,249 c -3.46314,-3.18974 -5.84096,-6.25888 -8.1875,-10.3125 C 147.33204,236.01172 147.33204,236.01172 146,234 h -0.0391 c -1.88529,-3.44631 -3.61095,-6.90518 -4.66797,-9.32422 -0.24945,-0.64982 -0.52542,-1.28893 -0.7832,-1.93555 -0.0396,-0.11259 -0.0797,-0.22869 -0.11133,-0.32812 -0.64362,-2.02281 -3.76756,-8.97249 -4.62305,-10.86524 l -0.63086,-3.26757 c -1.81781,-9.7776 -2.25123,-21.1131 -9.24609,-28.70508 C 120.47419,175.07637 112.95584,173 105.99996,173 c -2.5,1.5 -2.5,1.5 -4,4 -0.55501,4.04366 -0.0316,7.25307 1.25,11.0625 0.99891,2.7564 1.91202,5.49239 2.73437,8.30859 1.42497,5.09152 2.81841,10.18276 4.51563,15.19141 0.86423,2.50858 1.67298,5.01582 2.43359,7.55859 5.38837,18.13598 14.66302,32.91765 26.06641,47.87891 3.16357,4.06389 6.01581,8.13528 8.62695,12.55078 l -0.0234,-0.002 c 0,0 5.00883,8.14664 8.45507,13.4668 0.11029,0.24139 0.15949,0.46316 0.28125,0.71093 6.34607,11.51292 7.38962,22.27904 6.66016,35.27344 -1.11189,1.27115 -1.11189,1.27115 -3.75,1.8125 -3.29248,0.52973 -3.29248,0.52973 -5.625,-1.5 -2.29561,-2.02233 -3.98202,-3.08477 -6.6875,-4.375 -1.32823,-0.61283 -2.6412,-1.25972 -3.9375,-1.9375 -1.77734,-1.45313 -1.77734,-1.45313 -4,-3 -10.35613,-4.14012 -21.19909,-7.34272 -32.25,-3.9375 -6.79567,3.02974 -12.01669,8.04197 -14.94531,14.87109 l -0.80469,2.06641 c -3.4431,7.58414 -3.44262,7.58414 -3.94531,23.97852 l -0.0547,2.02148 c -0.29779,10.61716 -0.45106,21.90753 1.91797,32.30078 0.57483,2.43832 1.112,4.86483 1.57031,7.32813 l 0.47656,2.74609 c 0.32598,1.8747 0.65019,3.7497 0.97266,5.625 1.03599,6.17325 2.24293,12.05838 4.32812,17.96875 2.02224,5.60172 4.20515,11.36485 5.0586,17.27734 -2.99638,11.16888 -2.99638,11.16888 -11.26953,19.94141 -1.52508,1.68461 -2.85741,3.27106 -4.08008,4.94727 -0.10286,0.0648 -0.20459,0.16796 -0.30469,0.31445 -0.83103,1.21614 -3.12644,3.84245 -4.64648,5.55078 h -0.0234 l -1.00977,1.15234 c -0.14188,0.15697 -0.39648,0.44141 -0.39648,0.44141 l 0.008,0.006 -0.35156,0.40039 -2.25,3 c -1.62051,1.97793 -3.20601,3.96236 -4.73047,6.01563 -2.33329,3.6471 -2.57815,6.50982 -1.70703,10.67187 1.9762,3.1791 3.95404,4.05845 7.4375,5.3125 2.59378,-0.15257 3.75467,-0.82826 5.875,-2.3125 l 2.125,-1.6875 c 3.13876,-2.00346 5.86141,-3.86138 8.5,-6.5 l 2.5,-2.5 c 4.54214,-2.82622 8.84765,-6.24437 12.05859,-10.50977 l 0.004,0.01 c 0,0 3.0592,-3.52923 5.88477,-7.5 h 0.0527 c 0.28152,-0.42227 0.31322,-0.50029 0.52344,-0.81836 0.40084,-0.57961 0.79225,-1.16412 1.16406,-1.74414 2.55864,-3.99147 4.1613,-6.80607 5.30859,-9.4375 h 0.004 c 0.006,-0.0149 0.009,-0.03 0.0156,-0.0449 0.24632,-0.5671 0.47918,-1.12933 0.6875,-1.68945 0.0792,-0.21294 0.11759,-0.40853 0.12696,-0.58985 8.47683,-21.87646 5.40099,-43.96756 0.6289,-66.54687 l -0.45898,-2.12891 1.67187,0.80078 2.1875,1.06641 c 2.6092,1.26234 4.44269,1.89725 6.57813,3.91406 l 3.03125,2 c 8.10968,3.81735 14.65153,11.98386 19.65625,19.34375 l 1.875,2.875 c 8.04115,7.82263 12.57961,19.55282 16.30859,29.97266 l 0.69141,2.02734 c 2.15548,6.18829 3.4784,11.42222 3,18 -1.0708,1.28868 -1.07008,1.28868 -3.58789,1.18945 l -3.42383,0.0918 -3.73633,0.11328 c -2.60679,0.0698 -5.21356,0.1401 -7.82031,0.21094 l -3.75586,0.11328 c -7.60884,0.20303 -14.02167,1.47489 -21.05078,4.28125 -8.92709,3.64687 -14.9097,8.26243 -18.75,17.375 -1.8617,6.89431 0.0896,13.669 3,20 1.78962,3.69232 3.02411,7.37657 4.1875,11.3125 0.94251,3.31294 1.92057,6.27792 3.4375,9.375 1.52022,2.84975 1.52021,2.84975 2.52734,5.61328 2.53707,7.34989 5.46865,14.38461 8.97266,21.32422 1.02116,2.01065 2.0087,4.01944 2.92969,6.07813 3.10369,7.13076 6.04786,14.83096 10.68359,21.10546 l 1.38672,1.81641 c 5.03833,12.31591 19.24913,19.3118 30.98437,24.25781 l 2.01563,0.74219 c 0,0 0.59769,0.46913 0.76758,0.58984 4.17623,3.34162 6.32617,8.19141 6.32617,8.19141 0.0827,0.19596 0.69705,1.65048 0.72266,1.73828 0.002,0.006 0.003,0.004 0.004,-0.004 0.15602,0.39359 0.14702,0.54985 0.42187,1.13671 6.63214,13.34361 7.42048,24.75656 6.19531,39.41016 -0.19025,1.97539 -0.34699,3.95503 -0.4375,5.9375 1,2 1,2 2.52344,3.10547 l 1.85156,1.08203 1.83594,1.10547 c 1.78906,0.70703 1.78906,0.70703 4.78906,-0.29297 1.0373,-2.06671 1.0373,-2.06671 2.95313,-7.77734 l 1.04687,-3.22266 c 4.678,-13.19394 6.73758,-26.26359 3,-40 -5.96266,-16.92227 -17.10221,-29.44282 -33,-37.75 l -2,-0.92187 c -5.68697,-3.77653 -7.7673,-8.65197 -9.78125,-14.92969 -0.561,-1.84401 -1.13128,-3.68522 -1.71094,-5.52344 l -0.85937,-2.71094 c -1.68998,-5.37537 -3.56659,-10.63106 -5.78125,-15.8164 -2.40211,-5.53242 -3.5797,-10.31048 -3.86719,-16.34766 l 1,-1 2.17969,0.4082 c 2.81958,0.59156 2.82104,0.59199 5.74023,0.85743 l 3.19336,0.19921 c 2.39954,0.1605 4.79931,0.31795 7.19922,0.47266 7.49965,0.46394 17.85216,-0.32163 23.8125,4.9375 l 1.875,2.125 c 5.02939,3.31726 9.06538,6.61397 12.875,11.3125 3.63333,4.59509 7.25754,9.16747 11.8125,12.875 l 2.3125,1.8125 c 2.36261,3.09583 4.57149,5.55954 7.6875,7.875 2.23747,1.61966 4.464,3.24116 6.65625,4.92187 l 2.34375,1.82813 c 1.44127,1.12017 2.87929,2.24454 4.3125,3.375 6.48388,5.48636 13.77883,9.4497 21.375,13.1875 1.8907,0.90544 3.76776,1.8403 5.625,2.8125 3.22842,2.59104 6.30713,4.0645 10.14258,5.55078 l 2.35742,0.88672 c 2.42006,0.92121 4.84225,1.83627 7.26953,2.73828 l 2.23047,0.82422 c 6.72974,2.49112 13.698,5.36149 21,5 2.08117,-0.68111 3.48069,-1.22765 4.63086,-2.11133 0.54119,-0.33416 2.41392,-1.68445 5.34766,-5.88867 h 0.0215 c 0.0281,-0.0512 0.0539,-0.10309 0.082,-0.1543 0.44549,-0.65308 0.73762,-1.21083 0.9082,-1.68945 3.99366,-7.26756 7.93626,-14.50626 10.88477,-22.28125 0.70207,-1.96059 1.41039,-3.91895 2.125,-5.875 9.65524,-20.73995 9.65475,-20.74093 9.03125,-98.40625 l -0.0312,-3.59375 2,-1 c 2.99556,0.26048 5.43722,0.74161 8.17383,2 2.33694,3.6996 2.3364,3.69797 2.2539,8.23242 l -0.0723,2.5293 c -0.0251,2.70549 -0.0551,5.41015 -0.10937,8.11523 -0.0587,2.78259 -0.10141,5.56471 -0.13867,8.34766 -0.0206,1.78321 -0.0421,3.56642 -0.0645,5.34961 -0.32708,15.22279 2.71998,31.75632 10.49609,45.05859 l 1.46094,2.36719 c 2.01545,4.31882 4.29822,7.97743 7.20703,11.72656 l 1.79297,2.27344 c 4.77439,6.23996 9.47107,12.10724 15.86719,16.75391 3.9922,2.33243 7.30545,2.63767 11.75781,1.68359 4.70079,-2.84521 6.91043,-5.94054 8.5,-11.0625 -0.125,-3.375 -0.125,-3.375 -2.125,-5.4375 -2.8718,-1.75206 -2.87184,-1.75206 -4.71875,-3.44141 -1.41942,-1.29179 -2.71249,-2.40186 -4.0918,-3.38476 0.0931,-0.047 0.003,-0.1427 -0.31445,-0.29883 -3.54278,-1.74235 -11.89774,-11.14696 -13.07617,-12.48437 -0.0662,-0.0939 -0.0567,-0.10605 -0.13086,-0.21094 -1.54399,-1.95982 -2.99904,-3.89848 -4.35547,-5.99219 -3.50409,-6.42595 -3.69182,-14.23138 -1.7168,-21.23828 2.26495,-7.12172 3.73327,-14.27452 5.08399,-21.61133 0.51104,-2.78934 1.02245,-5.57801 1.54492,-8.36523 l 0.37305,-1.99219 c 0.61282,-3.34012 1.20735,-6.41462 2.43164,-9.58203 0.97046,-2.33643 0.97115,-2.33667 1.50195,-4.48633 l 0.39844,-2.15039 0.46484,-2.43359 c 1.07279,-5.75296 2.11629,-11.5186 3.57813,-17.1875 2.2584,-8.5216 3.97927,-17.02523 5.52734,-25.70313 1.29139,-7.27225 2.62456,-14.37887 4.8125,-21.4375 2.24658,-7.22885 3.08565,-14.09663 -0.36328,-21.05859 l -1.26172,-2.31641 c -4.76454,-8.88282 -13.43614,-13.27401 -22.6875,-16.5625 -7.35128,-1.21576 -12.74306,-0.079 -19.35157,3.14844 l -2.27343,1.22656 c -2.57165,1.36043 -4.17452,2.3716 -5.98828,4.66406 l -1.38672,1.96094 c -2.40462,1.87677 -4.58984,3.20531 -6,5.9375 -1.48277,3.0582 -3.40992,4.88448 -6,7.0625 -3.18895,0.99655 -5.38883,1.07107 -8.6875,0.6875 -2.82719,-2.44393 -2.82719,-2.44393 -3.875,-6.0625 -0.73091,-2.86205 -1.45689,-5.68487 -2.36719,-8.49609 -3.70615,-10.81679 -7.79734,-21.70435 -9.07031,-33.12891 -0.41732,-8.69946 -0.70864,-15.97399 5,-23 3.78542,-3.21761 6.74393,-4.91626 11.75,-5.25 3.4653,1.33281 3.92294,1.77251 5.6875,4.8125 l 1.5625,3.4375 h 0.006 c 0.0442,0.087 2.36502,4.64594 5.18164,7.28125 0.077,0.072 0.15152,0.13434 0.22461,0.1875 5.65908,7.57958 13.85483,12.25762 22.58789,16.53125 8.86444,3.23622 19.22021,2.65158 27.87109,-1.05078 l 2.12891,-0.94922 c 3.06156,-1.22873 6.11784,-2.46092 9.15625,-3.74609 5.50675,-2.42812 10.44661,-4.33149 12.84375,-10.25391 0.8664,-5.44585 -0.88036,-10.53007 -4,-15 -4.55437,-1.99254 -4.55434,-1.99254 -12.75,0.9375 -5.1281,1.85717 -9.40991,2.55419 -14.85156,2.32031 -7.94359,-0.85387 -14.12286,-4.53302 -19.21094,-10.50781 -0.80196,-1.00566 -1.64744,-1.97609 -2.5,-2.93945 -0.10497,-0.16278 -0.25218,-0.34859 -0.45313,-0.56055 -0.0845,-0.0891 -0.12742,-0.13289 -0.20703,-0.2168 -0.01,-0.0106 -0.0176,-0.0226 -0.0273,-0.0332 h -0.004 c -1.40478,-1.48033 -2.06881,-2.17086 -2.33594,-2.44531 -2.43002,-3.02088 -4.60848,-6.02106 -6.59765,-9.36719 -1.39606,-2.38377 -2.77338,-4.75653 -4.3125,-7.05078 -5.297,-9.14773 -5.297,-9.14773 -9.39453,-18.91797 l -1.15039,-2.73047 c -0.0426,-0.15323 -0.10295,-0.31586 -0.1875,-0.48633 -1.50828,-3.04088 -3.88379,-6.63049 -4.27735,-7.2207 -1.13947,-2.32401 -2.47204,-4.52899 -4.38476,-6.32812 -4.11883,-2.56614 -7.64008,-3.34743 -12.35547,-2.45313 -3.40077,2.00573 -6.44251,4.05253 -8.64063,7.07227 -0.0715,0.0597 -0.14472,0.12518 -0.2207,0.20117 -2.19158,2.19159 -4.14063,4.71875 -4.14063,4.71875 l 0.002,0.008 -1.75,2.5625 c -3.07999,4.85471 -6.86586,9.02041 -10.875,13.125 l -0.35351,0.40625 c -0.008,0.0449 -0.60124,0.61246 -0.61719,0.65234 -1.86856,2.02557 -8.57443,7.70734 -9.36914,6.38282 -0.79471,-1.32452 -0.1582,-17.90821 -0.1582,-17.90821 0,0 0.0171,0.0152 0.0176,0.0156 -0.84359,-13.0239 0.16401,-40.81699 1.94336,-54.16211 2.11923,-15.8942 3.81445,-17.37695 3.81445,-17.37695 0,0 0.0598,0.0367 0.0606,0.0371 1.07876,-4.91929 2.83455,-9.5792 5.63477,-13.5625 0.93449,-1.2283 1.86455,-2.46054 2.77734,-3.70507 0.84641,-1.15507 1.69733,-2.30666 2.55273,-3.45508 l 1.32227,-1.76172 c 2.3437,-3.13646 4.62945,-5.94839 7.6875,-8.4375 3.29709,-2.58421 4.23867,-4.78564 5.3125,-8.8125 -0.43781,-3.02635 -1.34029,-5.43227 -3,-8 -3.75431,-2.50287 -7.58332,-2.32121 -12,-2 -5.10615,1.70205 -9.08155,5.70336 -12.125,10 l -1.875,3 c -2.83682,3.19142 -4.52533,6.04894 -6.0625,10 -0.61147,1.67958 -1.25811,3.34673 -1.9375,5 -1.71933,2.74914 -3.02092,5.06442 -4.02734,8.16406 -1.17488,4.46755 -2.25075,8.926 -3.88477,13.25 -2.42652,6.29602 -4.07115,12.5065 -5.42578,19.11524 -1.72601,8.71381 -3.21269,17.25145 -6.66211,25.4707 l -21.57813,-32.36719 -1.54687,-2.32031 c -0.94909,-1.44362 -1.90665,-2.88173 -2.875,-4.3125 -2.40521,-2.93943 -2.40521,-2.93943 -4,-6 -0.52675,-3.8727 -0.24266,-7.27202 1,-11 2.27288,-5.10135 4.00847,-10.12088 5.5,-15.5 0.78977,-2.84828 1.58563,-5.68892 2.5,-8.5 1.53167,-3.56738 2.98561,-6.95011 4.0625,-10.68359 1.28035,-5.12675 2.46858,-10.2214 4.375,-15.15625 1.7642,-4.56399 1.7642,-4.56399 4.5625,-14.28516 1.28572,-4.50673 2.49317,-8.84233 4.5625,-13.05859 1.4375,-2.81641 1.4375,-2.81641 2.5,-6.218754 0.94087,-3.547874 1.88093,-7.082233 2.9375,-10.597656 1.53705,-3.562444 2.98614,-6.951932 4.0625,-10.683594 1.2818,-5.132525 2.42762,-10.32495 4.375,-15.253906 1.52437,-3.798571 1.52437,-3.798571 3.9375,-11.6875 1.05302,-3.47971 2.08984,-6.95625 3.37066,-10.359775 l 0.75782,-1.917969 1.43359,-3.660156 C 297.0995,29.186933 297.15343,26.310086 295,21 c -3.26971,-2.588521 -5.53269,-3.697645 -9.57813,-4.53125 -1.52433,-0.196113 -2.86738,-0.36976 -4.0664,-0.419922 z" />
		<path id="path2" d="M 61.900391,34.361328 C 58.602502,34.434607 55.551377,35.203685 53,37 c -1,2.1875 -1,2.1875 -1,5 1.790627,3.925606 3.198354,6.301129 6.4375,9.125 L 61,53 c 3.342018,3.467568 6.732983,6.396531 10.625,9.203125 1.342213,0.95423 2.683347,1.90998 4.023438,2.867187 l 1.953124,1.40625 C 78.751209,67.29455 79.885224,68.135093 81,69 c 1.894803,1.899596 3.40381,3.262946 5.6875,4.75 4.111259,2.675907 7.772256,5.862353 11.3125,9.25 1.323815,1.674237 2.76173,2.706344 4.10596,4.364232 2.75416,1.817743 4.64961,3.791115 6.89404,6.573268 1.41209,1.987574 3.09793,2.774297 4.1122,4.237759 4.56416,3.511831 8.04274,7.852701 11.52843,12.430211 0.84497,1.12547 1.69214,2.24808 2.54296,3.36914 l 1.31641,1.73242 c 1.50602,1.98953 3.02494,3.96406 4.5625,5.92969 2.1078,2.67564 4.22995,5.32478 6.14844,8.14062 0.91968,1.41411 1.85335,2.8191 2.78906,4.22266 5.43027,5.33952 9.4056,11.89914 13.25,18.4375 1.30843,2.28975 2.44311,4.25174 4.29687,6.12891 1.51398,1.38073 1.51398,1.38073 2.51563,3.15234 0.9436,1.79283 1.87185,3.55741 2.9375,5.28125 2.06359,1.93748 3.26639,3.45891 4.71875,5.96094 3.58371,6.86878 6.82815,14.43448 12.28125,20.03906 3.17377,1.43718 5.48847,2.29033 8.97266,1.62109 2.93185,-1.05354 4.71425,-2.04434 6.21484,-4.80859 -0.21817,-3.27262 -1.31158,-5.57427 -2.875,-8.42969 -0.97784,-1.77524 -1.908,-3.57691 -2.8125,-5.39062 -1.92956,-3.92665 -3.81978,-7.84131 -6.04688,-11.60938 -0.87551,-1.43565 -1.73405,-2.88213 -2.55859,-4.34765 -0.78533,-1.43174 -1.57496,-2.86113 -2.36719,-4.28907 L 179,153 c -1.01591,-1.82987 -2.03517,-3.65784 -3.06055,-5.48242 L 174.875,145.625 c -1.62288,-2.92616 -3.10124,-5.8282 -5.44922,-8.24609 -1.57082,-1.40447 -1.57082,-1.40447 -2.8125,-3.64063 L 165.3125,131.3125 163.98828,128.86328 163,127 h -0.0137 c -0.006,-0.0103 -0.011,-0.0216 -0.0176,-0.0312 -0.51042,-0.75347 -2.28841,-2.76364 -2.58984,-3.10352 -0.11191,-0.21664 -0.2083,-0.40927 -0.36719,-0.70507 l -1.32422,-2.09766 c -1.30915,-2.10329 -2.54106,-3.91318 -4.27734,-5.68359 L 153,114 c -1.88026,-3.19645 -3.83715,-6.14734 -6.125,-9.0625 -2.90764,-3.67767 -5.71609,-7.415302 -8.5,-11.1875 -2.20282,-3.006019 -4.359,-5.733852 -6.98438,-8.382812 -2.33443,-2.206707 -2.33443,-2.206707 -3.86718,-4.28125 -1.58049,-2.354612 -3.06062,-4.613644 -5.05078,-6.644532 L 121,73 c -1.91452,-2.408591 -3.7606,-4.760604 -5.9375,-6.9375 L 113,64 c -3.92317,-4.727918 -7.76213,-9.19879 -12.5625,-13.0625 L 98,49 C 95.855511,46.717157 94.105955,45.060546 91.375,43.5 83.904755,40.179891 71.794057,34.141492 61.900391,34.361328 Z" fill="#fb7e36" />
	</g>
</svg>
