<?xml version="1.0" encoding="UTF-8" standalone="no"?>
<svg
   version="1.1"
   width="254"
   height="243"
   id="svg1"
   sodipodi:docname="bat.svg"
   inkscape:version="1.4 (86a8ad7, 2024-10-11)"
   xmlns:inkscape="http://www.inkscape.org/namespaces/inkscape"
   xmlns:sodipodi="http://sodipodi.sourceforge.net/DTD/sodipodi-0.dtd"
   xmlns="http://www.w3.org/2000/svg"
   xmlns:svg="http://www.w3.org/2000/svg">
  <defs
     id="defs1" />
  <sodipodi:namedview
     id="namedview1"
     pagecolor="#ffffff"
     bordercolor="#000000"
     borderopacity="0.25"
     inkscape:showpageshadow="2"
     inkscape:pageopacity="0.0"
     inkscape:pagecheckerboard="0"
     inkscape:deskcolor="#d1d1d1"
     inkscape:zoom="2.3308335"
     inkscape:cx="-38.183766"
     inkscape:cy="106.61422"
     inkscape:window-width="1920"
     inkscape:window-height="1007"
     inkscape:window-x="1911"
     inkscape:window-y="-9"
     inkscape:window-maximized="1"
     inkscape:current-layer="svg1" />
  <path
     id="path1"
     style="fill:#8577bf;fill-opacity:1"
     d="M 9.15625,-0.33203125 C 6.0724972,-0.41749853 3.0134423,-0.31327865 0,0 -1.5569488,2.801282 -2.004267,4.1173428 -2.125,7.4375 -1,11 -1,11 2.25,13.3125 11.467315,18.394479 19.997231,24.572158 25.640625,33.582031 L 27,36 c 5.339692,9.243074 6.399644,20.108978 6.125,30.648438 L 33,69 c -0.44988,8.6883 -1.604286,18.101008 -5.875,25.8125 L 25,98 c -2.581058,4.33694 -5.017529,7.20702 -9.3125,9.9375 C 10.930723,110.91948 6.2274949,114.33806 3,119 c 0.1015625,2.17969 0.1015625,2.17969 1,4 3,1 2.9997558,1.00052 5.7519531,1.06641 l 3.3144529,-0.0742 c 2.498763,-0.0347 4.997466,-0.0739 7.496094,-0.11719 5.855436,-0.14021 11.650512,-0.37462 17.435547,0.66406 C 45.218381,126.49834 48.276291,129.56208 52,136 c 6.310513,12.17396 10.366725,26.69599 6.525391,40.19141 L 57.875,178.3125 c -1.590098,5.35911 -3.447256,10.12794 -6.25,15 -1.585938,2.48828 -1.585938,2.48828 -2.625,4.6875 8.86e-4,0.006 0.0011,0.006 0.002,0.0117 -0.200034,0.40777 -1.3736,2.95819 0.205078,3.79687 0.244821,0.13006 0.511447,0.18128 0.78711,0.17383 0.0032,0.008 0.0026,0.009 0.0059,0.0176 6.778343,0.14736 6.778343,0.14736 14.3125,-6.375 4.403209,-3.82974 8.552866,-8.30773 14.582031,-8.91797 l 2.917969,0.10547 c 0.569823,0.0158 1.139225,0.0441 1.708984,0.0625 1.151075,0.16855 3.204769,0.72995 3.324219,2.59961 l -0.0293,0.48242 -0.253906,3.85547 C 86.408489,196.21072 86.225607,198.60745 86,201 c -1,3 -1,3 -1.535156,5.69922 l -0.792793,2.91244 C 83.395376,211.5338 82.361721,213.64581 83,215 c 2.924157,1.30337 3.151685,0.81039 5.917969,-0.36328 L 92.1875,212.6875 c 3.247603,-1.89925 3.32279,-1.9484 5.740234,-3.63867 1.112062,-0.3371 3.725066,-0.97618 6.060546,-0.39844 0.35559,0.17096 0.70724,0.32582 1.07422,0.53711 6.49012,6.0714 9.96415,14.33886 10.5,23.0625 0.1,4.44539 0.67486,7.18052 3.4375,10.75 3.1875,0.3125 3.1875,0.3125 6,0 1,-2 1.00025,-2 1.26562,-3.8125 l 0.19922,-2.1875 0.23243,-2.42578 c 0.77751,-8.32448 0.83533,-17.51606 4.55273,-25.13672 L 133,207 c 1.79326,-3.21474 3.4966,-6.28219 6,-9 3.67187,-0.83534 3.67187,-0.83534 7,0 3.12988,2.35056 3.12988,2.35056 5,6 1.4375,2.75 1.4375,2.75 3,5 1.88413,1.60885 2.47326,1.77434 4,1 1,-2 1.0536,-1.81279 1.28125,-4 l 0.21875,-2.42969 0.25,-2.66015 c 0.16597,-1.84902 0.33263,-3.69798 0.5,-5.54688 l 0.25,-2.66797 c 0.36177,-4.03035 0.90572,-7.47546 2.6875,-11.13281 2.85832,-4.04107 5.70717,-7.15059 10.6875,-8.125 7.04247,1.26764 11.5549,4.82706 16.875,9.375 2.73437,2.45703 2.73437,2.45703 5.25,4.1875 2.72629,1.25961 2.87798,0.70975 4,-1 0.41266,-4.02857 -0.0128,-5.03172 -1.20703,-7.98047 -4.73351,-9.4555 -8.1613,-17.7453 -8.1543,-28.42578 l 0.0488,-2.84375 c -0.0164,-4.85395 -0.0281,-9.38623 1.15234,-14.11328 3.83156,-8.70808 8.85917,-13.8161 17.26563,-18.24219 L 212,113 c 5.16474,-2.56715 10.47099,-3.51036 16.125,-4.5 3.95796,-0.61943 7.57195,-1.37574 11.30469,-2.90625 C 242,104 242,104 243,101 l -0.89258,-1.619141 -1.42383,-1.751953 -1.56054,-1.970703 C 233.51667,88.692422 227.6769,81.652733 225,73 c -1.9814,-11.642338 1.35152,-20.95541 7,-31 0.71067,-0.696629 1.62079,-3.578652 2.92697,-4.684691 1.1877,-1.155631 2.89416,-2.25535 5.07303,-4.377809 L 242,31 c 1.28062,-1.7075 2.58057,-2.955767 3.96289,-4.582031 L 249.25,24.125 C 252,22 252,22 252.6875,18.4375 252,15 251.50702,15.530899 249.8125,13.3125 l -2.96484,-2.601562 C 243.94168,8.6690655 242.2672,8.1236593 239.26562,6.734375 225.40849,2.2110566 209.38101,2.1887541 195.91797,8.1425781 c -1.32281,0.5918645 -2.64854,1.175792 -3.97656,1.7558594 -1.41536,0.6161275 -2.83007,1.2344525 -4.24414,1.8535155 L 185.5625,12.6875 C 183.04154,13.79139 180.52069,14.895497 178,16 l -2.13086,1.15625 C 172.17731,19.529328 174.1875,18 164.4375,25.3125 159.61839,29.151311 153.84218,33.52575 153,40 c 1.5,2.0625 1.5,2.0625 4,4 6.37613,2.406088 10.3188,5.092954 14,11 4.51033,11.299733 4.34046,23.693368 0,35 -1.61101,2.674973 -3.03799,5.097429 -4.17578,8.015625 -1.88731,5.370085 -3.77389,10.277675 -7.01172,14.984375 -0.15494,0.20932 -0.26276,0.39931 -0.41016,0.60352 -0.182,0.18804 -0.36125,0.4163 -0.53906,0.6914 -4.01966,6.21911 -6.67514,7.88702 -6.97851,7.50781 -0.18106,-0.22632 -1.27576,-1.7591 -2.26368,-3.14648 -0.19184,-0.40889 -0.45438,-0.82739 -0.92187,-1.48437 C 145.35686,112.89977 143.04558,108.0046 141,103 c -1.11397,-5.322304 0.15202,-9.422883 3,-14 2.125,-2.375 2.125,-2.375 4,-5 1.04192,-3.646728 1.32101,-6.83269 0.3125,-10.5 L 147,71 c -0.53181,-1.233464 -1.0747,-2.462173 -1.625,-3.6875 C 142.51187,61.693477 138.52933,54.3376 132.43359,52.027344 130,52 129.99915,52.000244 128.37695,53.03125 c -1.6955,2.423213 -1.77035,4.40375 -1.84375,7.314453 l -0.01,2.130859 c -0.0486,2.264725 -0.0954,4.529833 -0.12305,6.794922 -0.0264,2.352753 -0.0622,4.704105 -0.10351,7.056641 -0.0292,1.486968 -0.0578,2.973947 -0.0859,4.460937 C 126.18407,83.430746 126.93385,87.066146 125,89 122.03525,84.234923 121.39378,79.822187 120.76758,74.283203 119.98959,66.692063 119.41014,59.271786 117,52 c -0.89093,-0.857258 -2.4998,-1.849392 -6,-1 -3.44219,1.930983 -5.49373,4.480241 -7.6875,7.6875 -6.296251,10.7652 -4.110279,21.478664 -1.25,33 0.37204,1.398117 0.73808,2.797844 1.09766,4.199219 1.49108,6.619891 1.54783,11.831121 -2.00391,17.792971 L 100,115.5 c -0.656676,1.08707 -1.331677,2.16141 -1.996094,3.24219 -0.647435,0.82651 -2.524412,3.04283 -4.246094,3.25781 h -0.519531 c -0.07898,-0.0111 -0.157011,-0.0267 -0.234375,-0.0488 -1.761413,-0.50325 -3.132541,-2.18886 -3.652344,-2.90625 C 88.957774,118.33648 88.367679,117.46299 87.25,115.875 83.942497,111.18102 81.225368,106.28017 79.212891,100.89648 73.287936,82.877181 73.480408,65.84964 82.082031,48.660156 83.754893,45.475874 85.287323,42.563383 86,39 83.03607,34.683531 79.24806,31.128355 75.1875,27.6875 L 73.701172,26.109375 72.847656,25.378906 70,23 C 53.51753,10.176355 30.742519,0.2662397 9.15625,-0.33203125 Z"
     transform="translate(2)"
     sodipodi:nodetypes="sccccccccccccccccccccccsccccccccccccccccccccccccccccccccccccccccccccccccccccccccccccccccccccccccccccccsscccccccccccccccccccccccccccccccccccccs" />
</svg>
