<svg width="250" height="250" xmlns="http://www.w3.org/2000/svg">
	<path fill="#8577bf" d="m 24.739976,19.867231 c -2.66245,-0.07379 -5.303576,0.01619 -7.905322,0.286669 -1.344238,2.418569 -1.730444,3.55483 -1.834682,6.421388 0.971302,3.07579 0.971302,3.07579 3.777287,5.072355 7.958044,4.387679 15.322603,9.721364 20.194996,17.500307 l 1.173658,2.087626 c 4.610182,7.980283 5.525324,17.361687 5.288201,26.461246 l -0.107921,2.03029 c -0.388417,7.501304 -1.385107,15.628048 -5.072356,22.285998 l -1.834683,2.75202 c -2.228434,3.74443 -4.332034,6.2224 -8.040225,8.57984 -4.106905,2.57458 -8.167579,5.52612 -10.954133,9.55114 0.08769,1.8819 0.08769,1.8819 0.86338,3.45352 2.59014,0.86338 2.58993,0.86383 4.966121,0.92072 l 2.861632,-0.0641 c 2.157382,-0.0299 4.314712,-0.0638 6.471978,-0.1012 5.055465,-0.12105 10.058817,-0.32344 15.053499,0.57335 6.233893,1.69158 8.87403,4.33675 12.089006,9.89513 5.448371,10.51074 8.950422,23.04878 5.633891,34.70044 l -0.561534,1.83132 c -1.372859,4.62694 -2.976292,8.74425 -5.396125,12.95069 -1.369267,2.14834 -1.369267,2.14834 -2.266371,4.0471 7.64e-4,0.006 9.68e-4,0.006 0.0018,0.01 -0.172706,0.35206 -1.185938,2.55404 0.17706,3.27814 0.211374,0.11229 0.441573,0.15652 0.679576,0.15008 0.0027,0.007 0.0022,0.008 0.0051,0.0152 5.852286,0.12724 5.852286,0.12724 12.357125,-5.50403 3.801642,-3.30653 7.384373,-7.17273 12.589833,-7.69961 l 2.519316,0.0911 c 0.491973,0.0136 0.983584,0.0382 1.475503,0.054 0.993814,0.14553 2.766932,0.63023 2.870062,2.24446 l -0.02529,0.41651 -0.219218,3.32874 c -0.133042,2.07056 -0.29094,4.13985 -0.485723,6.20554 -0.863381,2.59014 -0.863381,2.59014 -1.325424,4.92059 l -0.684482,2.51455 c -0.238875,1.65953 -1.131312,3.48299 -0.580234,4.65217 2.524659,1.1253 2.721101,0.69968 5.109455,-0.31365 l 2.822847,-1.68291 c 2.803912,-1.63977 2.868831,-1.68221 4.956011,-3.14156 0.96013,-0.29104 3.21615,-0.84281 5.23255,-0.344 0.30701,0.1476 0.61062,0.28131 0.92746,0.46372 5.60344,5.24193 8.60285,12.37989 9.06549,19.9117 0.0864,3.83806 0.58266,6.19952 2.96787,9.28134 2.75202,0.26981 2.75202,0.26981 5.18028,0 0.86338,-1.72675 0.8636,-1.72675 1.09272,-3.29164 l 0.172,-1.88864 0.20067,-2.09437 c 0.67129,-7.18718 0.7212,-15.12301 3.93073,-21.70253 l 1.51093,-2.1045 c 1.54825,-2.77553 3.01888,-5.42392 5.18026,-7.77042 3.17024,-0.72121 3.17024,-0.72121 6.04367,0 2.70227,2.02944 2.70227,2.02944 4.31689,5.18029 1.24111,2.3743 1.24111,2.3743 2.59015,4.3169 1.62672,1.38904 2.13536,1.53192 3.45351,0.86338 0.86339,-1.72676 0.90967,-1.56514 1.10621,-3.45352 l 0.18886,-2.09775 0.21586,-2.29672 c 0.14328,-1.59641 0.28719,-3.19276 0.43168,-4.78907 l 0.21584,-2.30347 c 0.31235,-3.47972 0.78198,-6.45415 2.32034,-9.61185 2.46782,-3.48898 4.92746,-6.17366 9.22738,-7.01496 6.08033,1.09447 9.97625,4.16759 14.56953,8.0942 2.3608,2.12134 2.3608,2.12134 4.53275,3.6154 2.35381,1.08753 2.48479,0.61278 3.45351,-0.86339 0.35628,-3.47818 -0.0111,-4.34427 -1.04213,-6.89017 -4.08681,-8.16369 -7.04629,-15.32094 -7.04025,-24.54224 l 0.0421,-2.45525 c -0.0142,-4.1908 -0.0243,-8.10387 0.9949,-12.18512 3.30809,-7.51837 7.64884,-11.92853 14.9068,-15.74993 l 2.4991,-1.20402 c 4.45913,-2.21642 9.04045,-3.03077 13.92201,-3.8852 3.41721,-0.53481 6.53746,-1.18779 9.76024,-2.50921 2.21914,-1.37601 2.21914,-1.37601 3.08254,-3.96615 l -0.77064,-1.39793 -1.22931,-1.51261 -1.34733,-1.70146 c -4.84045,-6.014116 -9.88238,-12.092042 -12.19356,-19.562637 -1.7107,-10.051762 1.16687,-18.092481 6.04365,-26.764777 0.61359,-0.601456 1.39937,-3.089736 2.52709,-4.044669 1.02543,-0.99775 2.49876,-1.947224 4.37996,-3.779712 l 1.72674,-1.672798 c 1.10568,-1.474223 2.22802,-2.55195 3.4215,-3.956034 l 2.83802,-1.979704 c 2.3743,-1.834683 2.3743,-1.834683 2.96787,-4.910473 -0.59357,-2.967869 -1.01919,-2.509501 -2.48223,-4.424823 l -2.55976,-2.246136 c -2.50897,-1.762911 -3.95468,-2.233804 -6.54618,-3.433284 -11.96397,-3.905342 -25.80178,-3.924597 -37.4255,1.215815 -1.14208,0.511003 -2.2867,1.015155 -3.43328,1.515973 -1.22199,0.531952 -2.44342,1.065801 -3.6643,1.600288 l -1.84312,0.807732 c -2.17655,0.953077 -4.35301,1.906341 -6.52931,2.859946 l -1.83974,0.998284 c -3.18746,2.048867 -1.4519,0.728476 -9.86984,7.041943 -4.16074,3.314351 -9.14779,7.091153 -9.87493,12.680891 1.29508,1.780721 1.29508,1.780721 3.45352,3.453519 5.50502,2.077369 8.90904,4.397155 12.08733,9.497179 3.89411,9.755963 3.74745,20.456379 0,30.218298 -1.39092,2.309519 -2.62294,4.401019 -3.60528,6.920529 -1.62948,4.63643 -3.2583,8.87354 -6.05379,12.93721 -0.13377,0.18073 -0.22685,0.34476 -0.35411,0.52107 -0.15715,0.16235 -0.31191,0.35943 -0.46542,0.59694 -3.4705,5.36946 -5.76319,6.8095 -6.02511,6.48209 -0.15632,-0.19539 -1.10146,-1.51877 -1.95442,-2.71661 -0.16562,-0.35302 -0.39229,-0.71435 -0.79592,-1.28156 -2.88572,-3.68846 -4.88123,-7.91486 -6.64735,-12.23573 -0.96177,-4.59518 0.13124,-8.13553 2.59015,-12.08732 1.83468,-2.050526 1.83468,-2.050526 3.45351,-4.316898 0.89956,-3.148513 1.14053,-5.899209 0.26981,-9.06549 l -1.13319,-2.15845 c -0.45916,-1.064948 -0.92787,-2.12579 -1.40299,-3.183712 -2.47196,-4.851353 -5.91042,-11.202269 -11.17335,-13.196898 -2.10111,-0.02361 -2.10186,-0.02341 -3.50242,0.866752 -1.46386,2.092154 -1.52849,3.80211 -1.59187,6.315152 l -0.009,1.839742 c -0.042,1.955317 -0.0824,3.910967 -0.10626,5.866599 -0.0228,2.031319 -0.0537,4.061429 -0.0893,6.092561 -0.0252,1.283818 -0.0499,2.567646 -0.0741,3.851483 -0.0231,2.280777 0.62432,5.41951 -1.04532,7.089159 -2.55971,-4.114071 -3.11355,-7.923939 -3.6542,-12.706187 -0.6717,-6.554036 -1.17199,-12.960555 -3.25285,-19.238869 -0.76921,-0.740139 -2.15828,-1.596728 -5.18028,-0.86338 -2.97192,1.667173 -4.74318,3.86815 -6.63724,6.637234 -5.43606,9.294456 -3.54873,18.544246 -1.07922,28.491536 0.32121,1.207106 0.63724,2.415596 0.9477,3.625526 1.28736,5.71548 1.33636,10.21475 -1.73014,15.3621 l -0.99829,1.57161 c -0.56696,0.93856 -1.14974,1.86613 -1.72338,2.79925 -0.55899,0.71358 -2.179539,2.62712 -3.666001,2.81272 h -0.448406 c -0.06819,-0.01 -0.13556,-0.0231 -0.202354,-0.0421 -1.520769,-0.4345 -2.704573,-1.88982 -3.153361,-2.5092 -0.339988,-0.61167 -0.849464,-1.36583 -1.814446,-2.73687 -2.855633,-4.05288 -5.201547,-8.28418 -6.93908,-12.93235 -5.115487,-15.557586 -4.949311,-30.258822 2.477158,-45.099878 1.444315,-2.749245 2.767385,-5.263832 3.382696,-8.340384 -2.558997,-3.726753 -5.829489,-6.796221 -9.335295,-9.766986 l -1.283205,-1.362213 -0.736909,-0.630672 -2.458609,-2.0539 C 63.040614,28.939959 43.377127,20.383766 24.739976,19.867231 Z" />
</svg>
