<?xml version="1.0" encoding="UTF-8" standalone="no"?>
<svg
   version="1.1"
   width="605"
   height="565"
   id="svg1"
   sodipodi:docname="bug.svg"
   inkscape:version="1.4 (86a8ad7, 2024-10-11)"
   xmlns:inkscape="http://www.inkscape.org/namespaces/inkscape"
   xmlns:sodipodi="http://sodipodi.sourceforge.net/DTD/sodipodi-0.dtd"
   xmlns="http://www.w3.org/2000/svg"
   xmlns:svg="http://www.w3.org/2000/svg">
  <defs
     id="defs1" />
  <sodipodi:namedview
     id="namedview1"
     pagecolor="#ffffff"
     bordercolor="#000000"
     borderopacity="0.25"
     inkscape:showpageshadow="2"
     inkscape:pageopacity="0.0"
     inkscape:pagecheckerboard="0"
     inkscape:deskcolor="#d1d1d1"
     inkscape:zoom="1.4142136"
     inkscape:cx="410.12193"
     inkscape:cy="304.40947"
     inkscape:window-width="1920"
     inkscape:window-height="1007"
     inkscape:window-x="1911"
     inkscape:window-y="-9"
     inkscape:window-maximized="1"
     inkscape:current-layer="svg1" />
  <path
     id="path1"
     style="fill:#c4d712;fill-opacity:1"
     d="M 0 0 C -14.726786 -0.16224425 -26.882949 3.256311 -37.5625 13.6875 L -39.875 16.0625 C -42.700308 18.149583 -44.754315 19.886867 -46.753906 22.796875 L -48.4375 25.8125 C -50.718102 29.836472 -52.83318 33.923898 -54.886719 38.066406 L -55.875 40.0625 C -63.513469 55.186329 -71.373394 70.319584 -77.8125 86 C -78.782075 88.423938 -79.741342 90.796677 -80.914062 93.128906 C -82.925815 96.929737 -84.474251 100.65496 -85.8125 104.75 C -86.823516 107.92181 -87.863064 111.0326 -89.097656 114.125 C -92.274272 121.89654 -94.370281 129.62619 -96.175781 137.80078 L -96.875 141.0625 C -101.09134 139.57401 -105.24648 138.51786 -109.625 137.625 C -112.97552 137.01731 -112.97552 137.01731 -115.875 136.0625 C -117.97099 133.05815 -117.97099 133.05815 -119.60938 129.55078 C -123.75299 120.95321 -127.77245 113.26273 -134.5 106.375 L -136.875 104.0625 C -138.92884 101.36683 -140.41682 99.344456 -143.3125 97.5625 L -145.875 96.0625 C -148.1132 93.8243 -149.99054 91.523494 -152.80859 90.054688 C -154.86202 89.122467 -154.86202 89.122468 -156.59375 87.949219 C -160.53095 85.298513 -164.47905 83.298343 -168.875 81.5 C -171.59728 80.416506 -174.27576 79.383352 -176.85938 78 C -182.35171 74.8893 -182.35171 74.8893 -194.79297 72.011719 C -196.15481 71.700376 -197.51557 71.384232 -198.875 71.0625 C -205.38388 69.285977 -211.57367 67.898017 -218.33008 67.714844 L -220.5 67.6875 C -223.87182 67.61956 -226.85438 67.324411 -229.69531 69.378906 L -230.875 71.0625 C -232.43117 73.149191 -233.67116 75.26747 -234.67383 77.650391 C -234.756 78.83801 -234.88276 84.941982 -229.24023 89.199219 C -227.42887 90.565876 -220.56878 87.264065 -220.16602 87.068359 C -219.11658 86.418099 -217.99666 85.935659 -216.35938 85.699219 L -213.625 85.75 C -210.23997 85.76467 -207.40773 86.173156 -204.09766 86.957031 C -201.93601 87.530378 -199.78091 88.082594 -197.59766 88.568359 L -195.26172 89.0625 C -193.69554 89.396897 -192.12913 89.730224 -190.5625 90.0625 L -188.14648 90.5625 L -185.82422 91.0625 C -183.76277 91.46436 -183.76277 91.46436 -181.875 92.0625 C -178.875 94.0625 -178.875 94.0625 -176.67578 95.140625 C -166.87148 99.758036 -157.66774 106.31121 -150.6875 114.6875 L -148.875 117.0625 C -145.36476 120.38673 -142.54444 123.71044 -139.92969 127.75 L -138.625 129.8125 C -136.82901 132.49091 -135.17064 135.10372 -133.875 138.0625 C -133.0291 141.81377 -132.10979 145.53207 -133.875 149.0625 C -141.82142 155.08251 -148.61218 162.49959 -151.875 172.0625 C -152.75935 176.91467 -152.60015 179.95211 -149.875 184.125 C -147.31727 189.21295 -147.31727 189.21295 -147.875 195.0625 C -148.70984 197.27047 -148.70984 197.27047 -151.0625 198 C -155.12884 199.53617 -158.83494 201.46115 -162.59766 203.63672 L -165.5625 205.4375 C -168.73771 207.36107 -170.62616 208.69216 -172.70703 211.78906 L -172.76562 211.9043 C -180.17362 211.60616 -185.17969 208.87695 -185.17969 208.87695 L -185.19336 208.88281 C -187.28055 207.80833 -189.16576 206.56615 -191.125 205.25 C -192.70723 204.18586 -194.29051 203.12328 -195.875 202.0625 C -197.89818 200.76461 -199.90366 199.43785 -201.875 198.0625 C -207.32454 192.43716 -212.14021 189.69391 -219.875 189.0625 C -221.48453 191.57739 -221.91014 193.3729 -222.25 196.375 C -221.69089 201.87288 -219.80493 205.45692 -215.55078 208.99609 L -212.875 211.0625 C -206.51204 216.51363 -200.36182 221.21266 -192.89453 225.06641 L -190.875 226.0625 C -190.7439 229.23508 -190.54747 230.60396 -192.4375 233.25 C -197.30911 238.87108 -201.33944 245.16042 -205.3125 251.4375 C -208.45459 256.42663 -211.6992 261.33977 -214.98047 266.23828 L -216.875 269.0625 C -218.1898 271.07473 -219.52294 273.07511 -220.875 275.0625 C -222.99613 277.66312 -224.89431 280.09566 -226.58594 283 C -229.0716 287.57455 -231.24167 291.96345 -235.3125 295.3125 L -237.875 297.0625 L -235.875 300.0625 C -232.30006 299.34057 -228.72131 298.63977 -225.13867 297.95703 L -223.0625 297.5625 C -217.67963 296.52198 -212.3218 295.69684 -206.875 295.0625 L -205.875 300.0625 C -218.65682 307.22032 -227.02675 314.68282 -235.0625 326.875 C -235.97137 328.28964 -236.90694 329.68769 -237.875 331.0625 C -239.50386 332.66257 -240.8115 333.95448 -241.97266 335.92969 L -242.12891 336.25391 C -244.5987 339.48244 -247.57554 343.74122 -248.8418 347.0625 L -248.875 347.0625 C -250.11658 349.78341 -251.40106 352.45905 -252.875 355.0625 C -255.87366 357.96443 -257.62611 360.36664 -259.4375 364.125 C -260.60024 366.66015 -261.54487 368.70691 -263.44531 370.75391 L -264.875 372.0625 C -266.6252 374.56278 -266.94622 375.57585 -266.5 378.625 C -264.875 381.0625 -264.875 381.0625 -263.19922 382.08203 C -258.53732 384.06447 -254.82791 384.58647 -249.875 383.0625 C -247.56089 380.58089 -245.99087 378.31325 -244.56641 375.23047 C -242.51853 369.82378 -240.38602 364.82229 -237.19531 359.99609 L -235.875 358.0625 C -234.85424 356.52078 -233.83341 354.97912 -232.8125 353.4375 C -231.82894 351.98213 -230.84936 350.52405 -229.875 349.0625 C -227.26795 344.77348 -224.64849 341.70712 -220.78906 338.57031 L -218.875 337.0625 C -209.45305 329.33266 -202.22033 326.3105 -189.875 327.0625 L -189.83984 329.76562 L -189.8125 333.3125 C -189.7745 337.11766 -189.8231 340.41179 -190.875 344.0625 C -193.67444 351.04117 -195.34156 358.03203 -196.9375 365.375 L -197.71289 368.94727 L -198.47266 372.36328 C -198.88734 374.27523 -199.34607 376.17895 -199.875 378.0625 C -201.875 381.0625 -201.87549 381.06274 -202.49805 383.23242 L -203.02344 385.74609 L -203.625 388.53906 C -205.10544 395.5577 -206.51663 402.54747 -208.9375 409.3125 C -211.12088 415.37248 -211.12089 415.37243 -214.14062 429.54688 L -214.875 433.0625 C -224.75485 432.0968 -233.58186 430.75971 -241.875 437.0625 C -242.875 440.75 -242.875 440.75 -242.875 444.0625 C -238.78194 448.15556 -238.78194 448.15556 -223.03125 451.44922 L -219.875 452.0625 C -216.66211 452.7665 -214.21681 453.0625 -210.875 453.0625 C -206.35473 449.70518 -204.93478 446.166 -203.40039 440.9668 C -202.9213 439.22502 -202.43419 437.48544 -201.93945 435.74805 L -201.20703 433.23828 C -200.62046 431.00104 -200.62046 431.00104 -199.875 429.0625 C -198.29484 426.35539 -198.31592 426.79688 -197.50977 424.89258 L -196.28906 422.84375 L -195.41406 420.2832 C -194.79973 418.45351 -194.17821 416.62475 -193.55273 414.79883 L -192.61328 412.07031 C -191.12026 407.7344 -189.52299 403.46195 -187.77344 399.22266 C -187.1203 397.65228 -186.48156 396.07589 -185.85156 394.49609 C -183.9311 389.65161 -181.95287 384.84159 -179.875 380.0625 L -176.875 380.0625 C -173.29178 389.29078 -169.29777 398.26811 -164.875 407.125 C -163.87407 409.1037 -162.87405 411.08285 -161.875 413.0625 L -160.48828 415.90234 L -159.1875 418.5625 C -158.07168 420.86315 -156.98704 422.91177 -155.46094 424.96484 C -153.76901 427.13495 -153.76901 427.13495 -152.11328 429.91016 C -148.80458 435.43361 -145.43499 440.80133 -141.625 446 C -139.9199 448.28677 -138.21125 450.54353 -136.66016 452.9375 C -135.04704 455.52884 -133.64675 457.24727 -131.25 459.1875 L -129 460.875 C -127.41085 463.3033 -126.51725 464.37284 -124.6875 466.75 C -121.88663 468.81032 -121.76163 468.99782 -119.5625 471.875 C -117.02857 475.01487 -114.17737 477.59462 -111.10938 480.20703 L -108.875 482.0625 C -106.38775 484.12852 -103.88575 486.16568 -101.34375 488.16406 L -98.875 490.0625 C -96.870408 491.61367 -94.857084 493.05186 -92.726562 494.42578 C -76.831947 503.54886 -57.598246 512.84174 -38.835938 508.33203 C -29.473005 505.2405 -26.242219 500.5255 -19.625 492.26172 L -18.433594 490.81445 L -17.273438 489.57617 C -15.722979 487.95182 -15.899066 487.9962 -14.457031 485.99609 C -8.8083114 478.02803 -3.3668355 470.00551 1.6210938 461.60547 C 2.6309629 459.89787 3.6440323 458.19216 4.6601562 456.48828 L 6.1875 453.9375 C 7.5813111 451.60114 8.9805586 449.28272 10.472656 447.00781 C 12.800934 443.46199 14.637488 440.01895 16.1875 436.0625 C 17.032206 433.75805 17.88728 431.51755 19.027344 429.3418 C 21.473966 424.7366 23.114934 420.21013 24.511719 415.1875 C 25.00639 413.34492 25.506447 411.50377 26.011719 409.66406 L 26.757812 406.96094 C 27.199935 405.32439 27.656114 403.69158 28.125 402.0625 C 29.623539 397.94833 30.522052 394.08913 31.087891 389.76953 L 31.378906 387.40234 C 31.596331 385.70386 31.813107 384.00529 32.029297 382.30664 C 32.357017 379.66267 32.685328 377.01961 33.023438 374.37695 C 34.228811 364.99723 35.341251 355.64177 35.992188 346.20508 L 36.125 344.0625 C 37.880614 344.0625 39.636066 344.1149 41.390625 344.17578 L 45.375 344.375 C 49.506298 344.5587 52.556965 344.81216 56.351562 346.48438 L 59.125 348.0625 L 61.320312 349.08984 L 63.25 350 C 65.229433 350.8761 65.229433 350.8761 67.125 352.0625 C 69.409122 354.39963 71.363452 356.21443 74.140625 357.98438 L 77.375 359.8125 C 79.288247 360.90186 81.203849 361.98714 83.125 363.0625 C 87.68812 360.21686 92.133928 357.82441 94.8125 353.0625 C 95.204278 349.30143 95.269959 346.69943 94.125 343.0625 C 90.875 340.75 90.875 340.75 88.980469 339.83984 L 87.125 339.0625 L 84.1875 337.8125 L 82.125 337.0625 L 82.125 335.0625 C 80.090213 334.09198 80.090213 334.09198 78.171875 332.79297 L 75.875 331.25 C 74.289617 330.19056 72.706129 329.12828 71.125 328.0625 C 63.926896 323.05512 56.557294 318.748 48.1875 316.0625 C 45.507532 315.40088 45.507532 315.40088 43.125 314.0625 C 39.538873 310.01896 38.664342 306.95178 38.724609 301.73633 L 38.8125 299.5 C 38.8724 294.90351 39.031128 290.5536 40.125 286.0625 C 42.777659 285.91358 44.77207 285.92903 47.273438 286.875 L 49.5 288.0625 L 52.125 289.44141 C 53.70046 290.29273 55.276287 291.14388 56.855469 291.98828 L 58.6875 292.96484 C 61.242878 294.32928 63.798858 295.69257 66.355469 297.05469 C 67.612384 297.7232 68.868905 298.39245 70.125 299.0625 L 73.613281 300.94531 L 76.8125 302.625 C 79.636719 304.12891 79.636719 304.12891 82.125 305.0625 C 84.578286 304.76122 85.799108 304.29183 87.8125 302.875 C 89.666293 300.315 89.92965 298.1881 90.125 295.0625 C 85.042168 287.43825 77.385894 282.40497 69.5 277.9375 C 67.730427 276.9544 65.964767 275.95793 64.269531 274.85156 C 60.738111 272.52548 57.326334 270.64863 53.375 269.125 C 50.507941 268.02537 47.69627 266.87144 44.890625 265.62109 L 41.625 264.0625 C 38.669241 262.6608 36.64122 261.79996 34.757812 259.10938 C 34.149953 254.60278 34.149953 254.60278 35.125 250.0625 C 37.652623 249.2429 39.611505 249.06909 42.296875 249.10547 C 46.886199 249.29085 51.299407 249.58138 55.75 248.31641 C 59.520099 246.53531 61.65569 244.94834 63.125 241.0625 C 62.055057 234.18429 62.055057 234.18429 49.5 224.375 C 48.041088 223.2716 46.582767 222.16741 45.125 221.0625 C 42.751129 219.12976 40.414994 217.25483 37.863281 215.5625 C 24.38777 206.97635 24.38777 206.97635 11.125 198.0625 L 11.273438 195.57812 L 11.5 192.3125 C 11.636258 190.22321 11.840192 188.13676 12.125 186.0625 C 13.744442 182.8628 14.554411 180.17741 15.011719 176.58203 L 15.25 174.4375 C 16.360126 164.51066 16.531983 154.6985 16 144.72852 C 15.478541 136.76335 15.452203 128.6707 9.125 123.0625 C 5.9375 122.5 5.9375 122.5 3.125 123.0625 L 1.125 125.0625 L -1.4882812 126.91016 C -4.4097555 130.7688 -4.4097555 130.7688 -4.2167969 139.0957 C -3.924792 145.53829 -3.1248497 152.16237 -4.75 158.44531 L -5.875 161.0625 C -7.5476168 167.01526 -8.7514607 173.03127 -12.5 178.0625 L -13.814453 181.10742 C -15.38222 183.69805 -15.647272 183.8299 -16.875 186.0625 C -20.410143 187.44218 -20.410143 187.44218 -23.875 188.0625 L -23.875 188.05664 C -23.88725 188.05264 -32.379508 185.3116 -38.625 184.0625 C -44.875 182.8125 -58.875 182.1875 -58.875 182.1875 L -58.792969 182.06641 C -58.822149 182.06441 -58.84574 182.0645 -58.875 182.0625 L -59.875 174.0625 L -59.869141 174.0625 C -59.872941 174.0421 -59.88008 174.02305 -59.875 174.00195 C -59.22687 171.34222 -58.941935 165.27696 -61.234375 155.57812 C -63.526825 145.87931 -83.871094 142.0625 -83.871094 142.0625 L -83.875 142.0625 L -83.542969 139.54297 L -83.0625 136.25 C -82.768232 134.14485 -82.618786 132.41048 -81.894531 130.78516 C -81.894782 130.78502 -81.945316 130.75781 -81.945312 130.75781 C -81.945312 130.75781 -73.125 107.9375 -66 91.0625 C -65.454002 89.769347 -64.848183 88.618046 -64.205078 87.568359 C -63.401019 85.615427 -62.671615 83.644586 -61.734375 81.71875 C -60.107153 78.555981 -58.489628 75.39272 -56.996094 72.164062 L -56.066406 70.121094 C -55.615636 69.134729 -55.166413 68.147317 -54.716797 67.160156 C -54.606665 66.947681 -52.722588 63.339686 -48.988281 57.894531 C -48.865658 57.771836 -48.667122 57.417633 -48.546875 57.255859 C -48.452301 57.119666 -48.36236 56.987803 -48.265625 56.849609 C -48.07689 56.579989 -47.917961 56.315449 -47.771484 56.054688 C -47.628791 55.809584 -47.574868 55.788126 -47.394531 55.472656 C -44.2428 49.291802 -40.975035 43.356958 -36.886719 37.734375 L -34.875 35.0625 C -29.704082 28.130282 -24.678447 21.017758 -17.878906 15.578125 L -15.875 14.0625 C -9.2058571 8.5771593 -2.8823499 5.8053111 5.4140625 3.6914062 L 5.4257812 3.6894531 C 6.6195825 3.2341198 7.9413628 2.5360296 8.0371094 1.6503906 C 8.1765223 0.36077213 3.3225508 0.073623769 1.2441406 0.0078125 L 0 0 z "
     transform="translate(391.875,23.9375)" />
  <path
     style="fill:#c4d712;fill-opacity:1"
     d="m 470.25,356.8125 c 0,0 8.125,4.6875 12.1875,7.0625 4.0625,2.375 3.6875,3.8125 3.6875,3.8125 0,0 -2.125,3.9375 -2.4375,3.9375 -0.3125,0 -9.0625,2.4375 -9.4375,2.3125 -0.375,-0.125 -7.5625,-7.0625 -7.625,-7.625 -0.0625,-0.5625 3.625,-9.5 3.625,-9.5 z"
     id="path3" />
</svg>
