<svg width="250" height="250" xmlns="http://www.w3.org/2000/svg">
	<path fill="#c4d712" d="m 162.05179,15.002292 c -6.35881,-0.07005 -11.60764,1.406025 -16.21891,5.910049 l -0.9985,1.025488 c -1.21993,0.901171 -2.10681,1.651303 -2.97021,2.907798 l -0.72694,1.3021 c -0.98473,1.737489 -1.89799,3.502375 -2.78467,5.291045 l -0.42673,0.861882 c -3.29816,6.530234 -6.69196,13.064537 -9.47227,19.835097 -0.41865,1.04662 -0.83284,2.071133 -1.33921,3.078153 -0.86864,1.641139 -1.53723,3.249631 -2.11507,5.017805 -0.43654,1.369538 -0.8854,2.712729 -1.41848,4.04798 -1.37161,3.355631 -2.27664,6.693171 -3.05622,10.222837 l -0.30191,1.408353 c -1.82055,-0.642706 -3.61467,-1.098742 -5.50525,-1.484256 -1.44671,-0.26239 -1.44671,-0.26239 -2.69866,-0.674664 -0.90502,-1.297233 -0.90502,-1.297233 -1.61244,-2.81166 -1.78915,-3.712293 -3.52469,-7.032926 -6.42955,-10.00694 l -1.02548,-0.998502 c -0.88683,-1.163948 -1.52931,-2.037176 -2.77962,-2.806599 l -1.106448,-0.647676 c -0.966423,-0.966419 -1.777029,-1.959874 -2.993816,-2.594078 -0.886637,-0.402518 -0.886637,-0.402518 -1.634376,-0.90911 -1.70002,-1.144535 -3.404746,-2.008178 -5.302847,-2.784673 -1.175438,-0.467834 -2.331969,-0.913937 -3.447536,-1.511245 -2.3715,-1.343152 -2.3715,-1.343152 -7.743441,-2.585647 -0.588025,-0.134433 -1.17558,-0.27094 -1.762561,-0.409858 -2.810432,-0.767075 -5.483086,-1.366374 -8.400397,-1.445465 l -0.936938,-0.0118 c -1.455897,-0.02934 -2.743722,-0.156777 -3.970392,0.730323 l -0.509374,0.726949 c -0.671928,0.901 -1.207337,1.815639 -1.640276,2.844546 -0.03549,0.512797 -0.09021,3.148396 2.346148,4.986606 0.782115,0.590103 3.744197,-0.835568 3.918103,-0.920072 0.45313,-0.280772 0.936697,-0.489082 1.643648,-0.591173 l 1.180663,0.02194 c 1.461598,0.0063 2.684519,0.182713 4.113757,0.521176 0.933367,0.247564 1.863901,0.486 2.806598,0.695747 l 1.008623,0.213363 c 0.676252,0.144388 1.352604,0.288311 2.029048,0.431785 l 1.043198,0.215892 1.002718,0.215892 c 0.890101,0.173516 0.890101,0.173516 1.705209,0.431784 1.295352,0.863568 1.295352,0.863568 2.244941,1.329084 4.233344,1.993726 8.207379,4.823287 11.221337,8.440035 l 0.782611,1.025495 c 1.515663,1.435352 2.73344,2.870475 3.86244,4.614684 l 0.56335,0.890559 c 0.77548,1.156495 1.49154,2.284672 2.05098,3.562227 0.36524,1.619737 0.76219,3.225243 0,4.74962 -3.43115,2.599359 -6.363288,5.801933 -7.772128,9.931049 -0.381843,2.095088 -0.313103,3.406608 0.863571,5.208399 1.10439,2.196899 1.10439,2.196899 0.863569,4.72264 -0.360472,0.953364 -0.360472,0.953364 -1.376309,1.268364 -1.755788,0.66329 -3.356021,1.49447 -4.980706,2.43385 l -1.280172,0.77754 c -1.371006,0.83057 -2.186405,1.40532 -3.084899,2.74251 l -0.02528,0.0498 c -3.198662,-0.12873 -5.360204,-1.30716 -5.360204,-1.30716 l -0.0056,0.003 c -0.90122,-0.46394 -1.71522,-1.00029 -2.56119,-1.56859 -0.683182,-0.45947 -1.366817,-0.91828 -2.050978,-1.37631 -0.873574,-0.56041 -1.739516,-1.13328 -2.590703,-1.72713 -2.353028,-2.428935 -4.432362,-3.613433 -7.772125,-3.886068 -0.694967,1.085897 -0.878742,1.861168 -1.025486,3.157426 0.241418,2.373892 1.055745,3.921422 2.892618,5.449582 l 1.15536,0.89224 c 2.747429,2.35372 5.402995,4.38268 8.62726,6.04668 l 0.871997,0.43009 c 0.05659,1.36987 0.141426,1.96093 -0.674661,3.10345 -2.103488,2.42709 -3.84372,5.14273 -5.559224,7.85308 -1.356707,2.15423 -2.757681,4.27564 -4.174479,6.39074 l -0.818026,1.21946 c -0.567713,0.86885 -1.14334,1.73258 -1.727141,2.5907 -0.915873,1.12291 -1.735475,2.17325 -2.465897,3.42729 -1.073267,1.97523 -2.010269,3.87028 -3.767988,5.31635 l -1.10645,0.75562 0.86357,1.29535 c 1.543599,-0.31171 3.088852,-0.61431 4.635781,-0.9091 l 0.896456,-0.17035 c 2.324239,-0.44928 4.637664,-0.80557 6.989513,-1.07947 l 0.431781,2.15892 c -5.51899,3.09064 -9.132992,6.31283 -12.602707,11.57723 -0.392436,0.61081 -0.7964,1.21447 -1.214394,1.8081 -0.703316,0.69088 -1.267933,1.2487 -1.769306,2.10158 l -0.06744,0.13999 c -1.066415,1.39403 -2.35177,3.2329 -2.898517,4.66697 h -0.01434 c -0.536097,1.17485 -1.090717,2.33014 -1.72714,3.45428 -1.294775,1.253 -2.051455,2.29025 -2.833585,3.91305 -0.502053,1.09463 -0.90993,1.97839 -1.73051,2.86225 l -0.617318,0.56503 c -0.755709,1.07959 -0.89432,1.51702 -0.701649,2.83359 0.701649,1.05248 0.701649,1.05248 1.425225,1.49269 2.012936,0.85599 3.614601,1.08138 5.753188,0.42336 0.999196,-1.07153 1.677109,-2.05066 2.292169,-3.38175 0.884244,-2.33453 1.805024,-4.49409 3.182725,-6.57797 l 0.57009,-0.83489 c 0.440749,-0.6657 0.881525,-1.33136 1.322338,-1.99701 0.424688,-0.62841 0.847652,-1.25798 1.268365,-1.88906 1.125684,-1.85193 2.256727,-3.17594 3.923173,-4.53036 l 0.82646,-0.65105 c 4.068247,-3.33763 7.191228,-4.64255 12.521749,-4.31784 l 0.0152,1.16716 0.01178,1.53149 c 0.0164,1.64301 -0.0043,3.06536 -0.458774,4.64168 -1.20875,3.01329 -1.928587,6.03183 -2.617689,9.20241 l -0.334807,1.54244 -0.328056,1.47499 c -0.179054,0.82555 -0.377121,1.64754 -0.605504,2.46083 -0.86357,1.29536 -0.863783,1.29546 -1.132598,2.23229 l -0.226849,1.08537 -0.259749,1.20595 c -0.639228,3.03055 -1.248558,6.04861 -2.293852,8.96965 -0.942752,2.6166 -0.94276,2.61658 -2.246623,8.73689 l -0.317101,1.518 c -4.265959,-0.41698 -8.077325,-0.99431 -11.658179,1.72714 -0.431782,1.5922 -0.431782,1.5922 -0.431782,3.02249 1.767318,1.76731 1.767318,1.76731 8.568219,3.18947 l 1.36282,0.2648 c 1.387279,0.30397 2.443122,0.43178 3.886063,0.43178 1.951781,-1.44963 2.564896,-2.9778 3.227417,-5.22274 0.206863,-0.75207 0.417191,-1.50319 0.630814,-2.25337 l 0.316248,-1.08367 c 0.253274,-0.96601 0.253274,-0.96601 0.575152,-1.80304 0.682287,-1.16889 0.673186,-0.97827 1.021269,-1.80051 l 0.527081,-0.88466 0.377809,-1.1056 c 0.265259,-0.79004 0.533627,-1.57966 0.803698,-2.36807 l 0.405641,-1.17812 c 0.644659,-1.87219 1.334336,-3.71696 2.089764,-5.54742 0.282013,-0.67807 0.557815,-1.35872 0.82984,-2.04086 0.829221,-2.09177 1.683392,-4.16866 2.580585,-6.2322 h 1.295352 c 1.547178,3.98463 3.271727,7.8609 5.181415,11.68517 0.432185,0.85436 0.863974,1.70893 1.295351,2.56372 l 0.598766,1.22619 0.561656,1.14862 c 0.481792,0.99339 0.950123,1.87794 1.609065,2.76443 0.730551,0.93702 0.730551,0.93702 1.445469,2.13531 1.428647,2.38494 2.883586,4.70264 4.528673,6.94735 0.73624,0.98739 1.47401,1.96182 2.14375,2.9955 0.69652,1.1189 1.30114,1.86089 2.33602,2.69865 l 0.97152,0.72864 c 0.68617,1.0485 1.07202,1.51031 1.86208,2.53674 1.20937,0.88961 1.26334,0.97056 2.21289,2.21289 1.09411,1.35575 2.32522,2.46964 3.64993,3.59763 l 0.96477,0.80116 c 1.07396,0.89208 2.15428,1.7717 3.25188,2.63457 l 1.06597,0.81971 c 0.86555,0.66978 1.73487,1.29076 2.6548,1.884 6.86305,3.93921 15.16785,7.95173 23.26913,6.00451 4.04276,-1.33488 5.43776,-3.37074 8.29498,-6.93891 l 0.51443,-0.62491 0.50094,-0.53467 c 0.66946,-0.70137 0.59343,-0.68221 1.21608,-1.54583 2.43903,-3.44049 4.78857,-6.90448 6.94228,-10.53148 0.43605,-0.73732 0.87347,-1.47382 1.31222,-2.20953 l 0.65948,-1.10138 c 0.60182,-1.00881 1.20601,-2.00987 1.85027,-2.99214 1.00531,-1.53103 1.79831,-3.01768 2.46757,-4.72601 0.36474,-0.99502 0.73395,-1.96244 1.22621,-2.90189 1.05641,-1.98845 1.76496,-3.94292 2.36807,-6.11161 0.21359,-0.7956 0.42951,-1.59058 0.64767,-2.38494 l 0.32215,-1.16716 c 0.19091,-0.70664 0.38788,-1.41166 0.59033,-2.11507 0.64705,-1.77644 1.03501,-3.44278 1.27934,-5.30792 l 0.12565,-1.02211 c 0.0938,-0.73338 0.18749,-1.4668 0.28084,-2.20025 0.1415,-1.14162 0.28326,-2.28285 0.42925,-3.42391 0.52046,-4.05002 1.00079,-8.08956 1.28185,-12.16417 l 0.0573,-0.92514 c 0.75804,0 1.51603,0.0226 2.27362,0.0489 l 1.72038,0.086 c 1.78383,0.0793 3.10107,0.18876 4.73951,0.9108 l 1.19753,0.68141 0.94791,0.44358 0.83321,0.393 c 0.85468,0.37829 0.85468,0.37829 1.67316,0.89055 0.98625,1.00913 1.83009,1.79274 3.02924,2.55698 l 1.39655,0.78935 c 0.82611,0.47037 1.65324,0.93898 2.48275,1.40331 1.97029,-1.22871 3.88992,-2.26173 5.0465,-4.31785 0.16096,-1.54526 0.18016,-2.64765 -0.24289,-4.1028 -0.004,-0.0426 -0.0132,-0.0969 -0.0439,-0.17373 -0.004,-0.0145 -0.006,-0.0267 -0.01,-0.0413 -0.007,-0.004 -0.006,-0.004 -0.0118,-0.009 -0.13013,-0.27948 -0.49848,-0.73994 -1.52642,-1.3409 -1.75413,-1.02549 -5.26238,-3.04948 -5.26238,-3.04948 0,0 -0.005,0.0117 -0.005,0.0118 -0.0363,-0.0247 -0.0426,-0.0201 -0.0827,-0.0472 l -0.99176,-0.66623 c -0.68454,-0.45745 -1.36826,-0.91612 -2.05097,-1.37631 -3.10803,-2.16211 -6.29011,-4.02186 -9.90406,-5.18141 -1.15717,-0.28568 -1.15717,-0.28568 -2.18591,-0.86357 -1.54843,-1.74594 -1.92604,-3.0703 -1.90002,-5.32225 l 0.038,-0.96562 c 0.0258,-1.98469 0.0944,-3.86291 0.56671,-5.80209 1.14538,-0.0643 2.00653,-0.0576 3.08658,0.35082 l 0.9614,0.51275 1.13343,0.59538 c 0.68026,0.36759 1.36068,0.7351 2.04254,1.0997 l 0.79105,0.42166 c 1.10336,0.58915 2.207,1.1778 3.31091,1.76594 0.54271,0.28865 1.08526,0.57762 1.62762,0.86694 l 1.50618,0.81297 1.38138,0.72526 c 1.21945,0.64937 1.21945,0.64937 2.29385,1.05248 1.05929,-0.13008 1.58643,-0.33277 2.45577,-0.94453 0.80044,-1.10536 0.91416,-2.02373 0.99851,-3.37331 -2.19469,-3.29204 -5.50055,-5.46533 -8.90555,-7.39432 -0.76408,-0.42448 -1.52646,-0.85475 -2.25844,-1.33245 -1.52481,-1.00437 -2.99797,-1.81477 -4.70409,-2.47264 -1.23795,-0.47481 -2.45198,-0.97306 -3.66343,-1.51294 l -1.41003,-0.67297 c -1.27626,-0.60524 -2.15193,-0.97694 -2.96515,-2.13869 -0.26247,-1.94587 -0.26247,-1.94587 0.15855,-3.9063 1.09139,-0.35389 1.93721,-0.42893 3.0967,-0.41323 1.9816,0.0801 3.88715,0.2055 5.80886,-0.3407 1.62786,-0.76905 2.54997,-1.45428 3.1844,-3.13212 -0.46199,-2.96991 -0.46199,-2.96991 -5.88306,-7.20541 -0.62994,-0.47643 -1.25962,-0.9532 -1.88906,-1.43029 -1.025,-0.83452 -2.03371,-1.64409 -3.1355,-2.3748 -5.81851,-3.70737 -5.81851,-3.70737 -11.54517,-7.55623 l 0.0641,-1.072709 0.0978,-1.410044 c 0.0589,-0.902124 0.14689,-1.803024 0.26986,-2.698658 0.69926,-1.381574 1.04899,-2.541089 1.24645,-4.093515 l 0.10289,-0.925978 c 0.47933,-4.286253 0.55353,-8.522992 0.32383,-12.827872 -0.22515,-3.439237 -0.23652,-6.933513 -2.96852,-9.355052 -1.37631,-0.242875 -1.37631,-0.242875 -2.5907,0 l -0.86357,0.86357 -1.12837,0.797788 c -1.26146,1.666108 -1.26146,1.666108 -1.17814,5.261527 0.12609,2.781813 0.47149,5.641985 -0.23022,8.354863 l -0.48576,1.13006 c -0.72221,2.570315 -1.24201,5.167935 -2.86057,7.34034 l -0.56757,1.314741 c -0.67693,1.118601 -0.79137,1.175523 -1.32149,2.139528 -1.52642,0.595733 -1.52642,0.595733 -3.02249,0.86357 v -0.0029 c -0.005,-9.55e-4 -3.67212,-1.185262 -6.36882,-1.724607 -2.69866,-0.539727 -8.74363,-0.809601 -8.74363,-0.809601 l 0.0354,-0.05228 c -0.0126,-7.07e-4 -0.0228,-7.07e-4 -0.0354,-9.56e-4 l -0.43179,-3.454279 h 0.003 c -9.5e-4,-0.0086 -0.005,-0.01701 -0.003,-0.02619 0.27986,-1.148429 0.40288,-3.767313 -0.58696,-7.955128 -0.98984,-4.187787 -9.77418,-5.835832 -9.77418,-5.835832 h -9.6e-4 l 0.14337,-1.087894 0.20745,-1.421848 c 0.12707,-0.908976 0.1916,-1.657841 0.50432,-2.359638 l -0.022,-0.01175 c 0,0 3.80848,-9.853447 6.88495,-17.139809 0.23574,-0.558362 0.49733,-1.055476 0.77501,-1.508715 0.34718,-0.843246 0.66212,-1.694224 1.06681,-2.525771 0.70261,-1.365635 1.40103,-2.731482 2.04592,-4.125564 l 0.40142,-0.882123 c 0.19463,-0.425896 0.3886,-0.852245 0.58274,-1.278485 0.0476,-0.09175 0.86106,-1.649621 2.47348,-4.000754 0.0529,-0.05298 0.13868,-0.205917 0.19059,-0.275768 0.0408,-0.05881 0.0797,-0.115743 0.12145,-0.175413 0.0815,-0.116417 0.15011,-0.230641 0.21336,-0.343234 0.0617,-0.105832 0.0849,-0.115098 0.16276,-0.251313 1.36086,-2.668796 2.77184,-5.231368 4.53711,-7.659112 l 0.86863,-1.153674 c 2.23272,-2.993223 4.40271,-6.0643 7.33865,-8.413049 l 0.86525,-0.654423 c 2.87963,-2.368485 5.61003,-3.565326 9.19229,-4.478077 l 0.005,-8.52e-4 c 0.51547,-0.196607 1.08619,-0.498031 1.12753,-0.880436 0.0602,-0.556837 -2.03568,-0.680823 -2.9331,-0.70924 z" />
</svg>
