<?xml version="1.0" encoding="UTF-8" standalone="no"?>
<svg
   version="1.1"
   width="510"
   height="679"
   id="svg2"
   sodipodi:docname="cockroach.svg"
   inkscape:version="1.4 (86a8ad7, 2024-10-11)"
   xmlns:inkscape="http://www.inkscape.org/namespaces/inkscape"
   xmlns:sodipodi="http://sodipodi.sourceforge.net/DTD/sodipodi-0.dtd"
   xmlns="http://www.w3.org/2000/svg"
   xmlns:svg="http://www.w3.org/2000/svg">
  <defs
     id="defs2" />
  <sodipodi:namedview
     id="namedview2"
     pagecolor="#ffffff"
     bordercolor="#000000"
     borderopacity="0.25"
     inkscape:showpageshadow="2"
     inkscape:pageopacity="0.0"
     inkscape:pagecheckerboard="0"
     inkscape:deskcolor="#d1d1d1"
     inkscape:zoom="1"
     inkscape:cx="176.5"
     inkscape:cy="385.5"
     inkscape:window-width="1920"
     inkscape:window-height="1007"
     inkscape:window-x="1911"
     inkscape:window-y="-9"
     inkscape:window-maximized="1"
     inkscape:current-layer="svg2" />
  <path
     id="path1"
     style="fill:#fb7e36;fill-opacity:1"
     d="M -4.0664013,-0.41992188 C -7.6634653,-0.57040607 -9.9589869,0.39332905 -11.92187,5.21875 c -0.485624,1.4424199 -0.988255,2.8791393 -1.5,4.3125 -2.264612,5.037476 -4.016605,10.060018 -5.605469,15.351562 -2.141131,7.236838 -4.286591,14.464857 -6.703125,21.615235 -2.633392,7.733037 -5.225679,15.473134 -7.621094,23.283203 -1.286692,4.198024 -2.543471,8.392222 -4.132812,12.488281 -1.979416,4.72431 -3.608834,9.386632 -5,14.324219 -1.03136,3.79346 -2.119173,7.54391 -3.371094,11.26953 -0.792563,2.3454 -1.573622,4.69229 -2.320312,7.05274 l -0.746094,2.40429 c -0.500738,1.61175 -1.000736,3.22373 -1.5,4.83594 -0.962581,3.13841 -1.929525,6.2715 -3,9.375 -2.635448,6.03986 -4.596703,12.0567 -6.4375,18.375 -2.244993,7.74901 -4.126102,16.63434 -9.5,22.875 l -2.0625,1.75 c -2.312324,2.5625 -2.312324,2.5625 -5,5 -9.267012,4.90607 -16.166972,12.0179 -21.746094,20.89453 l -1.253906,2.10547 c -7.77858,12.1441 -10.08225,28.7797 -9,43 l 1,3 c -7.57438,-2.63457 -14.06046,-7.42027 -19.15234,-13.62109 l -1.84766,-2.37891 c -3.46314,-3.18974 -5.84096,-6.25888 -8.1875,-10.3125 -1.48046,-2.67578 -1.48046,-2.67578 -2.8125,-4.6875 h -0.0391 c -1.88529,-3.44631 -3.61095,-6.90518 -4.66797,-9.32422 -0.24945,-0.64982 -0.52542,-1.28893 -0.7832,-1.93555 -0.0396,-0.11259 -0.0797,-0.22869 -0.11133,-0.32812 -0.64362,-2.02281 -3.76756,-8.97249 -4.62305,-10.86524 l -0.63086,-3.26757 c -1.81781,-9.7776 -2.25123,-21.1131 -9.24609,-28.70508 -5.42421,-4.49785 -12.94256,-6.57422 -19.89844,-6.57422 -2.5,1.5 -2.5,1.5 -4,4 -0.55501,4.04366 -0.0316,7.25307 1.25,11.0625 0.99891,2.7564 1.91202,5.49239 2.73437,8.30859 1.42497,5.09152 2.81841,10.18276 4.51563,15.19141 0.86423,2.50858 1.67298,5.01582 2.43359,7.55859 5.38837,18.13598 14.66302,32.91765 26.06641,47.87891 3.16357,4.06389 6.01581,8.13528 8.62695,12.55078 l -0.0234,-0.002 c 0,0 5.00883,8.14664 8.45507,13.4668 0.11029,0.24139 0.15949,0.46316 0.28125,0.71093 6.34607,11.51292 7.38962,22.27904 6.66016,35.27344 -1.11189,1.27115 -1.11189,1.27115 -3.75,1.8125 -3.29248,0.52973 -3.29248,0.52973 -5.625,-1.5 -2.29561,-2.02233 -3.98202,-3.08477 -6.6875,-4.375 -1.32823,-0.61283 -2.6412,-1.25972 -3.9375,-1.9375 -1.77734,-1.45313 -1.77734,-1.45313 -4,-3 -10.35613,-4.14012 -21.19909,-7.34272 -32.25,-3.9375 -6.79567,3.02974 -12.01669,8.04197 -14.94531,14.87109 l -0.80469,2.06641 c -3.4431,7.58414 -3.44262,7.58414 -3.94531,23.97852 l -0.0547,2.02148 c -0.29779,10.61716 -0.45106,21.90753 1.91797,32.30078 0.57483,2.43832 1.112,4.86483 1.57031,7.32813 l 0.47656,2.74609 c 0.32598,1.8747 0.65019,3.7497 0.97266,5.625 1.03599,6.17325 2.24293,12.05838 4.32812,17.96875 2.02224,5.60172 4.20515,11.36485 5.0586,17.27734 -2.99638,11.16888 -2.99638,11.16888 -11.26953,19.94141 -1.52508,1.68461 -2.85741,3.27106 -4.08008,4.94727 -0.10286,0.0648 -0.20459,0.16796 -0.30469,0.31445 -0.83103,1.21614 -3.12644,3.84245 -4.64648,5.55078 h -0.0234 l -1.00977,1.15234 c -0.14188,0.15697 -0.39648,0.44141 -0.39648,0.44141 l 0.008,0.006 -0.35156,0.40039 -2.25,3 c -1.62051,1.97793 -3.20601,3.96236 -4.73047,6.01563 -2.33329,3.6471 -2.57815,6.50982 -1.70703,10.67187 1.9762,3.1791 3.95404,4.05845 7.4375,5.3125 2.59378,-0.15257 3.75467,-0.82826 5.875,-2.3125 l 2.125,-1.6875 c 3.13876,-2.00346 5.86141,-3.86138 8.5,-6.5 l 2.5,-2.5 c 4.54214,-2.82622 8.84765,-6.24437 12.05859,-10.50977 l 0.004,0.01 c 0,0 3.0592,-3.52923 5.88477,-7.5 h 0.0527 c 0.28152,-0.42227 0.31322,-0.50029 0.52344,-0.81836 0.40084,-0.57961 0.79225,-1.16412 1.16406,-1.74414 2.55864,-3.99147 4.1613,-6.80607 5.30859,-9.4375 h 0.004 c 0.006,-0.0149 0.009,-0.03 0.0156,-0.0449 0.24632,-0.5671 0.47918,-1.12933 0.6875,-1.68945 0.0792,-0.21294 0.11759,-0.40853 0.12696,-0.58985 8.47683,-21.87646 5.40099,-43.96756 0.6289,-66.54687 l -0.45898,-2.12891 1.67187,0.80078 2.1875,1.06641 c 2.6092,1.26234 4.44269,1.89725 6.57813,3.91406 l 3.03125,2 c 8.10968,3.81735 14.65153,11.98386 19.65625,19.34375 l 1.875,2.875 c 8.04115,7.82263 12.57961,19.55282 16.30859,29.97266 l 0.69141,2.02734 c 2.15548,6.18829 3.4784,11.42222 3,18 -1.0708,1.28868 -1.07008,1.28868 -3.58789,1.18945 l -3.42383,0.0918 -3.73633,0.11328 c -2.60679,0.0698 -5.21356,0.1401 -7.82031,0.21094 l -3.75586,0.11328 c -7.60884,0.20303 -14.02167,1.47489 -21.05078,4.28125 -8.92709,3.64687 -14.9097,8.26243 -18.75,17.375 -1.8617,6.89431 0.0896,13.669 3,20 1.78962,3.69232 3.02411,7.37657 4.1875,11.3125 0.94251,3.31294 1.92057,6.27792 3.4375,9.375 1.52022,2.84975 1.52021,2.84975 2.52734,5.61328 2.53707,7.34989 5.46865,14.38461 8.97266,21.32422 1.02116,2.01065 2.0087,4.01944 2.92969,6.07813 3.10369,7.13076 6.04786,14.83096 10.68359,21.10546 l 1.38672,1.81641 c 5.03833,12.31591 19.24913,19.3118 30.98437,24.25781 l 2.01563,0.74219 c 0,0 0.597688,0.46913 0.767578,0.58984 4.176237,3.34162 6.326172,8.19141 6.326172,8.19141 0.08269,0.19596 0.69705,1.65048 0.722656,1.73828 0.0017,0.006 0.003,0.004 0.0039,-0.004 0.15602,0.39359 0.147026,0.54985 0.421875,1.13671 6.632138,13.34361 7.420476,24.75656 6.195313,39.41016 -0.190258,1.97539 -0.34699,3.95503 -0.4375,5.9375 1,2 1,2 2.523437,3.10547 l 1.851563,1.08203 1.835937,1.10547 c 1.789063,0.70703 1.789063,0.70703 4.789063,-0.29297 1.0373,-2.06671 1.0373,-2.06671 2.953125,-7.77734 l 1.046875,-3.22266 c 4.678,-13.19394 6.737581,-26.26359 3,-40 -5.962665,-16.92227 -17.10221,-29.44282 -33,-37.75 l -2,-0.92187 c -5.68697,-3.77653 -7.7673,-8.65197 -9.78125,-14.92969 -0.561,-1.84401 -1.13128,-3.68522 -1.71094,-5.52344 l -0.85937,-2.71094 c -1.68998,-5.37537 -3.56659,-10.63106 -5.78125,-15.8164 -2.40211,-5.53242 -3.5797,-10.31048 -3.86719,-16.34766 l 1,-1 2.17969,0.4082 c 2.81958,0.59156 2.82104,0.59199 5.74023,0.85743 l 3.19336,0.19921 c 2.39954,0.1605 4.79931,0.31795 7.19922,0.47266 7.499643,0.46394 17.852155,-0.32163 23.8125,4.9375 l 1.875,2.125 c 5.029391,3.31726 9.065377,6.61397 12.875,11.3125 3.633328,4.59509 7.257537,9.16747 11.8125,12.875 l 2.3125,1.8125 c 2.362604,3.09583 4.571484,5.55954 7.6875,7.875 2.237471,1.61966 4.463997,3.24116 6.65625,4.92187 l 2.34375,1.82813 c 1.441268,1.12017 2.879289,2.24454 4.3125,3.375 6.483876,5.48636 13.778824,9.4497 21.375,13.1875 1.8906918,0.90544 3.7677527,1.8403 5.625,2.8125 3.2284135,2.59104 6.3071298,4.0645 10.1425781,5.55078 l 2.3574219,0.88672 c 2.420059,0.92121 4.842248,1.83627 7.269531,2.73828 l 2.230469,0.82422 c 6.729737,2.49112 13.697996,5.36149 21,5 2.081165,-0.68111 3.480685,-1.22765 4.630859,-2.11133 0.541185,-0.33416 2.41392,-1.68445 5.347657,-5.88867 h 0.02148 c 0.02815,-0.0512 0.05388,-0.10309 0.08203,-0.1543 0.44549,-0.65308 0.737621,-1.21083 0.908203,-1.68945 3.993662,-7.26756 7.93626,-14.50626 10.884766,-22.28125 0.702067,-1.96059 1.410389,-3.91895 2.125,-5.875 9.655239,-20.73995 9.65475,-20.74093 9.03125,-98.40625 l -0.03125,-3.59375 2,-1 c 2.995564,0.26048 5.437218,0.74161 8.173828,2 2.336939,3.6996 2.336405,3.69797 2.253906,8.23242 l -0.07227,2.5293 c -0.02513,2.70549 -0.05507,5.41015 -0.109375,8.11523 -0.05873,2.78259 -0.101408,5.56471 -0.138672,8.34766 -0.02063,1.78321 -0.04209,3.56642 -0.06445,5.34961 -0.327071,15.22279 2.719984,31.75632 10.496093,45.05859 l 1.460938,2.36719 c 2.015449,4.31882 4.29822,7.97743 7.20703,11.72656 l 1.79297,2.27344 c 4.77439,6.23996 9.47107,12.10724 15.86719,16.75391 3.9922,2.33243 7.30545,2.63767 11.75781,1.68359 4.70079,-2.84521 6.91043,-5.94054 8.5,-11.0625 -0.125,-3.375 -0.125,-3.375 -2.125,-5.4375 -2.8718,-1.75206 -2.87184,-1.75206 -4.71875,-3.44141 -1.41942,-1.29179 -2.71249,-2.40186 -4.0918,-3.38476 0.0931,-0.047 0.003,-0.1427 -0.31445,-0.29883 -3.54278,-1.74235 -11.89774,-11.14696 -13.07617,-12.48437 -0.0662,-0.0939 -0.0567,-0.10605 -0.13086,-0.21094 -1.54399,-1.95982 -2.99904,-3.89848 -4.35547,-5.99219 -3.50409,-6.42595 -3.69182,-14.23138 -1.7168,-21.23828 2.26495,-7.12172 3.73327,-14.27452 5.08399,-21.61133 0.51104,-2.78934 1.02245,-5.57801 1.54492,-8.36523 l 0.37305,-1.99219 c 0.61282,-3.34012 1.20735,-6.41462 2.43164,-9.58203 0.97046,-2.33643 0.97115,-2.33667 1.50195,-4.48633 l 0.39844,-2.15039 0.46484,-2.43359 c 1.07279,-5.75296 2.11629,-11.5186 3.57813,-17.1875 2.2584,-8.5216 3.97927,-17.02523 5.52734,-25.70313 1.29139,-7.27225 2.62456,-14.37887 4.8125,-21.4375 2.24658,-7.22885 3.08565,-14.09663 -0.36328,-21.05859 l -1.26172,-2.31641 c -4.76454,-8.88282 -13.43614,-13.27401 -22.6875,-16.5625 -7.35128,-1.21576 -12.743055,-0.079 -19.351563,3.14844 l -2.273437,1.22656 c -2.571647,1.36043 -4.174513,2.3716 -5.988281,4.66406 l -1.386719,1.96094 c -2.404613,1.87677 -4.589839,3.20531 -6,5.9375 -1.482764,3.0582 -3.409917,4.88448 -6,7.0625 -3.188947,0.99655 -5.388829,1.07107 -8.6875,0.6875 -2.827187,-2.44393 -2.827187,-2.44393 -3.875,-6.0625 -0.730911,-2.86205 -1.456886,-5.68487 -2.367188,-8.49609 -3.706146,-10.81679 -7.797336,-21.70435 -9.070312,-33.12891 -0.417317,-8.69946 -0.708632,-15.97399 5,-23 3.785424,-3.21761 6.743933,-4.91626 11.75,-5.25 3.465302,1.33281 3.922946,1.77251 5.6875,4.8125 l 1.5625,3.4375 h 0.0059 c 0.04418,0.087 2.36502,4.64594 5.181641,7.28125 0.07696,0.072 0.151523,0.13434 0.224609,0.1875 5.659083,7.57958 13.854831,12.25762 22.587891,16.53125 8.86444,3.23622 19.22021,2.65158 27.87109,-1.05078 l 2.12891,-0.94922 c 3.06156,-1.22873 6.11784,-2.46092 9.15625,-3.74609 5.50675,-2.42812 10.44661,-4.33149 12.84375,-10.25391 0.8664,-5.44585 -0.88036,-10.53007 -4,-15 -4.55437,-1.99254 -4.55434,-1.99254 -12.75,0.9375 -5.1281,1.85717 -9.40991,2.55419 -14.85156,2.32031 -7.94359,-0.85387 -14.12286,-4.53302 -19.21094,-10.50781 -0.801958,-1.00566 -1.647441,-1.97609 -2.5,-2.93945 -0.104971,-0.16278 -0.25218,-0.34859 -0.453125,-0.56055 -0.08447,-0.0891 -0.12742,-0.13289 -0.207031,-0.2168 -0.0097,-0.0106 -0.01764,-0.0226 -0.02734,-0.0332 h -0.0039 c -1.404782,-1.48033 -2.068808,-2.17086 -2.335938,-2.44531 -2.430028,-3.02088 -4.608479,-6.02106 -6.597656,-9.36719 -1.39606,-2.38377 -2.773379,-4.75653 -4.3125,-7.05078 -5.296993,-9.14773 -5.296993,-9.14773 -9.394531,-18.91797 l -1.150391,-2.73047 c -0.04264,-0.15323 -0.10295,-0.31586 -0.1875,-0.48633 -1.508277,-3.04088 -3.883782,-6.63049 -4.277344,-7.2207 -1.139467,-2.32401 -2.472044,-4.52899 -4.384765,-6.32812 -4.11883,-2.56614 -7.640081,-3.34743 -12.355469,-2.45313 -3.400771,2.00573 -6.442508,4.05253 -8.640625,7.07227 -0.0715,0.0597 -0.14472,0.12518 -0.220703,0.20117 -2.19158,2.19159 -4.140625,4.71875 -4.140625,4.71875 l 0.002,0.008 -1.75,2.5625 c -3.079996,4.85471 -6.865861,9.02041 -10.875,13.125 l -0.353516,0.40625 c -0.0081,0.0449 -0.601237,0.61246 -0.617187,0.65234 -1.868557,2.02557 -8.574431,7.70734 -9.369141,6.38282 -0.79471,-1.32452 -0.158203,-17.90821 -0.158203,-17.90821 0,0 0.01709,0.0152 0.01758,0.0156 -0.843588,-13.0239 0.164015,-40.81699 1.94336,-54.16211 2.11923,-15.8942 3.814453,-17.37695 3.814453,-17.37695 0,0 0.05979,0.0367 0.06055,0.0371 1.078761,-4.91929 2.834551,-9.5792 5.634765,-13.5625 0.934497,-1.2283 1.864552,-2.46054 2.777344,-3.70507 0.846408,-1.15507 1.697333,-2.30666 2.552734,-3.45508 l 1.322266,-1.76172 c 2.343705,-3.13646 4.629447,-5.94839 7.6875,-8.4375 3.297089,-2.58421 4.238671,-4.78564 5.3125,-8.8125 -0.437808,-3.02635 -1.340294,-5.43227 -3,-8 -3.754305,-2.50287 -7.583321,-2.32121 -12,-2 -5.10615,1.70205 -9.081545,5.70336 -12.125,10 l -1.875,3 c -2.836819,3.19142 -4.525328,6.04894 -6.0625,10 -0.611471,1.67958 -1.258109,3.34673 -1.9375,5 -1.7193287,2.74914 -3.0209157,5.06442 -4.0273438,8.16406 -1.1748748,4.46755 -2.250747,8.926 -3.8847656,13.25 -2.42652411,6.29602 -4.0711503,12.5065 -5.4257812,19.11524 -1.7260133,8.71381 -3.2126869,17.25145 -6.6621094,25.4707 l -21.578125,-32.36719 -1.546875,-2.32031 c -0.949092,-1.44362 -1.906647,-2.88173 -2.875,-4.3125 -2.405212,-2.93943 -2.405212,-2.93943 -4,-6 -0.526747,-3.8727 -0.24266,-7.27202 1,-11 2.272877,-5.10135 4.008473,-10.12088 5.5,-15.5 0.789773,-2.84828 1.585631,-5.68892 2.5,-8.5 1.531666,-3.56738 2.985609,-6.95011 4.0625,-10.68359 1.280352,-5.12675 2.468578,-10.2214 4.375,-15.15625 1.764203,-4.56399 1.764203,-4.56399 4.5625,-14.28516 1.285725,-4.506733 2.493167,-8.842327 4.5625,-13.058594 1.4375,-2.816406 1.4375,-2.816406 2.5,-6.21875 0.940873,-3.547874 1.8809309,-7.082233 2.9375,-10.597656 1.5370546,-3.562444 2.9861351,-6.951932 4.0625,-10.683594 1.2817961,-5.132525 2.4276222,-10.32495 4.375,-15.253906 1.5243722,-3.798571 1.5243722,-3.798571 3.9375,-11.6875 C 5.0065789,30.42694 6.0433991,26.9504 7.3242237,23.546875 L 8.0820362,21.628906 9.51563,17.96875 C 11.677628,12.718183 11.731558,9.8413362 9.57813,4.53125 6.3084197,1.9427294 4.0454427,0.83360535 5e-6,0 -1.5243284,-0.19611307 -2.86738,-0.36976047 -4.0664013,-0.41992188 Z"
     transform="translate(285.42187,16.46875)"
     sodipodi:nodetypes="scccccccccccccccccccccccccccccccccccccccccccccccccccccccccccccsccccccccccccsccccccscccscccccccccccccccccccccccccccccccscccccccccccccccccccccccccccccccccccccccccccccccccccccccccccccccccsccccccccccccccccccccccccccccccccscccccccccccsccccccccscccccccccccsccscccccccccccccccccccccccscccccccccccccccs" />
  <path
     id="path2"
     d="m -29.474609,-9.1386719 c -3.297889,0.073279 -6.349014,0.8423566 -8.900391,2.6386719 -1,2.1875 -1,2.1875 -1,5 1.790627,3.9256061 3.198354,6.3011291 6.4375,9.125 L -30.375,9.5 c 3.342018,3.467568 6.732983,6.396531 10.625,9.203125 1.342213,0.95423 2.683347,1.90998 4.023438,2.867187 l 1.953124,1.40625 c 1.149647,0.817988 2.283662,1.658531 3.398438,2.523438 1.8948032,1.899596 3.4038103,3.262946 5.6875,4.75 4.11125882,2.675907 7.7722558,5.862353 11.3125,9.25 1.3238152,1.674237 2.7617279,2.706344 4.105961,4.364232 2.754157,1.817743 4.649613,3.791115 6.894039,6.573268 1.412093,1.987574 3.097927,2.774297 4.112204,4.237759 4.564157,3.511831 8.04274,7.852705 11.528421,12.43021 0.84498,1.12547 1.692141,2.248085 2.542969,3.36914 L 37.125,72.207031 c 1.506021,1.989527 3.024943,3.964061 4.5625,5.929688 2.107803,2.675637 4.229951,5.324782 6.148438,8.140625 0.919687,1.414106 1.853356,2.819097 2.789062,4.222656 5.430274,5.339517 9.405597,11.89914 13.25,18.4375 1.308431,2.28975 2.443115,4.25174 4.296875,6.12891 1.513976,1.38073 1.513976,1.38073 2.515625,3.15234 0.943597,1.79283 1.871855,3.55741 2.9375,5.28125 2.063592,1.93748 3.266389,3.45891 4.71875,5.96094 3.583712,6.86878 6.828149,14.43448 12.28125,20.03906 3.173771,1.43718 5.488474,2.29033 8.972656,1.62109 2.931854,-1.05354 4.714254,-2.04434 6.214844,-4.80859 -0.21817,-3.27262 -1.31158,-5.57427 -2.875,-8.42969 -0.97784,-1.77524 -1.908,-3.57691 -2.8125,-5.39062 -1.929558,-3.92665 -3.819777,-7.84131 -6.046875,-11.60938 -0.875512,-1.43565 -1.734056,-2.88213 -2.558594,-4.34765 -0.785331,-1.43174 -1.57496,-2.86113 -2.367187,-4.28907 L 87.625,109.5 c -1.015905,-1.82987 -2.035174,-3.65784 -3.060547,-5.48242 L 83.5,102.125 c -1.622882,-2.926158 -3.101238,-5.828198 -5.449219,-8.246094 -1.570825,-1.404469 -1.570825,-1.404469 -2.8125,-3.640625 L 73.9375,87.8125 72.613281,85.363281 71.625,83.5 h -0.01367 c -0.0058,-0.01031 -0.01104,-0.02159 -0.01758,-0.03125 C 71.083331,82.715279 69.305342,80.705109 69.003906,80.365234 68.892,80.148592 68.795609,79.955955 68.636719,79.660156 L 67.3125,77.5625 C 66.003351,75.459213 64.771438,73.649317 63.035156,71.878906 L 61.625,70.5 C 59.744737,67.303552 57.78785,64.352664 55.5,61.4375 52.592364,57.759833 49.78391,54.022198 47,50.25 c -2.202824,-3.006019 -4.358995,-5.733852 -6.984375,-8.382812 -2.33443,-2.206707 -2.33443,-2.206707 -3.867187,-4.28125 -1.580493,-2.354612 -3.060613,-4.613644 -5.050782,-6.644532 L 29.625,29.5 C 27.710479,27.091409 25.864396,24.739396 23.6875,22.5625 L 21.625,20.5 C 17.701834,15.772082 13.862867,11.30121 9.0625,7.4375 L 6.625,5.5 C 4.4805107,3.2171566 2.7309551,1.5605457 0,0 -7.4702446,-3.3201087 -19.580943,-9.3585082 -29.474609,-9.1386719 Z"
     transform="translate(91.375,43.5)"
     style="fill:#fb7e36;fill-opacity:1"
     sodipodi:nodetypes="scccccccccccccccccccccccccccccccccccccccccscccccccccccsccccs" />
</svg>
