<?xml version="1.0" encoding="UTF-8" standalone="no"?>
<svg
   version="1.1"
   width="716"
   height="625"
   id="svg1"
   sodipodi:docname="fly.svg"
   inkscape:version="1.4 (86a8ad7, 2024-10-11)"
   xmlns:inkscape="http://www.inkscape.org/namespaces/inkscape"
   xmlns:sodipodi="http://sodipodi.sourceforge.net/DTD/sodipodi-0.dtd"
   xmlns="http://www.w3.org/2000/svg"
   xmlns:svg="http://www.w3.org/2000/svg">
  <defs
     id="defs1" />
  <sodipodi:namedview
     id="namedview1"
     pagecolor="#ffffff"
     bordercolor="#000000"
     borderopacity="0.25"
     inkscape:showpageshadow="2"
     inkscape:pageopacity="0.0"
     inkscape:pagecheckerboard="0"
     inkscape:deskcolor="#d1d1d1"
     inkscape:zoom="1.4142136"
     inkscape:cx="289.20667"
     inkscape:cy="336.22927"
     inkscape:window-width="1920"
     inkscape:window-height="1007"
     inkscape:window-x="1911"
     inkscape:window-y="-9"
     inkscape:window-maximized="1"
     inkscape:current-layer="svg1" />
  <path
     id="path1"
     style="fill:#009893;fill-opacity:1"
     d="M 2.2460938 -0.04296875 L 0 0 C -10.046165 0.08705516 -18.572598 5.8722108 -25.734375 12.539062 L -27.4375 14.1875 C -30.0625 16.625 -30.0625 16.625 -32.4375 19.1875 C -33.673835 21.359144 -34.911212 23.383489 -36.408203 25.388672 C -41.460421 28.35435 -41.459444 28.355327 -47.5 28.703125 C -57.46393 29.2021 -66.476761 30.106763 -75.734375 33.9375 L -78.4375 35.1875 C -84.531367 37.805 -89.785899 41.270644 -94.660156 45.595703 C -94.739586 45.644143 -94.814506 45.684813 -94.896484 45.738281 C -101.24146 49.876311 -106.32559 54.465784 -110.60156 60.121094 C -114.87753 65.776404 -119.0332 75.621094 -119.0332 75.621094 L -119.01562 75.646484 C -124.43856 88.012271 -124.80809 99.058115 -122.91016 112.92578 L -122.4375 116.1875 L -132.4375 115.1875 C -132.5289 108.11949 -132.54607 101.07739 -132.12891 94.019531 L -132 92 C -131.83324 89.39327 -131.64177 86.791928 -131.4375 84.1875 C -130.63948 76.96194 -130.28832 70.620892 -131.72266 63.449219 L -132.4375 60.1875 C -135.22585 45.778578 -139.40688 33.864719 -152.04297 25.066406 C -154.4375 24.1875 -154.4375 24.1875 -156.9375 24.957031 C -159.35887 26.251131 -159.35887 26.251131 -161.83203 26.820312 C -174.74907 29.44963 -183.07963 27.444307 -194.125 20.5 C -196.50773 18.922587 -198.83707 17.382323 -201.4375 16.1875 C -205.37539 15.748382 -207.01984 15.990953 -210.625 17.6875 C -214.2031 20.868033 -215.41785 23.569592 -216.4375 28.1875 C -217.57632 35.442234 -215.00414 40.229307 -211.14062 46.1875 C -204.24806 55.282849 -193.09132 59.940531 -182.1875 62.0625 C -178.47412 62.415916 -178.47412 62.415916 -175.4375 64.1875 C -172.66198 70.058143 -171.96162 76.704002 -171.33594 83.095703 L -171.05078 86.320312 C -170.71947 89.7902 -170.38986 93.259116 -170.07422 96.730469 C -169.85593 99.136082 -169.63387 101.54233 -169.4082 103.94727 C -168.73843 111.02622 -168.08026 118.10604 -167.4375 125.1875 L -169.36914 124.79883 C -171.582 124.39486 -171.58151 124.39437 -172.53906 122.41406 L -173.4375 120.1875 C -176.40439 114.43538 -179.13364 108.68711 -181.48828 102.65625 C -185.34494 92.625769 -189.67118 82.830877 -194.06641 73.029297 C -194.14151 72.751949 -194.2596 72.475171 -194.42773 72.201172 C -194.43073 72.196372 -194.4345 72.19227 -194.4375 72.1875 C -197.07016 67.902511 -200.66992 64.398437 -200.66992 64.398438 C -200.66992 64.398438 -200.67383 64.398435 -200.67383 64.398438 L -202.25 62.6875 C -204.51532 60.213262 -206.81493 57.810074 -209.1875 55.4375 L -211.4375 53.1875 C -214.40624 49.165337 -216.66128 46.906939 -221.4375 45.1875 C -225.07709 45.26029 -226.78381 45.629937 -229.5625 48 L -231.4375 50.1875 C -233.51343 52.198555 -235.43576 54.18534 -237.25 56.4375 C -242.89145 63.529607 -249.05045 70.222796 -255.30469 76.777344 C -256.39371 77.911112 -257.47963 79.047859 -258.5625 80.1875 C -261.64116 83.575719 -264.71029 86.940065 -268.14844 89.970703 C -272.75521 93.076305 -276.25439 93.193496 -281.67969 92.669922 C -286.57891 91.811885 -291.00182 90.913584 -295.9375 91.75 C -301.78379 93.229062 -305.85325 96.547078 -308.9375 101.6875 C -309.59114 104.9557 -309.43546 106.99401 -308.4375 110.1875 C -305.68929 114.16766 -302.53681 115.77108 -298.125 117.4375 C -285.07694 121.35992 -270.71081 121.58839 -258.21094 115.65625 L -255.4375 114.1875 C -252.43984 112.82493 -249.75198 111.42416 -247.11719 109.44141 C -242.86946 106.21339 -238.96226 102.77251 -233.37109 103.3125 C -228.68618 106.58948 -228.68618 106.58948 -225.37109 111.40625 C -224.17674 113.12418 -222.94608 114.81824 -221.66016 116.46875 C -220.50696 117.9122 -219.36765 119.36685 -218.24219 120.83203 L -216.4375 123.1875 C -213.19387 127.29726 -209.50593 131.35406 -207.64062 136.30078 C -207.40678 137.60095 -207.38093 138.74348 -207.4707 139.84375 C -209.64646 143.02435 -212.85809 145.01185 -214.86133 146.02734 C -215.23922 146.16826 -216.1657 146.6312 -216.61719 146.82812 C -216.63019 146.83312 -216.6875 146.85547 -216.6875 146.85547 L -216.69336 146.86523 C -219.07188 147.90703 -222.01375 149.40513 -228.42773 152.79102 L -230.8125 154.0625 C -233.28127 155.3721 -235.74969 156.68362 -238.21484 158 L -240.4375 159.1875 C -244.12606 161.1475 -247.83805 163.06746 -251.4375 165.1875 C -253.69866 166.91935 -255.81167 168.39234 -258.32031 169.76562 C -263.5605 172.4678 -268.63965 175.18785 -273.4375 178.625 C -277.35955 181.48564 -281.39572 184.01948 -285.5625 186.5 C -287.55379 187.6704 -289.52312 188.8826 -291.43164 190.18359 L -291.43359 190.18555 C -291.43459 190.18636 -291.4365 190.1865 -291.4375 190.1875 C -291.4523 190.1993 -295.39912 193.34806 -303.08984 198.45898 C -303.66219 198.83934 -304.07622 199.17178 -304.35547 199.46484 C -305.72484 200.35966 -307.10045 201.24549 -308.4375 202.1875 C -313.21662 207.23972 -318.5414 210.57516 -324.4375 214.1875 C -327.94149 216.32883 -330.27221 217.99329 -332.9375 221.125 C -335.35233 224.26896 -335.35233 224.26896 -338.4375 226.75 C -343.30238 230.70272 -346.91778 234.60068 -350.11719 239.95312 L -351.4375 242.1875 C -358.91476 254.19761 -364.46058 265.64005 -364.73828 280.05859 L -364.75 282.4375 C -364.8098 290.5588 -363.71565 297.49983 -359.66211 304.62305 L -358.625 306.375 C -356.68878 309.82849 -354.69539 312.90904 -351.98828 315.83203 L -349.4375 318.1875 C -343.90039 323.36967 -338.71584 327.38608 -331.5625 330.0625 C -329.51134 330.74286 -327.4686 331.44941 -325.4375 332.1875 C -321.69741 334.59185 -318.62298 335.78448 -314.3125 336.66992 L -311.9375 337.125 C -310.21364 337.46533 -308.48969 337.80516 -306.76562 338.14453 C -304.16953 338.64534 -301.58031 339.15657 -298.99805 339.72461 C -283.41012 343.23285 -267.86188 344.26973 -251.94922 345.06641 L -249.95508 345.16211 L -249.94922 345.16016 C -249.90352 345.16016 -249.79283 345.16818 -249.66992 345.17578 C -249.64412 345.17778 -249.64033 345.17769 -249.61133 345.17969 L -249.4375 345.1875 L -249.43555 345.19141 C -248.12297 345.28261 -244.54071 345.54927 -240.67383 345.32617 C -237.12766 345.12159 -242.68765 347.15184 -245.85742 348.26562 C -247.65917 348.53456 -250.79492 349.40234 -250.79492 349.40234 L -250.78516 349.44141 C -251.67801 349.73498 -252.48979 350.40674 -254.4375 352.1875 C -261.43475 361.51717 -261.89936 369.80275 -260.4375 381.1875 C -259.69942 385.1148 -259.76192 384.6773 -259.30078 388.49609 L -259.3125 391.6875 C -259.2985 394.53048 -259.8392 397.21897 -259.9375 400.0625 C -260.4375 403.0625 -260.4375 402.1875 -260.68359 404.36719 C -260.97038 408.4056 -261.27579 412.3573 -262.05078 416.33594 C -262.82226 420.09394 -263.69374 423.60595 -263.07422 427.42969 C -261.89277 430.61102 -261.11673 431.71575 -258.65625 433.91211 L -257.22656 435.07227 L -255.4375 436.1875 C -253.4375 437.1875 -253.4375 437.1875 -251.3125 437 C -245.14188 435.25613 -240.79552 433.05128 -236.6875 428 C -227.9131 415.67595 -225.02853 400.00912 -226.67188 385.05469 C -227.03853 382.30471 -227.41002 379.56868 -227.60938 376.80078 L -227.6875 374.375 C -227.7827 371.68463 -227.84665 370.64792 -226.03516 368.60938 L -224.4375 367.1875 C -221.56528 362.53253 -219.05393 360.10347 -214.4375 357.1875 C -214.3378 359.28788 -214.23704 361.38822 -214.13086 363.48828 L -214 366.0625 L -213.88086 368.61328 L -213.75391 371.05469 C -213.68591 372.43465 -213.1188 373.72029 -212.96875 375.09375 C -212.3958 377.53383 -212.2708 377.25258 -212.04297 380.07422 C -211.3519 386.35841 -210.58247 392.58411 -209.41797 398.80078 C -206.39875 414.8266 -203.40891 430.59303 -211.05273 445.76758 C -213.07452 449.73192 -215.02942 453.66781 -216.1875 457.98047 C -216.74907 462.17119 -216.94263 465.71887 -214.4375 469.1875 C -210.77934 471.87839 -207.43715 474.35756 -202.77344 473.96094 C -199.81502 472.98139 -199.81502 472.98139 -196.4375 468.1875 C -194.74002 465.33593 -194.74002 465.33593 -192.4375 463.1875 C -188.85288 462.60381 -188.85288 462.60381 -185.4375 463.1875 L -183.4375 465.1875 C -175.49646 472.46679 -169.8807 481.62023 -167.9375 492.25 C -167.28644 495.81922 -166.63037 498.78705 -165.05469 502.05859 C -163.4375 504.1875 -163.4375 504.1875 -160.0625 505.1875 C -155.8584 505.1875 -154.71552 504.74596 -151.4375 502.1875 L -149.5625 500.42578 L -147.5 498.5 L -145.59766 496.61328 C -137.82769 494.50395 -137.82769 494.50395 -129.5293 496.51172 L -126.625 497.0625 C -123.79473 497.5827 -120.96573 498.10857 -118.14062 498.65625 L -115.4375 499.1875 L -112.77734 499.69336 L -110.31641 500.19141 L -108.13477 500.62305 C -106.21034 501.05907 -106.21059 501.05931 -105.1875 503.25 C -103.80914 508.64856 -101.15686 513.64448 -97 517.375 C -94.4375 518.1875 -94.4375 518.1875 -91.3125 518 C -87.895176 515.8456 -87.895176 515.8456 -86.121094 508.92969 C -85.26132 505.48077 -84.340122 502.2447 -82.832031 499.01953 C -81.076615 496.7134 -79.828153 496.24773 -77.0625 495.4375 C -66.394582 493.07554 -56.341563 488.81014 -46.365234 484.42188 L -46.363281 484.42773 C -46.363281 484.42773 -44.585937 483.80664 -43.085938 483.02539 C -41.640828 482.27273 -41.214492 481.91626 -38.171875 479.71484 L -36.875 478.875 C -34.433594 477.57422 -34.433594 477.57422 -32.4375 476.1875 L -32.433594 476.17773 C -31.793343 475.78989 -30.99432 475.2774 -30.382812 474.79297 C -29.179692 473.83984 -25.943359 471.25977 -25.162109 470.16602 C -25.133348 470.12575 -25.11176 470.08889 -25.09375 470.05273 C -19.849115 465.982 -15.462299 461.3064 -11.1875 455.9375 C -9.4523459 453.70262 -7.7788753 451.5313 -5.7851562 449.52344 C -4.4375 448.1875 -4.4375 448.1875 -3.125 446.0625 C -2.1894915 444.46867 -1.232464 442.8851 -0.1953125 441.35547 C 5.8160566 432.59837 11.319787 423.52017 15.375 413.6875 C 16.938532 409.73641 18.579711 405.94436 20.5625 402.1875 L 24.5625 402.1875 L 27 404.875 C 31.760631 411.04512 37.602276 416.19354 43.5625 421.1875 C 59.562995 433.75736 78.549646 442.73474 99.287109 440.75195 L 101.5 440.5 C 106.56813 439.92608 111.03911 438.80093 115.7793 436.9082 L 117.5625 436.1875 C 123.07249 434.2929 128.06626 432.01762 133.01172 428.9375 L 134.875 427.75 C 138.21138 425.63785 141.26119 423.48048 144.10547 420.71484 L 146.5625 418.1875 C 150.33801 415.18758 153.41088 412.42462 156.08789 408.38086 L 157.1875 406.625 C 160.52233 401.34544 163.04894 396.20639 164.78906 390.17188 L 165.5625 387.1875 C 171.88793 365.29602 167.36474 342.4874 160.53516 321.14062 L 159.5625 318.1875 C 155.16486 304.68655 150.39998 291.35817 144.5625 278.40625 L 143.5625 276.1875 C 141.3175 271.06609 139.02077 266.00029 136.49219 261.01172 L 135.5625 259.1875 L 132.5625 253.1875 L 131.33594 250.76953 L 130 248.125 C 127.97584 244.13344 125.92127 240.2711 125.15625 235.82812 C 124.87698 228.70664 127.1258 224.65414 131.5625 219.1875 C 134.43562 219.1357 134.43562 219.1357 137.5625 220.1875 C 139.66034 223.14941 139.66037 223.14941 140.70312 225.36328 C 141.5625 227.1875 141.5625 227.1875 143 229.625 L 144.5625 232.1875 C 149.85788 240.98774 155.23705 248.97095 163.5625 255.1875 C 168.99689 258.83554 174.02895 260.19627 180.5625 259.1875 C 191.78745 255.46341 200.08219 245.18622 206.27344 235.53516 C 211.083 226.77592 211.88888 217.53335 209.375 207.9375 C 207.32834 201.87366 204.77363 198.47398 199.125 195.1875 C 194.95519 194.01703 193.38292 194.23484 189.5625 196.1875 C 185.74124 199.31001 184.75802 202.08378 183.5625 206.8125 C 182.77722 210.23456 182.77722 210.23456 181.5625 213.1875 C 179.56706 214.63683 179.56706 214.63683 177.5625 215.1875 C 175.8831 212.44361 174.28347 209.67784 172.73828 206.85547 L 170.875 203.375 L 168.98828 199.85547 L 167.80273 197.63867 C 167.76486 197.55615 167.72541 197.47324 167.67969 197.39062 C 167.64539 197.32865 167.60865 197.26539 167.57031 197.20117 C 167.56764 197.19669 167.56519 197.19199 167.5625 197.1875 C 166.44675 195.3272 163.84171 192.71209 163.33008 192.20508 C 162.48911 191.19359 161.59841 190.22341 160.625 189.25 L 158.5625 187.1875 L 156.875 184.875 C 152.19445 179.43544 144.95052 172.85031 137.59375 171.94531 C 132.34613 171.76909 128.52229 172.65696 124.38672 175.88672 C 120.67501 179.34058 116.93757 182.73019 113.0625 186 C 111.943 186.93513 111.56212 187.3548 111.07227 187.8125 C 111.07114 187.81173 111.02734 187.78125 111.02734 187.78125 C 111.02734 187.78125 101.97281 195.04316 96.849609 189.36328 L 95.5625 187.1875 C 92.823142 183.57462 90.168606 180.20896 88.851562 175.81641 C 89.001192 167.54181 89.001192 167.54181 93.289062 160.10156 C 95.798362 155.75418 98.323714 151.4161 100.76367 147.0293 L 101.98047 144.82422 C 102.77916 143.3831 103.57735 141.9417 104.375 140.5 C 106.13552 137.27352 107.79115 134.08195 110.20312 131.28516 C 112.02531 129.8138 113.21575 129.32973 115.5625 129.1875 C 117.62545 130.29459 117.62545 130.29459 119.5625 132.1875 C 122.09689 134.72189 124.57208 137.19553 127.32031 139.5 C 128.94921 140.84418 130.5703 142.19332 132.16992 143.57227 L 133.78125 144.97656 C 134.87518 145.92167 135.96892 146.86699 137.0625 147.8125 C 141.01281 151.28427 144.66449 154.09439 149.5625 156.1875 C 154.54477 156.02678 154.54575 156.02751 165.34375 147.63672 L 166.9375 146.375 C 168.07565 145.48715 169.21367 144.59912 170.35156 143.71094 C 172.25945 142.21132 174.16974 140.71562 176.08594 139.22656 L 178.3125 137.5 C 179.72692 136.39295 181.14359 135.28878 182.5625 134.1875 C 187.29748 130.63435 192.50733 127.368 195.5625 122.1875 C 196.08718 118.66462 195.6464 116.4497 194.5625 113.0625 C 191.85418 109.16929 189.06914 107.55976 184.5625 106.1875 C 178.61985 105.40814 174.56484 106.02087 169.66797 109.55469 L 167.75 111.0625 C 161.12111 116.05251 156.15979 119.2556 147.5625 118.1875 C 141.32729 115.0699 136.21043 107.60691 132.9375 101.625 C 132.15653 100.14016 131.36587 98.660344 130.5625 97.1875 C 128.39069 94.201268 126.70665 91.613477 125.51953 88.105469 C 124.04925 83.634409 122.97809 79.52045 119.48828 76.234375 C 114.9172 73.533634 110.89178 72.315436 105.5625 73.1875 C 98.738992 75.567499 96.433041 78.530259 93.167969 84.914062 C 91.145826 89.047483 89.121626 93.167063 86.910156 97.203125 C 85.764656 99.253264 84.67407 101.25915 83.65625 103.30078 C 83.630932 103.33775 83.605291 103.36935 83.580078 103.4082 C 81.330973 106.87404 79.297125 110.04225 78.5625 111.1875 C 78.416583 111.41498 77.966797 112.11328 77.966797 112.11328 L 77.955078 112.16797 L 77.289062 113.24219 L 75.5625 116.1875 C 69.842534 124.05074 64.611062 131.51274 54.5625 133.1875 C 55.332676 127.06735 55.639209 120.97825 55.681641 114.81445 L 55.6875 112.25 L 55.701172 109.73828 L 55.695312 107.34766 C 55.693094 105.96023 55.651031 104.5721 55.5625 103.1875 C 53.39995 93.326044 48.72825 83.142535 39.980469 77.53125 C 37.430555 76.185825 37.430555 76.185825 34.8125 74.125 C 32.501967 69.720152 31.901708 68.524439 31.697266 65.458984 C 31.801961 64.427533 31.967144 63.671596 32.152344 63.078125 L 32.152344 63.076172 C 32.45119 62.416028 33.259766 61.464844 33.259766 61.464844 L 33.558594 61.1875 L 33.5625 61.1875 L 33.578125 61.167969 L 33.583984 61.164062 L 35.042969 59.5 C 38.978149 54.169046 43.091673 49.07885 47.5625 44.1875 C 49.534723 42.26832 50.783614 40.827167 52.25 38.4375 C 53.999776 34.104722 54.225986 30.509702 52.9375 26 C 50.212652 22.408155 47.077387 20.413121 42.625 19.75 C 38.297702 20.368185 34.329438 21.632594 31 24.5625 L 29.5625 26.1875 C 25.088142 29.369266 22.98577 31.991587 20.5 36.9375 C 19.257982 39.843171 19.257982 39.843171 17.5625 42.1875 C 14.975784 43.095141 14.975784 43.095141 12.5625 43.1875 C 13.671059 37.829466 14.690336 32.463254 16.652344 27.34375 C 18.331832 23.470767 19.531875 20.567246 19.875 16.3125 C 19.486468 12.427183 19.53673 10.141602 16.671875 7.3359375 L 14.3125 5.5625 C 10.538503 2.6623479 7.0631596 0.43630088 2.2460938 -0.04296875 z "
     transform="translate(427.4375,57.8125)" />
</svg>
