<svg width="250" height="250" xmlns="http://www.w3.org/2000/svg">
	<path fill="#009893" d="m 152.5359,34.968918 -0.78053,0.01494 c -3.49115,0.03026 -6.45418,2.040656 -8.94297,4.357457 l -0.59185,0.572849 c -0.91222,0.847057 -0.91222,0.847057 -1.73755,1.737554 -0.42965,0.754669 -0.85965,1.45815 -1.37987,2.154973 -1.7557,1.030604 -1.75536,1.030944 -3.85452,1.151807 -3.46257,0.173399 -6.59462,0.487779 -9.81175,1.819 l -0.93936,0.434389 c -2.11768,0.909609 -3.94368,2.113957 -5.63754,3.61696 -0.0275,0.01682 -0.0536,0.03096 -0.0821,0.04955 -2.20496,1.438009 -3.97174,3.032899 -5.45768,4.998179 -1.48595,1.96528 -2.9301,5.386414 -2.9301,5.386414 l 0.006,0.0088 c -1.88453,4.297244 -2.01295,8.135791 -1.3534,12.954955 l 0.16426,1.133478 -3.47511,-0.347508 c -0.0317,-2.456209 -0.0377,-4.903413 0.10725,-7.356094 l 0.0448,-0.701809 c 0.0579,-0.905866 0.12448,-1.80986 0.19547,-2.714927 0.27732,-2.510958 0.39935,-4.71454 -0.0991,-7.206771 l -0.24841,-1.133486 C 104.76285,50.892376 103.3099,46.752183 98.918725,43.694675 98.0866,43.389246 98.0866,43.389246 97.21783,43.656665 c -0.841451,0.449714 -0.841451,0.449714 -1.700903,0.64751 -4.488813,0.913716 -7.383767,0.216846 -11.222155,-2.196375 -0.828015,-0.548168 -1.637495,-1.083426 -2.541164,-1.498639 -1.36846,-0.152599 -1.939921,-0.0683 -3.192754,0.521265 -1.243432,1.105269 -1.665567,2.04409 -2.019911,3.648862 -0.395754,2.521097 0.498107,4.184656 1.840721,6.255191 2.395238,3.16073 6.272325,4.779324 10.061522,5.51673 1.290432,0.122817 1.290432,0.122817 2.345692,0.738461 0.964525,2.040109 1.207906,4.349616 1.425341,6.570799 l 0.09909,1.120587 c 0.115136,1.205823 0.229681,2.411309 0.339372,3.617641 0.07582,0.835974 0.153017,1.672172 0.231444,2.507913 0.232754,2.460009 0.461471,4.920319 0.684843,7.381202 l -0.67127,-0.135063 c -0.76861,-0.140372 -0.768446,-0.140544 -1.101199,-0.828724 l -0.312198,-0.773752 c -1.031023,-1.998921 -1.979475,-3.996508 -2.797736,-6.092296 -1.340223,-3.485698 -2.843645,-6.889526 -4.371031,-10.295678 -0.02609,-0.09638 -0.06709,-0.192567 -0.125563,-0.287785 -9.1e-4,-0.0017 -0.0027,-0.0031 -0.0036,-0.0047 -0.914879,-1.489079 -2.165829,-2.70678 -2.165829,-2.70678 0,0 -0.0018,0 -0.0018,0 l -0.547626,-0.59456 c -0.78728,-0.859852 -1.586413,-1.694985 -2.410911,-2.519479 l -0.781897,-0.781899 c -1.03167,-1.397743 -1.815322,-2.182561 -3.475107,-2.780084 -1.264796,0.0253 -1.857903,0.153752 -2.823527,0.977373 l -0.65158,0.760179 c -0.721407,0.698865 -1.389441,1.389292 -2.019903,2.171942 -1.960466,2.464583 -4.100786,4.790538 -6.274198,7.068309 -0.378444,0.393998 -0.755815,0.789031 -1.132123,1.185068 -1.06987,1.177442 -2.136421,2.346586 -3.331217,3.399765 -1.600901,1.079229 -2.816903,1.119957 -4.702253,0.938008 -1.702531,-0.298175 -3.239538,-0.610347 -4.954739,-0.319682 -2.031648,0.513988 -3.445828,1.667036 -4.517638,3.453386 -0.227147,1.135735 -0.173046,1.844069 0.173755,2.953841 0.955032,1.383152 2.050552,1.94035 3.583703,2.519448 4.534339,1.363086 9.526721,1.442486 13.870561,-0.618998 l 0.963797,-0.510408 c 1.041724,-0.473507 1.975775,-0.960287 2.8914,-1.649317 1.476131,-1.121771 2.833918,-2.317513 4.776912,-2.129861 1.628058,1.138785 1.628058,1.138785 2.780082,2.812663 0.415053,0.596998 0.842715,1.185706 1.289586,1.759277 0.400753,0.501607 0.796679,1.007114 1.187787,1.516286 l 0.627144,0.818551 c 1.127196,1.428187 2.408801,2.837964 3.057008,4.557004 0.08127,0.451817 0.09027,0.848861 0.05909,1.231214 -0.756098,1.105297 -1.872176,1.795976 -2.568328,2.148866 -0.131318,0.049 -0.453281,0.209845 -0.61018,0.278281 -0.0045,0.0018 -0.02446,0.0095 -0.02446,0.0095 l -0.0018,0.0036 c -0.826561,0.362035 -1.848894,0.882642 -4.077823,2.059275 l -0.828734,0.441853 c -0.857915,0.455098 -1.715721,0.910861 -2.572391,1.368323 l -0.772398,0.412662 c -1.281814,0.681125 -2.571764,1.348332 -3.822615,2.085066 -0.78577,0.601835 -1.520068,1.113715 -2.391847,1.59095 -1.821021,0.939033 -3.58608,1.884275 -5.253384,3.078726 -1.362953,0.994097 -2.765565,1.874639 -4.213565,2.736646 -0.691995,0.406722 -1.376357,0.827982 -2.039589,1.280082 l -6.94e-4,6.9e-4 c -3.49e-4,2.9e-4 -10e-4,3.4e-4 -0.0014,7e-4 -0.0052,0.005 -1.376706,1.09833 -4.049312,2.87444 -0.198898,0.13217 -0.342778,0.2477 -0.43982,0.34954 -0.47587,0.31096 -0.95391,0.6188 -1.418549,0.94615 -1.660795,1.75571 -3.511212,2.9148 -5.560169,4.17013 -1.217674,0.74414 -2.027624,1.32255 -2.95384,2.41086 -0.839179,1.09255 -0.839179,1.09255 -1.911308,1.95474 -1.690598,1.37361 -2.946988,2.7282 -4.058816,4.58823 l -0.458822,0.77647 c -2.598427,4.17364 -4.525658,8.15001 -4.622162,13.1606 l -0.0041,0.8267 c -0.02078,2.82224 0.359448,5.23432 1.768096,7.70971 l 0.360407,0.60883 c 0.672856,1.20012 1.365581,2.27064 2.30633,3.28641 l 0.886424,0.81856 c 1.924204,1.80085 3.72589,3.19659 6.211751,4.12668 0.7128,0.23644 1.422674,0.48196 2.128503,0.73846 1.299721,0.83554 2.368118,1.24999 3.866055,1.55769 l 0.825338,0.15814 c 0.59906,0.11828 1.19815,0.23637 1.797283,0.3543 0.902169,0.17404 1.80195,0.35169 2.699313,0.54909 5.416971,1.21915 10.820149,1.57949 16.349969,1.85634 l 0.69298,0.0333 0.0018,-7e-4 c 0.01591,0 0.05436,0.003 0.09706,0.005 0.0091,6.9e-4 0.01027,6.9e-4 0.02036,0.002 l 0.06045,0.003 6.91e-4,0.002 c 0.456144,0.0317 1.701013,0.12437 3.04479,0.0468 1.232333,-0.0711 -0.699816,0.63443 -1.801349,1.02149 -0.626125,0.0935 -1.71583,0.39502 -1.71583,0.39502 l 0.0036,0.0135 c -0.310272,0.10202 -0.59238,0.33546 -1.269223,0.9543 -2.43162,3.24216 -2.593083,6.12149 -2.085066,10.07781 0.25649,1.36478 0.234772,1.21274 0.395017,2.53981 l -0.0036,1.10905 c 0.0045,0.98796 -0.183035,1.92224 -0.21719,2.9104 -0.173754,1.04253 -0.173754,0.73846 -0.259272,1.49592 -0.09966,1.40339 -0.205799,2.77665 -0.475116,4.15927 -0.268099,1.30594 -0.570944,2.5264 -0.355654,3.8552 0.410563,1.10554 0.680244,1.48945 1.535286,2.25271 l 0.496835,0.40316 0.621716,0.38755 c 0.695025,0.34752 0.695025,0.34752 1.433486,0.28236 2.144348,-0.60601 3.654761,-1.37223 5.082339,-3.12759 3.049199,-4.28274 4.051614,-9.72713 3.480534,-14.92395 -0.127418,-0.95566 -0.256508,-1.90645 -0.32579,-2.86833 l -0.02718,-0.84298 c -0.03309,-0.93493 -0.05527,-1.29521 0.574207,-2.00361 l 0.555208,-0.49413 c 0.998124,-1.61765 1.870848,-2.46177 3.475107,-3.4751 0.03464,0.7299 0.06964,1.4598 0.106554,2.18959 l 0.04545,0.89457 0.04136,0.88642 0.04409,0.84842 c 0.02364,0.47955 0.220708,0.92632 0.272853,1.40361 0.1991,0.84795 0.242545,0.75022 0.321717,1.73077 0.240154,2.18382 0.507535,4.34732 0.912216,6.50768 1.049205,5.56913 2.088211,11.04814 -0.568099,16.32145 -0.702597,1.37765 -1.381941,2.74542 -1.784385,4.24412 -0.195154,1.45631 -0.262417,2.68917 0.608144,3.89456 1.27125,0.93511 2.432692,1.79665 4.053378,1.65882 1.028087,-0.34041 1.028087,-0.34041 2.201811,-2.00633 0.589889,-0.99095 0.589889,-0.99095 1.390041,-1.73756 1.245696,-0.20283 1.245696,-0.20283 2.432574,0 l 0.695025,0.69503 c 2.759591,2.52962 4.71113,5.71054 5.386409,9.4045 0.226254,1.24034 0.454244,2.2717 1.001806,3.40859 0.561989,0.73982 0.561989,0.73982 1.73484,1.08733 1.460968,0 1.858131,-0.15344 2.997281,-1.04254 l 0.65158,-0.61221 0.716738,-0.66923 0.66108,-0.65565 c 2.70015,-0.73302 2.70015,-0.73302 5.58393,-0.0353 l 1.00928,0.1914 c 0.98354,0.18078 1.96666,0.36352 2.94841,0.55385 l 0.93936,0.18462 0.92443,0.17579 0.85521,0.17307 0.75814,0.15 c 0.66875,0.15152 0.66867,0.15161 1.02421,0.91289 0.47899,1.87606 1.40068,3.61219 2.84524,4.90859 0.89049,0.28235 0.89049,0.28235 1.97647,0.2172 1.18755,-0.74868 1.18755,-0.74868 1.80407,-3.15204 0.29878,-1.19853 0.6189,-2.3231 1.14297,-3.44388 0.61004,-0.8014 1.04389,-0.96323 2.00498,-1.24479 3.70721,-0.82081 7.20075,-2.30308 10.66763,-3.82805 l 6.9e-4,0.002 c 0,0 0.61764,-0.21583 1.13891,-0.48732 0.50219,-0.26157 0.65035,-0.38544 1.70769,-1.15045 l 0.45058,-0.29212 c 0.84841,-0.45204 0.84841,-0.45204 1.54208,-0.93393 l 0.002,-0.004 c 0.2225,-0.13477 0.50016,-0.31287 0.71267,-0.48122 0.4181,-0.33121 1.54276,-1.22782 1.81426,-1.60791 0.01,-0.014 0.0175,-0.0268 0.0237,-0.0394 1.82257,-1.41463 3.34703,-3.03944 4.83257,-4.90519 0.60298,-0.77665 1.18453,-1.5312 1.87737,-2.22895 0.46828,-0.46418 0.46828,-0.46418 0.92439,-1.20264 0.3251,-0.55388 0.65767,-1.10418 1.01809,-1.63575 2.08902,-3.04318 4.00162,-6.19795 5.41085,-9.6149 0.54334,-1.37305 1.11367,-2.69083 1.80271,-3.99638 h 1.39004 l 0.84707,0.93393 c 1.65436,2.14419 3.68439,3.93332 5.75564,5.66878 5.56034,4.36816 12.1584,7.48789 19.36489,6.79885 l 0.769,-0.0875 c 1.76123,-0.19944 3.31494,-0.59044 4.96221,-1.24818 l 0.61968,-0.25046 c 1.91478,-0.65839 3.65017,-1.44908 5.36877,-2.51944 l 0.64751,-0.41268 c 1.15943,-0.73399 2.21927,-1.4837 3.20768,-2.44479 l 0.85384,-0.87828 c 1.31204,-1.0425 2.37989,-2.00266 3.31019,-3.40791 l 0.38212,-0.61018 c 1.15889,-1.83471 2.03691,-3.62057 2.64162,-5.71763 l 0.26878,-1.03711 c 2.19815,-7.60752 0.6263,-15.53375 -1.74706,-22.95199 l -0.33801,-1.02624 c -1.52822,-4.69172 -3.18407,-9.32348 -5.21265,-13.82441 l -0.34752,-0.77103 c -0.78016,-1.77975 -1.57829,-3.54016 -2.457,-5.27375 l -0.32308,-0.63393 -1.04253,-2.08507 -0.42625,-0.84027 -0.46425,-0.919 c -0.70342,-1.38711 -1.4174,-2.72931 -1.68325,-4.27329 -0.0971,-2.47479 0.68443,-3.88308 2.22624,-5.7828 0.99844,-0.018 0.99844,-0.018 2.08506,0.34752 0.72902,1.02928 0.72903,1.02928 1.0914,1.79864 0.29865,0.63393 0.29865,0.63393 0.79819,1.48098 l 0.54299,0.8905 c 1.84019,3.05818 3.70951,5.83243 6.6027,7.99275 1.88851,1.26773 3.6372,1.74059 5.90768,1.39004 3.90078,-1.29416 6.78329,-4.8656 8.93482,-8.21944 1.67138,-3.04393 1.95142,-6.25582 1.07783,-9.59048 -0.71124,-2.10724 -1.59903,-3.28868 -3.56198,-4.43076 -1.44906,-0.40675 -1.99544,-0.33106 -3.32307,0.34751 -1.32794,1.08511 -1.66962,2.04902 -2.08507,3.6923 -0.27289,1.18921 -0.27289,1.18921 -0.69503,2.21538 -0.69343,0.50366 -0.69343,0.50366 -1.39004,0.69502 -0.5836,-0.95353 -1.13949,-1.91467 -1.67646,-2.89546 l -0.64751,-1.20951 -0.65565,-1.22307 -0.412,-0.77036 c -0.0132,-0.0286 -0.0268,-0.0575 -0.0427,-0.0862 -0.0119,-0.0216 -0.0246,-0.0435 -0.038,-0.0658 -9.1e-4,-0.002 -0.002,-0.003 -0.003,-0.004 -0.38773,-0.64647 -1.29301,-1.55525 -1.47081,-1.73145 -0.29224,-0.3515 -0.60177,-0.68865 -0.94004,-1.02692 l -0.71675,-0.71674 -0.58641,-0.803616 c -1.62654,-1.890312 -4.14389,-4.178713 -6.70044,-4.493203 -1.82361,-0.06127 -3.15243,0.247299 -4.58959,1.369677 -1.28986,1.200251 -2.58865,2.378183 -3.93529,3.514471 -0.38903,0.324971 -0.52139,0.470811 -0.69162,0.629861 -3.5e-4,-2.6e-4 -0.0156,-0.0108 -0.0156,-0.0108 0,0 -3.14654,2.5236 -4.92691,0.54977 l -0.44722,-0.75612 c -0.95196,-1.255509 -1.87444,-2.425114 -2.33213,-3.951564 0.052,-2.875518 0.052,-2.875518 1.54207,-5.461082 0.87202,-1.510759 1.7496,-3.01829 2.59751,-4.542749 l 0.42286,-0.766288 c 0.27755,-0.500808 0.55493,-1.001706 0.83212,-1.502714 0.6118,-1.121233 1.18714,-2.230338 2.02533,-3.202253 0.63324,-0.511317 1.04692,-0.679534 1.86244,-0.728961 0.7169,0.384726 0.7169,0.384726 1.39004,1.042533 0.88074,0.880733 1.74089,1.740349 2.69593,2.541173 0.56606,0.467117 1.1294,0.935961 1.68528,1.415159 l 0.55997,0.488008 c 0.38014,0.328435 0.76023,0.656943 1.14027,0.985515 1.37276,1.206478 2.64176,2.18302 4.34387,2.910399 1.7314,-0.05582 1.73173,-0.05564 5.48416,-2.971481 l 0.55384,-0.438462 c 0.39552,-0.308545 0.79099,-0.617144 1.18642,-0.925788 0.66301,-0.521135 1.32686,-1.040906 1.99276,-1.558377 l 0.77375,-0.599998 c 0.49153,-0.384708 0.98384,-0.768416 1.47693,-1.151123 1.64545,-1.23476 3.45593,-2.369847 4.51763,-4.170132 0.18233,-1.224233 0.0292,-1.993939 -0.34751,-3.171036 -0.94117,-1.352928 -1.909,-1.912257 -3.47511,-2.389132 -2.06513,-0.270835 -3.47429,-0.05791 -5.176,1.170135 l -0.66652,0.523981 c -2.30361,1.734077 -4.02772,2.847191 -7.01536,2.476011 -2.16681,-1.083397 -3.94497,-3.676867 -5.08235,-5.755644 -0.27139,-0.515998 -0.54615,-1.030251 -0.82533,-1.542078 -0.75474,-1.037747 -1.33995,-1.937031 -1.75249,-3.156102 -0.51094,-1.55374 -0.88318,-2.983385 -2.09593,-4.125333 -1.58849,-0.938536 -2.98737,-1.361869 -4.83936,-1.058819 -2.37123,0.827074 -3.17258,1.856666 -4.30722,4.075103 -0.70271,1.436408 -1.40615,2.868005 -2.17466,4.270579 -0.39808,0.712446 -0.77707,1.409514 -1.13076,2.119001 -0.009,0.01286 -0.0177,0.02384 -0.0265,0.03733 -0.78159,1.204417 -1.48837,2.305403 -1.74367,2.703392 -0.0507,0.07909 -0.207,0.321717 -0.207,0.321717 l -0.004,0.019 -0.23145,0.373308 -0.59999,1.023524 c -1.98775,2.732554 -3.80575,5.325682 -7.29773,5.907681 0.26765,-2.126821 0.37417,-4.242841 0.38891,-6.384834 l 0.002,-0.89117 0.005,-0.872854 -0.002,-0.830765 c -7.8e-4,-0.482151 -0.0154,-0.96454 -0.0462,-1.445704 -0.75151,-3.426961 -2.37498,-6.965839 -5.41492,-8.915818 -0.88613,-0.467551 -0.88613,-0.467551 -1.79593,-1.183708 -0.80294,-1.530732 -1.01153,-1.946254 -1.08257,-3.011534 0.0364,-0.35844 0.0938,-0.621134 0.15813,-0.82737 v -6.96e-4 c 0.10386,-0.229405 0.38485,-0.559951 0.38485,-0.559951 l 0.10384,-0.09637 h 0.002 l 0.005,-0.0068 0.002,-0.0014 0.507,-0.578282 c 1.36746,-1.852538 2.79695,-3.621436 4.35062,-5.321232 0.68536,-0.666935 1.11936,-1.167752 1.62894,-1.998186 0.60808,-1.505686 0.68668,-2.754994 0.23892,-4.322163 -0.94691,-1.248204 -2.03645,-1.9415 -3.5837,-2.171941 -1.50378,0.214826 -2.8828,0.654221 -4.03981,1.672395 l -0.49955,0.564704 c -1.55489,1.105698 -2.28549,2.016982 -3.14931,3.735739 -0.43162,1.009752 -0.43162,1.009752 -1.02082,1.824431 -0.89891,0.315414 -0.89891,0.315414 -1.73754,0.34751 0.38523,-1.861974 0.73944,-3.726788 1.42125,-5.505871 0.58365,-1.345902 1.00067,-2.354907 1.11991,-3.833476 -0.13502,-1.350189 -0.11755,-2.144452 -1.11311,-3.119451 l -0.81991,-0.616288 c -1.31151,-1.007834 -2.51923,-1.781408 -4.19322,-1.94796 z" />
</svg>
