<?xml version="1.0" encoding="UTF-8" standalone="no"?>
<svg
   version="1.1"
   width="766"
   height="642"
   id="svg3"
   sodipodi:docname="frog.svg"
   inkscape:version="1.4 (86a8ad7, 2024-10-11)"
   xmlns:inkscape="http://www.inkscape.org/namespaces/inkscape"
   xmlns:sodipodi="http://sodipodi.sourceforge.net/DTD/sodipodi-0.dtd"
   xmlns="http://www.w3.org/2000/svg"
   xmlns:svg="http://www.w3.org/2000/svg">
  <defs
     id="defs3" />
  <sodipodi:namedview
     id="namedview3"
     pagecolor="#ffffff"
     bordercolor="#000000"
     borderopacity="0.25"
     inkscape:showpageshadow="2"
     inkscape:pageopacity="0.0"
     inkscape:pagecheckerboard="0"
     inkscape:deskcolor="#d1d1d1"
     inkscape:zoom="0.88223136"
     inkscape:cx="245.96723"
     inkscape:cy="204.59486"
     inkscape:window-width="1920"
     inkscape:window-height="1007"
     inkscape:window-x="1911"
     inkscape:window-y="-9"
     inkscape:window-maximized="1"
     inkscape:current-layer="svg3" />
  <path
     id="path1"
     d="m -10.966797,7.0820312 c -5.919264,0.090755 -12.466751,1.6041181 -17.5,3.0781248 C -28.976559,10.442515 -29.490941,10.71606 -30,11 c -9.469503,4.680951 -9.470114,4.680395 -20.289062,4.416016 -1.571267,-0.02795 -3.141446,-0.04956 -4.712891,-0.06445 -5.54323,-0.04711 -11.084982,-0.145525 -16.626953,-0.271484 L -75,15 c -9.52328,-0.221335 -19.044771,-0.466609 -28.56641,-0.75 -2.09457,-0.06265 -4.19048,-0.124434 -6.28515,-0.183594 -3.38666,-0.09493 -6.77199,-0.196474 -10.15821,-0.30664 l -3.78711,-0.126954 -3.64648,-0.101562 -3.33398,-0.121094 C -133.60433,13.369898 -133.60336,13.370387 -136,13 -138.59706,10.402937 -138.59706,10.402937 -146.04297,8.4804688 -151.66455,7.5670546 -156.0346,8.7046236 -160.75,11.8125 L -163,14 c -4.72745,4.397626 -6.72862,8.180383 -9,14.125 -0.62366,1.641985 -1.28457,3.270871 -2,4.875 -2,2 -2.00024,1.999512 -2.63867,3.935547 l -0.54492,2.353515 -0.62305,2.605469 c -1.34727,5.831223 -2.55879,11.665437 -4.71289,17.261719 -0.75943,1.924669 -1.47401,3.822135 -2.07422,5.802734 -2.20793,7.954884 -4.25731,14.846129 -9.38281,21.482422 -2.00979,2.541336 -3.89916,5.140478 -5.77735,7.779297 l -1.30859,1.841797 c -10.4842,14.66373 -20.34807,29.99896 -25.8125,47.3125 -0.66855,2.2207 -1.36699,4.43322 -2.125,6.625 -1.71663,2.56674 -1.85831,2.70916 -2.74609,4.35156 l -0.69141,2.91797 -0.77344,3.19336 c -0.52342,2.22197 -1.04944,4.44334 -1.57812,6.66406 l -0.77344,3.20508 c -0.4478,1.897 -0.92523,3.78735 -1.4375,5.66797 -1.04999,2.56485 -1.97597,4.87991 -2.53125,7.59961 l -0.39844,2.74414 c -0.32026,2.05128 -0.6352,4.10341 -0.94531,6.15625 -0.74687,5.2021 -1.10589,9.94296 -4.01953,14.39453 -2.34826,2.34826 -2.34827,2.34827 -8.02735,10.21485 L -255,220 c -4.41808,6.07958 -8.44212,12.25809 -12.17188,18.78516 -0.94374,1.65959 -1.88858,3.31911 -2.8496,4.96875 -3.24605,5.54557 -6.56048,11.05012 -9.16602,16.93359 -0.99039,2.35765 -1.98921,4.69816 -3.05469,7.02344 -2.1656,4.67718 -4.25247,9.34038 -6.00781,14.1875 L -289,284 c -1.03374,2.81855 -2.06685,5.63705 -3.08594,8.46094 L -293,295 c -1.23637,3.38376 -2.04958,6.30738 -2.625,9.875 L -296,308 c -3.82261,0.31923 -3.82261,0.31923 -6.14844,-1.17188 L -304.375,305.25 -306.75391,303.58594 -309,302 c -2.02318,-1.29789 -4.02866,-2.62465 -6,-4 -1.31399,-1.3524 -2.64943,-2.68413 -4,-4 -6.44751,-4.48475 -13.57418,-9.07631 -21.625,-8.9375 -7.48819,2.08005 -10.92483,6.33745 -14.82812,12.79688 -6.50167,13.20034 -5.83702,29.85884 -1.23438,43.64062 1.26363,3.36753 2.42646,6.74946 3.53516,10.17188 1.36466,4.22129 2.68061,8.34925 4.60937,12.35156 1.07843,2.08041 2.10317,4.18914 3.08594,6.3164 3.5922,7.85849 7.40952,15.53708 11.53515,23.12891 0.64198,1.17634 1.28266,2.3534 1.92188,3.53125 l 1.73438,3.28125 1.57812,2.96875 c 0.85039,1.6082 1.74046,3.19675 2.6875,4.75 1.86406,1.84418 3.18484,3.30059 4.57812,5.56641 4.01241,7.19046 8.03272,15.13288 13.97266,20.95312 1.55844,1.34034 1.55844,1.34034 3.44922,3.48047 0.50169,3.16927 0.50169,3.16927 0,6 -1.04122,1.2042 -1.04097,1.20469 -3.18945,1.61719 l -2.87696,0.6875 c -2.16455,0.52676 -4.32996,1.05003 -6.49609,1.57031 -5.63569,1.34715 -11.26653,2.57241 -16.66797,4.69922 -3.37273,1.33981 -6.71358,2.1727 -10.26367,2.9082 -6.14533,1.23931 -12.1761,2.59516 -18.13086,4.58008 -1.79165,0.64588 -3.58331,1.29172 -5.375,1.9375 -4.93665,1.36849 -8.11041,2.63632 -11.5,6.625 -2.97987,4.36886 -3.30265,8.22385 -2.5,13.375 1.52463,4.57388 4.88354,6.66979 9,9 8.46755,1.16794 13.88787,-2.45269 20.5,-7.19531 5.29607,-3.82311 10.07117,-6.79478 16.3125,-8.86719 2.96515,-0.9206 5.90266,-1.82909 8.80469,-2.93359 10.93153,-4.26962 22.66535,-7.15173 34.38281,-8.00391 -2.12709,1.98528 -4.19686,3.65816 -6.89062,4.80469 -10.11282,3.71275 -10.11331,3.71348 -33.85352,16.91406 l -2.06836,1.15625 c -3.52409,1.96736 -6.98218,3.9909 -10.36328,6.19922 L -348,495 l -2.33594,1.52734 -2.03906,1.41016 c -2.08594,1.40234 -2.08594,1.40234 -3.625,3.0625 -0.48534,3.63146 -0.0148,4.97087 1.6875,8.3125 0.77162,1.22867 1.5424,2.45787 2.3125,3.6875 0.73672,1.42362 1.48696,2.84031 2.25,4.25 2.26274,3.4864 4.34816,5.55268 8.39062,6.73047 6.26511,0.0519 6.26512,0.0519 19.98438,-9.98047 3.52525,-2.67204 7.05462,-5.08118 10.875,-7.3125 1.52013,-0.86124 3.0234,-1.7536 4.5,-2.6875 1.64586,-1.65846 2.85143,-2.92181 4.92969,-4.01562 C -299,499 -299,499 -296.99219,497.70312 -291.45796,493.90474 -285.78343,490.40486 -280,487 c -0.7435,5.73554 -2.31341,8.72599 -6.25,13 l -2.42188,2.54297 c -3.96359,4.18304 -9.48966,9.3184 -9.32812,15.45703 1.25372,3.48255 2.40065,5.50054 5.25,7.875 3.49824,1.4311 6.00084,1.534 9.75,1.125 2.49553,-1.51795 4.02701,-3.03477 5.82422,-5.34766 8.32256,-12.12615 17.37021,-21.54831 29.91797,-29.35937 5.22157,-2.88059 8.45996,-3.93149 14.25781,-2.29297 0.93386,2.59405 0.97308,4.46656 0.8125,7.25 -1.45433,6.71231 -3.5149,11.04147 -9.0625,15.25 -6.13345,4.49854 -12.754,8.51448 -14.0625,16.5 -0.0544,4.42633 0.78765,7.66263 3.41797,11.24219 5.58855,5.18525 13.13564,6.93005 20.51953,7.82031 7.77152,0.31682 13.56141,-1.48837 19.3125,-6.75 4.16622,-6.69121 5.31301,-11.50468 4.625,-19.4375 -0.80515,-8.89242 -1.0849,-19.01752 3.375,-27.0625 L -202,492 l 1.4375,-2.375 c 2.03923,-2.1208 3.69046,-2.31451 6.5625,-2.625 1.01513,1.65805 2.02151,3.32227 2.97656,5.01562 3.73327,7.23857 4.25953,16.15808 2.02344,23.98438 -0.67637,1.66275 -1.34169,3.33002 -2,5 -2.0724,6.35986 -5.21222,14.57557 -2,21 6.07939,3.79962 11.88322,4.66423 18.8125,3.1875 3.98454,-2.73449 4.83582,-5.02811 6.34766,-9.51172 L -167,533 c 2.30875,-6.01517 3.4355,-11.46035 3.88672,-17.91016 L -163,513 c 3.13467,0.80995 3.13467,0.80995 5.375,3.25 L -155,519 c 1.68711,1.64597 3.35456,3.31237 5,5 3.48527,4.97896 7.41812,7.70491 13,10 4.06996,0.54266 6.15693,0.38488 9.875,-1.3125 C -125,531 -125,531 -124,528 l -1.1875,-2.16406 L -127,523.375 -128.95703,520.70312 -131,518 c -2.28249,-3.04332 -4.56212,-6.07909 -7,-9 -1.33709,-1.32957 -2.67073,-2.66261 -4,-4 -1.92156,-2.88234 -3.60956,-5.60956 -6.0625,-8.0625 L -150,495 c -1.70506,-2.89118 -3.10696,-5.10696 -5.5,-7.5 -3.51533,-3.51533 -5.40192,-6.69082 -6.5,-11.5 11.19012,0.81745 22.32933,1.14072 33.54883,1.13672 2.89368,-0.006 5.78795,-0.0109 8.68164,-0.006 9.29605,0.0203 18.59175,0.13835 27.851561,-0.79102 L -89,476 c 3.983054,-0.45188 7.963639,-0.91592 11.941406,-1.41211 2.096852,-0.26376 4.193242,-0.52687 6.291016,-0.7832 6.38438,-0.77893 12.761067,-1.53124 19.064453,-2.83203 4.328722,-0.92215 8.664877,-1.59766 13.046875,-2.21485 L -35.875,468.375 c 3.291265,-0.46131 6.582643,-0.92154 9.875,-1.375 -0.553659,4.02543 -1.187278,8.01817 -2,12 -4.33346,11.48367 -14.90588,18.42652 -25.25,24.0625 -3.515625,1.84766 -3.515625,1.84766 -6.75,3.9375 -3.410077,3.2 -5.579223,6.23119 -6,11 3.841845,3.64227 7.773395,7.68065 12.8125,9.57031 6.943534,1.36391 14.757023,1.59205 21.1875,-1.57031 12.184352,-6.89532 17.11668,-15.93284 21.048828,-28.93164 C -10.337202,495.03388 -9.6726429,493.01585 -9,491 c 2.2702703,-2.27027 2.2702703,-2.27027 4.5,-9.5 1.1093381,-3.59694 1.7736406,-6.77364 4.5,-9.5 0.01924357,2.12107 0.03717361,4.24216 0.04882812,6.36328 L 0.0625,481 c 0.08173799,8.18637 -0.44801488,15.74321 -2.4414062,23.69922 -1.3628595,5.28451 -2.6786065,10.57136 -3.8574219,15.90039 L -6.9375,523.8125 c -0.754165,3.15019 -1.4334032,6.27075 -1.9609375,9.4668 C -9.0606814,537.65674 -7.7121791,539.62361 -5,543 c 4.72291861,3.40489 9.3724099,3.81452 15,3 4.80855,-1.29461 8.782592,-2.97247 11.5625,-7.25 2.266106,-4.93762 2.008763,-9.39966 0.753906,-14.5625 -1.690646,-6.73023 -2.553397,-12.95719 -2.673828,-19.89258 L 19.625,501.25 C 19.517216,493.62237 20.416603,487.19899 23,480 c 2.429562,-0.14108 2.429562,-0.14108 5,0 1.97558,1.98015 2.934434,3.85175 4.0625,6.40234 0.943864,2.55237 1.885506,5.08757 2.9375,7.59766 5.044551,7.96709 5.121055,16.68765 4.875,25.9375 -0.195313,3.65234 -0.195313,3.65234 0.125,7.0625 2.746577,5.19072 5.358044,7.34243 10.695312,9.43359 C 54.391463,537.34197 56.603093,536.60231 60,535 c 5.121072,-3.41405 8.115239,-7.09581 10,-13 1.80935,-8.32301 1.808861,-8.32301 -5.917969,-22.08203 -0.734409,-1.3012 -1.461424,-2.60603 -2.183593,-3.91406 C 58.078496,489.06642 54.132135,482.20573 50.125,475.375 47.917158,471.6526 45.903782,467.88736 44,464 c 14.894622,2.68592 31.715312,10.96023 42.628906,21.58594 L 88,487 c 5.318374,4.22743 9.753651,8.79792 14.21875,13.90234 L 104,503 c 2.76002,3.23739 5.00335,6.52835 7.04492,10.26562 l 1.01758,1.92188 c 2.67554,5.03589 4.83567,9.87346 6.3125,15.40234 0.71825,2.76975 1.50387,5.49676 2.375,8.22266 2.00503,5.41588 4.06273,7.63937 9.25,10.1875 2.93582,-0.2789 5.2343,-1.09452 7.97266,-2.19922 C 143.78978,543.99886 148.48733,542.15603 151,536 c 0.58568,-5.36321 -0.43027,-8.5371 -3.05273,-13.05859 L 146.6875,520.875 c -1.19285,-2.03564 -2.38761,-4.06906 -3.60547,-6.08984 L 142,513 c -3.10241,-5.19029 -6.27878,-10.32496 -9.55078,-15.41016 L 130.875,495.1875 c -1.38818,-2.11979 -2.6852,-3.99583 -4.46875,-5.79688 L 125,488 c -1.65994,-2.94263 -2.836,-4.8688 -5.5,-7 -2.6543,-2.12344 -3.84319,-4.07168 -5.5,-7 6.3087,0.69823 13.05806,0.97817 19,3.3125 2.46402,1.07365 4.85568,1.96069 7.42578,2.78125 7.16823,2.23687 13.69069,4.72099 20.22656,8.50391 1.39959,0.83602 2.80621,1.66069 4.22657,2.46093 L 166.5625,492 170,494 l 2.54297,1.47266 2.70703,1.58984 c 1.6066,0.94051 3.19311,1.91681 4.75,2.9375 3.41843,3.48345 3.41847,3.48345 12.01562,8.34766 L 195,510 c 6.07497,3.54373 12.11754,3.67099 19,3 5.11766,-1.48877 7.51616,-4.24046 10.08594,-8.75 2.02002,-4.97227 1.4893,-9.41642 -0.0859,-14.4375 -4.67772,-6.57804 -10.06548,-9.13039 -17.8125,-11.0625 -2.40377,-0.54971 -4.80158,-1.12734 -7.1875,-1.75 -3,-2 -3,-2 -5.56641,-2.71094 C 177.77579,470.81862 163.28885,464.61138 152,453 l 2.37109,0.40234 3.06641,0.53516 c 1.86024,0.32073 3.7165,0.66796 5.5625,1.0625 1,0.39888 -0.53267,-0.2048 2.71484,1.15022 l 2.22266,0.71697 c 1.68679,0.33949 3.37433,0.67525 5.0625,1.00781 4.11813,0.80307 8.22766,1.5609 12.23047,2.83398 5.03932,1.7556 10.03246,3.13892 15.24805,4.28321 l 2.95898,0.63281 c 8.20393,1.82672 17.08283,4.55 25.375,2.375 3.76937,-2.3651 6.37092,-4.89804 8.1875,-9 0.48894,-3.30972 0.19454,-4.6751 -1.53906,-7.57031 L 233.375,448.875 c -5.17605,-6.5246 -10.38237,-8.11651 -18.38086,-9.10742 -1.95101,-0.21967 -3.90154,-0.44361 -5.85156,-0.67188 l -2.85742,-0.34961 C 204.51732,438.54544 202.7548,438.29354 201,438 c -4.67661,-1.38489 -9.17255,-2.41813 -13.99219,-3.08984 l -2.59765,-0.34766 c -2.81408,-0.39127 -5.6284,-0.78118 -8.44336,-1.16602 -2.89215,-0.39382 -5.78396,-0.78931 -8.67578,-1.18554 -1.85612,-0.25782 -3.71224,-0.51564 -5.56836,-0.77344 -4.76035,-0.63797 -9.44308,-1.30917 -14.10352,-2.48828 C 144.00024,427.99951 144,428 140.375,427.36719 L 137,426.875 133.5625,426.36719 131,426 c -0.2833,-2.97753 -0.2833,-2.97753 1.32422,-4.92578 C 134,419 134,419 135.39453,416.95703 l 1.41797,-2.14453 1.58203,-2.38672 c 1.03683,-1.56659 2.07574,-3.13179 3.11719,-4.69531 L 143,405.5 c 0.99879,-1.5008 1.9988,-3.0008 3,-4.5 4.84385,-7.15733 9.17966,-14.30722 13,-22.0625 0.97987,-1.98921 1.97741,-3.96991 3,-5.9375 2.78393,-3.96499 4.71619,-7.6079 6.4375,-12.125 1.21975,-3.3113 2.43814,-6.59047 3.85156,-9.82422 2.55599,-5.74705 4.4358,-11.38687 5.89844,-17.48828 0.58028,-2.52924 1.18098,-5.04469 1.8125,-7.5625 2.05483,-4.33634 2.26003,-7.92124 2.27344,-12.66016 L 182.25,310.5 c 0.0379,-4.59886 0.24583,-8.93984 -1.15625,-13.35156 L 180,295 c -2.32467,-6.57247 -4.43366,-12.53022 -10,-17 -7.86129,-5.01071 -15.41657,-8.63756 -25,-7 -0.99246,1.15179 -0.99148,1.15228 -2.77734,1.52539 l -2.30078,0.56055 c -1.72317,0.4328 -3.44719,0.86233 -5.17188,1.28906 -4.44841,1.08042 -8.62654,2.02662 -12.68359,4.1875 -5.3016,3.68807 -9.74963,4.89295 -16.06641,5.4375 l -2,-6 c -1.09049,-3.15528 -2.07587,-6.28692 -2.92969,-9.51562 C 96.793964,251.59102 89.518065,236.50697 80.171875,221.82422 L 79,220 c -4.185214,-6.63862 -9.016949,-12.94237 -14.5,-18.5625 -1.524862,-1.48674 -3.02466,-3.00052 -4.476562,-4.55859 L 57.875,194.5 C 53.276829,189.41875 50.814745,185.31727 49.71875,178.56641 49.194548,175.034 48.626235,171.51597 48,168 c -1.495203,-3.52 -0.693949,-1.51553 -1.632812,-3.86328 l -0.707032,-3.80469 c -0.536299,-2.83916 -1.069543,-5.67883 -1.597656,-8.51953 -0.398081,-2.14327 -0.796537,-4.28568 -1.201172,-6.42773 l -0.388672,-2.05274 c -0.672489,-3.61564 -1.386069,-7.06239 -2.503906,-10.56641 -0.731255,-2.08885 -1.358567,-4.21441 -1.933594,-6.35156 C 36.68767,121.16482 35.451218,115.87714 33.5,110.8125 32.62144,108.62322 31.814862,106.44614 31.066406,104.20703 29.539557,99.519545 27.997889,94.874267 26.125,90.3125 24.236314,85.724629 22.613099,81.064749 21,76.375 19.077542,70.65925 16.832713,65.327401 14,60 9.5448117,51.896871 7.2509751,44.443433 7.6679688,36.074219 l -0.027344,0.01953 c 0,0 1.675985,-21.055104 -8.359375,-26.9199219 C -3.44621,7.5798584 -7.0682125,7.0222574 -10.966797,7.0820312 Z"
     transform="translate(468,39)"
     style="fill:#878d22;fill-opacity:1"
     sodipodi:nodetypes="scccccccccccccccccccccccccccccccccccccccccccccccccccccccccccccccccccccccccccccccccccccccccccccccccccccccccccccccccccccccccccccccccccccccccccccccscscccccccccccccccccccscccccccccccccccccccccccccccccccccccccccccccccscccccccccccccccccccccccccccccccccccccccccccccccccccccscccccccccccccccccccccccccccccccccccccccss" />
</svg>
