<?xml version="1.0" encoding="UTF-8" standalone="no"?>
<svg
   version="1.1"
   width="860"
   height="736"
   id="svg2"
   sodipodi:docname="rat.svg"
   inkscape:version="1.4 (86a8ad7, 2024-10-11)"
   xmlns:inkscape="http://www.inkscape.org/namespaces/inkscape"
   xmlns:sodipodi="http://sodipodi.sourceforge.net/DTD/sodipodi-0.dtd"
   xmlns="http://www.w3.org/2000/svg"
   xmlns:svg="http://www.w3.org/2000/svg">
  <defs
     id="defs2" />
  <sodipodi:namedview
     id="namedview2"
     pagecolor="#ffffff"
     bordercolor="#000000"
     borderopacity="0.25"
     inkscape:showpageshadow="2"
     inkscape:pageopacity="0.0"
     inkscape:pagecheckerboard="0"
     inkscape:deskcolor="#d1d1d1"
     inkscape:zoom="0.76955507"
     inkscape:cx="402.83017"
     inkscape:cy="406.0788"
     inkscape:window-width="1920"
     inkscape:window-height="1007"
     inkscape:window-x="1911"
     inkscape:window-y="-9"
     inkscape:window-maximized="1"
     inkscape:current-layer="svg2" />
  <path
     id="path1"
     style="fill:#cf9b7a;fill-opacity:1"
     d="M -11.501954,-2.9746094 C -23.655382,-3.1538997 -36.987956,4.2825212 -44.51172,12.398438 l -1.6875,1.929687 c -5.296059,5.8211 -8.313487,11.507294 -10.941406,18.925781 -0.620149,1.800948 -1.263442,3.594761 -1.960938,5.367188 -1.060201,2.642589 -1.993367,5.274507 -2.664062,8.042968 l -0.515625,2.398438 -0.527344,2.429688 -0.390625,1.835937 c -3.30643,0.198055 -6.612335,0.402283 -9.917969,0.613281 -1.360633,0.08792 -2.721311,0.175154 -4.082031,0.261719 -6.598206,0.394212 -13.253673,0.520408 -19.6875,2.144531 -1.777285,0.52606 -3.56336,1.033439 -5.37695,1.416016 -28.88954,5.627027 -53.9421,20.977818 -72.07617,44.169918 l -1.85938,2.39453 c -10.24853,12.70896 -25.49464,33.02912 -24.28516,50.08594 1.34616,9.03582 6.59118,14.72614 13.46485,20.30078 l 1.88281,1.48828 c 0.45353,0.35922 0.89894,0.65908 1.3457,1.00586 l -0.0547,0.0176 c 0,0 7.69455,6.20048 11.02539,8.38282 3.33083,2.18226 20.78975,13.78294 25.15429,16.08007 0.32711,0.17217 0.66525,0.29703 1.00977,0.38672 0.24095,0.14359 0.41081,0.30551 0.67383,0.44727 l 2.57226,1.14453 2.85547,1.2832 2.98047,1.31445 c 3.78808,1.69575 7.57706,3.38894 11.375,5.0625 l 2.61914,1.125 2.41602,1.04297 c 3.8392,1.63439 6.2599,3.58612 8.96484,6.83203 1.31543,2.01184 2.64591,4.01401 4,6 l 0.0898,0.0293 c 1.50137,2.14716 3.57633,5.03978 5.42383,7.33789 0.079,0.0983 0.15897,0.18536 0.24024,0.26563 1.59585,2.39362 3.390735,4.62131 5.74609,6.49218 3.5,1.875 3.5,1.875 6,1.375 2.561398,-1.61054 2.561397,-1.61056 5.753906,-2.91406 1.249374,-0.52704 2.498078,-1.05568 3.746094,-1.58594 7.418759,-3.33161 14.713979,-6.35177 22.5,-8.6875 2.521066,-0.72787 5.00358,-1.49573 7.5,-2.3125 4.980063,-2.7506 9.575197,-3.88243 15.121094,-4.94335 2.2533,-0.41289 4.505909,-0.82956 6.757812,-1.25 l 3.277344,-0.62305 c 1.954657,-0.35965 3.903357,-0.75354 5.84375,-1.1836 10.2059819,-3.40528 20.70222491,-4.42342 31.386719,-5.43359 l 2.050781,-0.19141 c 12.543329,-1.19377 24.95918,-1.7582 37.5625,-1.375 0.422975,1.74988 0.846941,3.49951 1.275391,5.24805 l 0.537109,2.18945 c 0.858763,3.56538 1.706351,7.12112 2.869141,10.60157 3.297202,10.56576 3.296469,10.56484 5.880859,21.33593 l 0.919922,3.84766 0.896484,3.67578 c 0.490552,2.04644 1.022013,4.08423 1.621094,6.10156 1.965024,2.94755 2.578855,5.16297 3.242188,8.59571 l 0.382812,2.09179 c 0.465351,2.4364 0.924946,4.87321 1.375,7.3125 -3.407084,0.40887 -6.605489,0.87545 -9.882812,1.91016 -1.701756,0.59498 -3.411714,1.17458 -5.144532,1.67188 l -2.214843,0.60156 c -1.543857,0.4195 -3.088137,0.83745 -4.632813,1.2539 -4.432788,1.18483 -8.809606,2.39175 -13.101562,4.02344 -2.079003,0.80542 -4.155278,1.58462 -6.265625,2.30469 -16.381596,5.41916 -31.8248383,11.80253 -45.757813,22.17187 -1.331987,1.02259 -2.665341,2.04341 -4,3.0625 -2.047382,1.47203 -3.838606,2.92393 -5.626953,4.41211 -0.157054,0.0844 -0.313286,0.17029 -0.470703,0.27149 -6.43196,4.13483 -10.021485,11.45703 -10.021485,11.45703 l 0.0332,0.0254 c -0.921701,1.74314 -1.830645,3.4936 -2.691407,5.26758 l -1.222656,2.5664 c -3.038039,5.99863 -5.041205,11.36229 -5.386719,18.07422 -0.235375,11.75593 0.670304,22.65167 8.949219,31.73828 l 2.4375,2.1875 c 3.488144,3.70014 7.095717,5.626 12,7 12.370028,0.99393 20.5910179,-1.64337 30.5,-8.9375 8.170202,-6.05241 16.557423,-10.75103 25.679688,-15.20703 1.273776,-0.61778 2.547258,-1.23616 3.820312,-1.85547 5.990419,-3.01386 12.005688,-4.92043 18.494141,-6.56835 2.665671,-0.67562 5.302294,-1.36279 7.908203,-2.24415 12.188193,-4.4916 25.304518,-5.64617 38.166016,-6.64062 2.28805,-0.17526 4.57585,-0.35593 6.86328,-0.53906 1.46678,-0.12005 2.93357,-0.23985 4.40039,-0.35938 2.3919,-0.1855 4.78236,-0.39459 7.16797,-0.64844 l 3,-1 c 10.69217,0.97646 20.55988,3.62061 29.62109,9.40626 l 2.37891,1.59374 c 5.47175,3.56208 9.79891,7.49273 13.72266,12.74219 1.89375,3.34737 1.83654,5.5032 1.27734,9.25781 -1.98984,1.1366 -1.98984,1.13652 -4.39844,1.28126 l -2.97656,0.21874 -3.23437,0.25 -6.78125,0.5 -3.23438,0.25 c -1.79456,0.13189 -3.58784,0.29044 -5.375,0.5 -4.04915,1.35452 -4.04915,1.35369 -8.37109,1.59376 -20.91803,1.69445 -44.674562,3.39158 -63.332035,13.93359 l -2.296875,1.47265 c -1.563913,0.74888 -3.043593,1.49377 -4.488281,2.29883 -0.04706,0.006 -0.08856,0.0195 -0.125,0.043 -1.13702,0.73094 -11.371653,6.17219 -14.539063,9.70508 -3.16742,3.53289 -6.009765,13.72656 -6.009765,13.72656 l 0.04883,0.0176 c -1.489642,3.59932 -2.664157,7.29732 -2.886719,11.20898 0.705284,4.96133 2.023682,8.01242 5.568359,11.60157 3.002276,2.43287 5.474998,2.97449 9.392579,2.99023 l 2.25,-0.0684 c 2.505415,-0.0136 5.008757,-0.0339 7.513671,-0.0879 1.773731,-0.0399 3.54823,-0.0712 5.322266,-0.0937 5.441125,-0.0581 10.880347,-0.15536 16.320313,-0.28125 1.71785,-0.0399 3.434409,-0.077 5.152343,-0.11328 4.569856,-0.095 9.139859,-0.20064 13.708989,-0.32617 l 2.08398,-0.0586 c 1.35794,-0.0382 2.71634,-0.0769 4.07422,-0.11718 l 3.72656,-0.12891 c 1.96392,-0.0673 3.92755,-0.16421 5.88672,-0.31641 2.88192,-1.09334 2.88095,-1.09315 5.56641,-1.20703 l 3.13672,-0.11914 3.59765,-0.14257 c 1.99939,-0.0733 3.99887,-0.14607 5.99805,-0.22461 2.90795,-0.11647 5.81653,-0.23236 8.72461,-0.34571 26.43876,-1.02664 52.86139,-2.24521 79.27344,-3.82031 2.22915,-0.13329 4.4582,-0.26559 6.6875,-0.39648 3.56627,-0.20869 7.13344,-0.41955 10.69921,-0.63672 l 3.92579,-0.24024 3.73632,-0.2207 3.38868,-0.21289 c 1.75815,-0.10785 3.51452,-0.24288 5.26562,-0.4336 3.68237,-1.29183 3.68262,-1.29094 7.62109,-1.55664 l 2.37696,-0.18359 c 1.71226,-0.13848 3.42442,-0.27608 5.13672,-0.41406 2.8043,-0.22034 5.60819,-0.44054 8.41211,-0.66602 5.9584,-0.48216 11.91792,-0.96125 17.87695,-1.43554 7.05473,-0.56111 14.11002,-1.12168 21.16406,-1.69141 2.84013,-0.22983 5.67888,-0.45834 8.51953,-0.68164 1.79698,-0.14119 3.59394,-0.28296 5.39063,-0.42774 l 2.5039,-0.20312 c 2.67545,-0.20561 5.32968,-0.44723 7.99805,-0.74024 2.0376,-1.15149 2.03734,-1.15114 4.70117,-1.3789 l 3.47656,-0.36133 3.9336,-0.41406 c 2.144,-0.22039 4.28815,-0.44068 6.43164,-0.66602 5.33942,-0.56473 10.67915,-1.12405 16.01953,-1.67969 4.613,-0.47951 9.22569,-0.96005 13.83789,-1.44726 2.17209,-0.22993 4.34479,-0.4585 6.51758,-0.68164 l 2.10937,-0.2168 3.92383,-0.41406 c 2.02036,-0.20992 4.03928,-0.44417 6.04883,-0.74024 4.51728,-2.00427 4.51728,-2.00428 9.79297,-2.15429 l 3.58203,-0.40821 c 3.43586,-0.4164 6.86969,-0.8133 10.3125,-1.16796 13.34823,-1.08546 23.74161,0.87629 34.3125,9.73046 2.35014,4.48728 2.48101,8.02959 2,13 -2.08977,1.54436 -3.15103,2.24181 -4.31836,2.78516 -1.15273,0.16954 -129.16044,18.99667 -150.57226,21.1543 -8.66563,0.87322 -27.57621,2.83772 -49.49415,6.39258 -0.85538,0.10388 -1.71088,0.20675 -2.5664,0.31054 l -3.93555,0.49024 c -2.04257,0.25285 -3.57535,0.6517 -5.58538,1.25295 -0.48469,0.17083 -0.50904,0.16937 -1.28376,0.29392 -18.21346,3.35596 -37.37423,7.74081 -53.92383,13.51172 -2.66183,0.92819 -4.83207,1.76897 -6.72851,2.56055 -0.94363,0.36214 -1.88604,0.72753 -2.83399,1.07812 -11.60843,4.23148 -23.24506,8.2514 -34.26172,13.88868 -1.6474,0.84559 -3.30101,1.67921 -4.96093,2.5 -19.72809,9.72379 -37.58004,21.11405 -53.34766,36.53124 l -2.1875,2.25 c -8.649275,8.2253 -13.738803,18.58102 -17.8125,29.64844 l -1.1875,3.35156 c -4.386457,11.68318 -2.794321,26.15353 1.894531,37.41016 l 1.105469,2.58984 c 3.231215,7.77239 7.337667,14.31176 12.449219,20.9961 l 1.550781,2.0039 c 4.09669,5.49029 8.78795,9.28426 14.39453,13.21876 l 2.60547,1.78124 3.1875,2.1875 2.8125,1.8125 c 4.37524,3.07962 8.52441,5.31789 13.625,7 3.18222,0.98312 6.30974,1.97459 9.41406,3.1836 9.5246,3.71946 19.21654,5.726 29.22657,7.70312 1.91224,0.36705 3.82374,0.73796 5.73437,1.11328 6.8296,1.5263 13.48974,2.40274 20.47852,2.88672 l 3.83398,0.23828 c 11.34714,0.72276 22.65214,1.20645 34.02344,0.94532 l 2.66406,-0.0703 c 11.51505,-0.29043 23.00285,-0.76519 34.48242,-1.73632 l 2.95508,-0.26368 c 3.19255,-0.28309 6.39317,-0.51812 9.5625,-1 2.09757,-1.16763 2.09855,-1.16787 5.07031,-1.54101 2.00554,-0.29728 4.01097,-0.59531 6.01563,-0.89844 2.22119,-0.33616 4.44203,-0.66752 6.66406,-0.99805 2.20787,-0.32626 4.41639,-0.65391 6.62305,-0.98828 l 2.11133,-0.32031 c 3.70519,-0.55053 7.16889,-1.14536 10.74609,-2.25781 1.59327,-0.57261 3.19292,-1.12884 4.80859,-1.63477 l 1.80078,-0.54492 c 1.36573,-0.4185 2.73161,-0.83646 4.09766,-1.25391 4.00578,-1.20821 7.93916,-2.45426 11.78906,-4.10156 l 3.27344,-1.46094 2.37109,-1.02734 2.06641,-0.91016 c 6.31989,-2.77017 12.43367,-5.92965 18.44727,-9.30859 l 1.99023,-1.12891 c 12.03087,-6.80137 23.76366,-13.71158 34.49219,-22.47265 l 2.63281,-2.15235 3.00781,-2.37109 2.99219,-2.37891 c 0.0682,-0.0539 0.11425,-0.0992 0.18164,-0.15234 2.44228,-1.8849 6.24734,-4.95923 10.53906,-8.96484 6.49117,-6.05842 9.29369,-10.61033 10.48828,-12.55664 0.11101,-0.17099 0.24364,-0.273 0.35352,-0.45118 0.80944,-1.3768 1.62174,-2.75192 2.4375,-4.125 2.72832,-3.75144 4.83612,-7.53515 6.75,-11.75 2.5262,-6.33902 3.95084,-12.01945 1.32813,-18.54296 -2.52219,-4.49571 -5.04715,-7.09712 -10.07813,-8.70704 -5.43785,-0.57204 -8.75241,0.51797 -13.41406,3.05274 l -2.21094,1.25976 c -2.80639,1.53814 -5.60375,3.08679 -8.375,4.6875 -7.68184,4.68629 -15.94882,8.18126 -24.25,11.625 -2.66134,1.08669 -5.30617,2.16396 -7.90234,3.39844 -5.69348,2.732 -11.5674,4.46436 -17.625,6.1875 -2.94379,0.83525 -5.86597,1.66541 -8.75782,2.66797 -18.35801,4.92582 -18.35801,4.92589 -37.33984,6.74609 l -3.80469,0.37305 -3.5625,0.35352 c -1.92264,0.1837 -3.84356,0.39164 -5.75781,0.64843 -3.9272,1.23618 -3.92683,1.23589 -8.12109,1.13868 l -2.53516,-0.006 c -1.76172,0.002 -3.52345,0.003 -5.28516,0.004 -2.78505,-0.006 -5.57047,-0.0111 -8.35546,-0.006 -1.81572,0.004 -3.63155,0.005 -5.44727,0.004 l -2.59961,-0.002 c -2.89372,0.007 -5.76269,-0.0335 -8.65625,-0.13282 -2.18546,-1.09271 -2.18571,-1.09273 -7.66406,-1.5957 -7.84332,-0.70889 -15.63002,-1.67878 -23.41406,-2.875 l -3.35938,-0.5293 -3.2832,-0.5039 -3.08789,-0.4961 c -2.65016,-0.42255 -4.80484,-0.81084 -7.2168,-1.99023 -1.97388,-1.00928 -1.9751,-1.01025 -4.26172,-1.63281 l -2.48633,-0.52539 c -1.86616,-0.41353 -3.73339,-0.82215 -5.60156,-1.22657 -3.58521,-0.75269 -7.13007,-1.52008 -10.625,-2.625 -4.6638,-2.32713 -7.61891,-5.32941 -10,-10 -0.48065,-4.56622 -0.0972,-7.916 2,-12 10.38984,-8.73329 10.38984,-8.73329 24.1875,-12.125 3.9432,-1.12985 7.93202,-2.13922 11.75586,-3.63281 5.0597,-2.06906 10.09267,-3.14619 15.46484,-4.13672 6.36754,-1.13249 12.85311,-2.02956 19.07422,-3.82031 13.86134,-3.30568 13.86134,-3.3047 28.03711,-5.01953 3.0678,-0.39323 6.13425,-0.7914 9.20117,-1.19141 1.94854,-0.25672 3.89711,-0.51324 5.84571,-0.76953 l 2.78125,-0.35351 2.56054,-0.33399 c 1.36808,-0.17526 2.734,-0.37483 4.0918,-0.61719 5.27683,-1.6721 5.27629,-1.67231 10.90039,-2.04687 l 3.77539,-0.38281 c 14.51562,-1.48516 29.04682,-2.53233 43.60938,-3.45117 3.99417,-0.25041 7.98852,-0.50114 11.98242,-0.75586 2.55013,-0.16541 5.10026,-0.33078 7.65039,-0.4961 l 3.60351,-0.2207 3.29493,-0.21289 c 1.73026,-0.10819 3.46039,-0.24361 5.18359,-0.4336 2.08063,-1.19905 2.07979,-1.19907 5.02539,-1.2207 l 3.95508,-0.13672 c 2.30744,-0.0838 4.61419,-0.16528 6.92187,-0.24218 1.67406,-0.0557 3.34755,-0.11476 5.02149,-0.17383 3.53883,-0.12675 7.0782,-0.25263 10.61719,-0.375 8.38697,-0.28822 16.77375,-0.58849 25.16015,-0.89258 2.76513,-0.10043 5.52977,-0.20083 8.29492,-0.30078 12.81431,-0.463 25.62888,-0.92581 38.43946,-1.48438 1.77139,-0.079 3.54303,-0.15793 5.31445,-0.23633 11.95562,-0.49099 25.43216,0.16324 36.26953,-5.5 l 1.73047,-1 c 14.03436,-7.85829 23.47118,-20.99656 28.19336,-36.31054 l 0.61914,-2.06446 c 0.41889,-1.36299 0.83686,-2.72627 1.25391,-4.08984 0.39149,-1.32512 0.7859,-2.64937 1.18359,-3.97266 1.56904,-4.72858 2.23713,-8.78436 2.22461,-13.7207 l -0.0371,-2.3418 c -0.0134,-16.12216 -6.16616,-35.68954 -17.74219,-47.52734 l -1.44531,-1.41016 c -2.99831,-4.68484 -5.97128,-7.98138 -10.3125,-11.5 -2.611,-2.05272 -5.2108,-4.06024 -7.65234,-6.3125 -8.54566,-8.07817 -19.27075,-13.43621 -29.78516,-18.5 -3.21609,-1.48255 -6.33033,-2.81323 -8.92578,-5.2832 -1.54984,-2.81578 -1.70663,-5.1611 -1.76563,-8.34375 v -2.35742 c -0.0257,-1.68806 -0.0511,-3.37638 -0.0762,-5.06445 -0.0368,-4.52354 -0.0996,-9.04545 -0.18359,-13.56836 l -0.0527,-2.71485 c -0.13573,-7.25335 -0.41018,-14.46109 -0.97656,-21.69531 l -0.26953,-3.09766 c -0.27208,-3.20382 -0.59517,-6.3713 -1,-9.5625 -1.16951,-0.99193 -1.17024,-0.99291 -1.41797,-2.83593 l -0.41406,-2.39844 -0.47461,-2.66016 c -1.46771,-8.28278 -3.0551,-16.35908 -5.70898,-24.35156 l -0.98438,-2.75391 c -2.00561,-5.62481 -4.44023,-11.04049 -6.9375,-16.46093 l -1.0625,-2.28907 c -1.82286,-3.95866 -3.66347,-7.72636 -6.02344,-11.39843 -1.97618,-2.85102 -3.7843,-5.77244 -5.60156,-8.72657 -1.78906,-2.92967 -1.78906,-2.92967 -3.375,-5.125 h -2 c 0,-2 0,-2 -1.28516,-3.84765 l -1.71484,-2.15235 -1.68359,-2.18359 -1.75391,-2.25391 c -1.18425,-1.52335 -2.37186,-3.04409 -3.5625,-4.5625 -2.00573,-2.48252 -3.97544,-4.96641 -5.85937,-7.54296 -3.35183,-4.68841 -6.76349,-9.28973 -10.39063,-13.76954 -1.26106,-1.55358 -2.51253,-3.11504 -3.75,-4.6875 -2.06999,-3.13455 -3.84372,-5.8437 -6.5,-8.5 -2.54113,-2.39104 -2.54113,-2.39104 -4.3125,-5.125 -3.98429,-6.24258 -8.3334,-12.34067 -13.1875,-17.9375 -1.68113,-1.90437 -3.31053,-3.8239 -4.90234,-5.80468 -3.15281,-3.98186 -6.31251,-7.93723 -9.66016,-11.75782 -1.14665,-1.29094 -2.2925,-2.58258 -3.4375,-3.875 -4.87221,-5.72572 -10.01044,-11.09915 -15.35156,-16.38671 l -2.64844,-2.61329 c -5.75474,-5.79851 -11.65387,-11.34949 -18.25,-16.1875 -0.33706,-0.24493 -0.6648,-0.502467 -1,-0.749995 -3.78977,-3.566524 -5.7771,-6.12218 -10.30078,-9.447266 -2.77483,-2.039619 -4.66736,-3.230299 -5.78125,-3.882812 -0.60971,-0.417468 -1.22679,-0.82416 -1.83203,-1.248047 -7.35184,-5.181295 -14.73388,-10.242707 -22.42188,-14.914062 l -1.97656,-1.195313 c -4.38526,-2.663076 -8.81208,-5.12674 -13.41797,-7.388672 -1.34334,-0.656325 -2.68354,-1.317117 -4.02148,-1.984375 -1.9978,-1.001465 -1.99805,-1.001953 -9.99805,-5.001953 -1.3347,-0.663933 -2.66804,-1.330599 -4,-2 -4.79578,-2.510262 -9.51865,-4.643674 -14.64844,-6.386719 -3.43239,-1.138111 -6.83673,-2.297193 -10.22265,-3.568359 l -0.004,0.01172 c 0,0 -13.89721,-6.776711 -63.97461,-12.519532 -49.77697,-5.708368 -69.38086,-2.742187 -69.38086,-2.742187 l 0.002,-0.01367 -1.24414,0.169922 c -17.15047,2.340424 -33.899029,6.559487 -50.08984,12.736328 -3.456669,1.319819 -6.869779,2.346242 -10.4375,3.3125 0,-8.092857 -4.796995,-19.22096 -9,-26 -2.327382,-1.553297 -3.88902,-1.990497 -6.691406,-2.230469 l -2.871094,0.04297 c -1.813535,0.0123 -3.627818,0.0687 -5.4375,0.1875 -7.417796,2.472599 -13.945104,6.10069 -18.738281,12.335937 -1.865292,2.460108 -4.025592,4.542609 -6.261719,6.664063 -1.682561,1.313219 -3.349971,2.646131 -5,4 -6.1684558,8.220138 -14.9523935,12.492859 -25,14 0.759834,-2.320536 0.759834,-2.320536 2,-5 2.713568,-3.295046 4.9064597,-6.50119 6.9375,-10.25 1.9008871,-3.579843 3.8451965,-7.116842 5.875,-10.625 0.34892462,-0.593962 0.56978487,-1.115613 0.8515625,-1.662109 l 0.0917969,-0.03711 c 0,0 2.08099682,-2.340406 4.43554692,-7.853515 0.332197,-0.777795 0.550935,-1.456779 0.6855468,-2.054688 C 6.3496403,12.805059 7.1864957,10.7399 6.9433581,8.2675781 5.7808263,4.5102048 3.0906563,2.2794438 -1.25e-6,0 -3.5301046,-2.0091169 -7.4508148,-2.9148459 -11.501954,-2.9746094 Z"
     transform="translate(249.19922,20.671875)"
     sodipodi:nodetypes="sccccccccccccccccccccscccccccccccsccccccccccccccccccccccccccccccccccccccccccccccccccccccccccccccccccsscccccccccccscccccccccccccccccccccscccccccccccccccccccscccccscccccccccccccccccccccccccccccccccccccccccccccccsccccccccccccccccccccccccccccccccccccccccccccccccccccccccsccsccccccccccccccccccccccccccccccccccccccccccccccccccccccscccccccccccsccccccccccccccccccscccs" />
</svg>
