<svg width="250" height="250" xmlns="http://www.w3.org/2000/svg">
	<path fill="#cf9b7a" d="m 68.214289,26.137716 c -3.420966,-0.05047 -7.173847,2.042751 -9.29165,4.327236 l -0.475001,0.543172 c -1.490745,1.638534 -2.340097,3.239095 -3.079809,5.327265 -0.174561,0.506935 -0.355636,1.011861 -0.551966,1.510767 -0.29843,0.743841 -0.561098,1.484679 -0.749888,2.26395 l -0.145138,0.675117 -0.148439,0.683914 -0.109953,0.516783 c -0.9307,0.05575 -1.861254,0.113235 -2.791729,0.172627 -0.382993,0.02475 -0.766,0.0493 -1.149018,0.07367 -1.857277,0.110963 -3.730669,0.146485 -5.541676,0.603646 C 43.679747,42.98394 43.177,43.126758 42.666507,43.234446 34.534623,44.818353 27.48278,49.139324 22.378366,55.667483 L 21.854984,56.3415 c -2.884776,3.57734 -7.176281,9.297101 -6.835834,14.098285 0.37892,2.54342 1.855298,4.145143 3.790112,5.714303 l 0.529977,0.418927 c 0.127661,0.101111 0.253036,0.185517 0.37879,0.283132 l -0.0154,0.005 c 0,0 2.165877,1.74532 3.103449,2.359612 0.937568,0.614267 5.851939,3.879649 7.080478,4.52625 0.09208,0.04846 0.187256,0.08361 0.284233,0.108855 0.06782,0.04042 0.115635,0.086 0.189671,0.125898 l 0.724044,0.322165 0.803764,0.361197 0.838948,0.369994 c 1.066276,0.477323 2.132806,0.953923 3.201857,1.425003 l 0.737241,0.316667 0.680066,0.293577 c 1.080666,0.460048 1.762049,1.009425 2.523441,1.923093 0.37027,0.566297 0.744776,1.129872 1.125928,1.688892 l 0.02528,0.0082 c 0.422608,0.604387 1.006672,1.418607 1.52671,2.065484 0.02224,0.02767 0.04475,0.05218 0.06762,0.07477 0.449203,0.673761 0.954432,1.300816 1.617421,1.827432 0.985187,0.527778 0.985187,0.527778 1.688892,0.387037 0.720987,-0.453338 0.720987,-0.453343 1.619621,-0.820252 0.351675,-0.148355 0.703162,-0.297158 1.054457,-0.446416 2.088247,-0.937788 4.14172,-1.787909 6.333344,-2.445375 0.709636,-0.204882 1.408418,-0.421021 2.111115,-0.650927 1.401797,-0.774244 2.695246,-1.092834 4.256314,-1.391464 0.634263,-0.116221 1.268332,-0.233506 1.902204,-0.351852 l 0.922512,-0.175378 c 0.550202,-0.101234 1.098726,-0.212107 1.64491,-0.333162 2.8728,-0.958524 5.8273,-1.245112 8.8348,-1.529457 l 0.57726,-0.05388 c 3.53072,-0.336024 7.02556,-0.494901 10.57316,-0.387037 0.11906,0.492559 0.2384,0.985049 0.359,1.477231 l 0.15119,0.616291 c 0.24172,1.00359 0.48031,2.004467 0.80761,2.98415 0.9281,2.974071 0.9279,2.973812 1.65536,6.00568 l 0.25894,1.083047 0.25234,1.034665 c 0.13808,0.576033 0.28768,1.149633 0.45631,1.717473 0.55312,0.82969 0.7259,1.45329 0.91262,2.41954 l 0.10775,0.5888 c 0.13099,0.68581 0.26036,1.37172 0.38704,2.05834 -0.95903,0.11509 -1.85933,0.24642 -2.78183,0.53768 -0.47902,0.16747 -0.96034,0.33062 -1.4481,0.4706 l -0.62344,0.16933 c -0.43456,0.11808 -0.86925,0.23573 -1.30405,0.35295 -1.24775,0.33351 -2.47974,0.67323 -3.68785,1.13252 -0.5852,0.22671 -1.16964,0.44604 -1.76366,0.64873 -4.61112,1.5254 -8.95812,3.3222 -12.88,6.24098 -0.374935,0.28784 -0.750249,0.57518 -1.125932,0.86204 -0.5763,0.41435 -1.080499,0.82303 -1.583884,1.24193 -0.04421,0.0238 -0.08819,0.0479 -0.132497,0.0764 -1.81048,1.16388 -2.820866,3.22495 -2.820866,3.22495 l 0.0093,0.007 c -0.259442,0.49066 -0.515295,0.98338 -0.757584,1.48272 l -0.344154,0.7224 c -0.855153,1.68851 -1.419009,3.19828 -1.516264,5.08757 -0.06625,3.30908 0.188677,6.37603 2.519044,8.93375 l 0.686112,0.61574 c 0.981849,1.04152 1.997314,1.58362 3.377784,1.97038 3.481931,0.27977 5.796001,-0.46258 8.585201,-2.51575 2.29976,-1.70364 4.66061,-3.02622 7.22836,-4.2805 0.35855,-0.1739 0.71701,-0.34796 1.07535,-0.52229 1.6862,-0.84834 3.37939,-1.38501 5.20577,-1.84887 0.75034,-0.19017 1.4925,-0.3836 2.22602,-0.63169 3.43075,-1.2643 7.12276,-1.58929 10.74304,-1.86921 0.644051,-0.0493 1.288021,-0.10019 1.931891,-0.15174 0.41287,-0.0338 0.82575,-0.0675 1.23863,-0.10115 0.67328,-0.0522 1.34615,-0.11107 2.01766,-0.18253 l 0.84444,-0.28148 c 3.00966,0.27485 5.78724,1.01914 8.33781,2.64769 l 0.66962,0.44861 c 1.54019,1.00266 2.75821,2.10907 3.86268,3.5867 0.53305,0.94222 0.51695,1.54905 0.35955,2.6059 -0.56011,0.31994 -0.56011,0.31991 -1.23809,0.36066 l -0.83784,0.0616 -0.91042,0.0704 -1.9088,0.14074 -0.91042,0.0704 c -0.50514,0.0371 -1.00991,0.0817 -1.51297,0.14074 -1.13976,0.38127 -1.13976,0.38104 -2.35631,0.44861 -5.88804,0.47696 -12.575081,0.95467 -17.826821,3.92206 l -0.64653,0.41452 c -0.44022,0.2108 -0.85672,0.42047 -1.26337,0.64708 -0.0133,0.002 -0.0249,0.005 -0.0352,0.0121 -0.32005,0.20574 -3.20091,1.73736 -4.09248,2.7318 -0.89157,0.99445 -1.69164,3.86378 -1.69164,3.86378 l 0.0137,0.005 c -0.41931,1.01315 -0.74992,2.05407 -0.81256,3.15513 0.19852,1.39652 0.56963,2.25535 1.56739,3.26563 0.84508,0.68481 1.54111,0.83727 2.64384,0.8417 l 0.63334,-0.0193 c 0.70522,-0.004 1.40987,-0.01 2.11496,-0.0247 0.49927,-0.0112 0.99876,-0.02 1.49812,-0.0264 1.53158,-0.0164 3.06262,-0.0437 4.59387,-0.0792 0.48355,-0.0112 0.96673,-0.0217 1.45029,-0.0319 1.28634,-0.0267 2.572711,-0.0565 3.858841,-0.0918 l 0.5866,-0.0165 c 0.38224,-0.0108 0.7646,-0.0216 1.14682,-0.033 l 1.04896,-0.0363 c 0.55281,-0.0189 1.10553,-0.0462 1.657,-0.0891 0.81121,-0.30775 0.81094,-0.3077 1.56685,-0.33975 l 0.88293,-0.0335 1.01267,-0.0401 c 0.56279,-0.0206 1.12561,-0.0411 1.68835,-0.0632 0.81853,-0.0328 1.63724,-0.0654 2.45582,-0.0973 7.44203,-0.28898 14.87952,-0.63199 22.31404,-1.07535 0.62746,-0.0375 1.2549,-0.0748 1.88241,-0.1116 1.00384,-0.0588 2.00793,-0.1181 3.01163,-0.17923 l 1.10504,-0.0676 1.05171,-0.0621 0.95385,-0.0599 c 0.49489,-0.0304 0.98928,-0.0684 1.48218,-0.12205 1.03652,-0.36363 1.03659,-0.36338 2.1452,-0.43817 l 0.66907,-0.0517 c 0.48197,-0.039 0.96391,-0.0777 1.44589,-0.11655 0.78936,-0.062 1.57861,-0.12401 2.36786,-0.18748 1.67718,-0.13572 3.35468,-0.27057 5.03204,-0.40408 1.98578,-0.15794 3.97172,-0.31573 5.9573,-0.4761 0.79945,-0.0647 1.5985,-0.12901 2.39809,-0.19187 0.50582,-0.0397 1.01163,-0.0796 1.51737,-0.1204 l 0.7048,-0.0572 c 0.75309,-0.0579 1.50021,-0.12589 2.25131,-0.20837 0.57355,-0.32412 0.57347,-0.32402 1.32329,-0.38813 l 0.97859,-0.10171 1.10724,-0.11655 c 0.6035,-0.062 1.20704,-0.12404 1.81039,-0.18747 1.50295,-0.15896 3.00599,-0.3164 4.50921,-0.47281 1.29848,-0.13497 2.59686,-0.27023 3.89512,-0.40737 0.6114,-0.0647 1.22298,-0.12906 1.83458,-0.19187 l 0.59375,-0.061 1.10448,-0.11655 c 0.5687,-0.0591 1.13699,-0.12502 1.70264,-0.20836 1.27153,-0.56417 1.27153,-0.56417 2.75654,-0.6064 l 1.00828,-0.1149 c 0.96713,-0.11721 1.93369,-0.22893 2.90278,-0.32876 3.75729,-0.30554 6.68284,0.24666 9.65835,2.73895 0.66153,1.26309 0.69836,2.26018 0.56297,3.65926 -0.58824,0.43471 -0.88696,0.63103 -1.21554,0.78398 -0.32448,0.0477 -36.35634,5.34722 -42.38338,5.95455 -2.43922,0.2458 -7.7622,0.79877 -13.93171,1.7994 -0.24077,0.0292 -0.48158,0.0582 -0.72239,0.0874 l -1.10779,0.13799 c -0.57495,0.0712 -1.0064,0.18344 -1.57218,0.35268 -0.13643,0.0481 -0.14329,0.0477 -0.36136,0.0827 -5.12676,0.94464 -10.52017,2.1789 -15.17858,3.8033 -0.74926,0.26127 -1.36014,0.49794 -1.89396,0.72075 -0.26561,0.10194 -0.53088,0.20479 -0.79771,0.30347 -3.26757,1.19109 -6.54307,2.32262 -9.64406,3.90942 -0.46371,0.23801 -0.92918,0.47266 -1.39641,0.7037 -5.5531,2.73707 -10.57811,5.94323 -15.01641,10.28289 l -0.615741,0.63333 c -2.43461,2.31527 -3.86722,5.23022 -5.0139,8.3455 l -0.33426,0.9434 c -1.2347,3.28861 -0.78655,7.36175 0.53328,10.53029 l 0.31117,0.72899 c 0.90953,2.18779 2.06542,4.02851 3.50423,5.91003 l 0.43652,0.56406 c 1.153141,1.54542 2.473651,2.61335 4.051801,3.72084 l 0.73339,0.50139 0.89722,0.61574 0.79167,0.51019 c 1.23155,0.86685 2.39947,1.49689 3.83519,1.97037 0.89574,0.27673 1.77608,0.55581 2.64989,0.89612 2.68101,1.04697 5.40911,1.61177 8.22675,2.16829 0.53827,0.10332 1.07632,0.20773 1.61413,0.31337 1.92241,0.42963 3.79711,0.67633 5.76433,0.81256 l 1.0792,0.0671 c 3.19401,0.20345 6.37616,0.3396 9.57698,0.26609 l 0.74989,-0.0198 c 3.24127,-0.0817 6.47488,-0.21539 9.70617,-0.48875 l 0.83181,-0.0742 c 0.89864,-0.0797 1.79956,-0.14584 2.69167,-0.28148 0.59043,-0.32867 0.5907,-0.32873 1.4272,-0.43377 0.56452,-0.0837 1.12901,-0.16757 1.69329,-0.25289 0.62522,-0.0946 1.25035,-0.1879 1.87581,-0.28093 0.62148,-0.0918 1.24314,-0.18407 1.86427,-0.27819 l 0.5943,-0.0902 c 1.04295,-0.15496 2.01792,-0.3224 3.02483,-0.63553 0.44848,-0.16118 0.89875,-0.31775 1.35353,-0.46016 l 0.50689,-0.15338 c 0.38443,-0.11781 0.7689,-0.23545 1.15342,-0.35296 1.12755,-0.34009 2.23473,-0.69083 3.31841,-1.15451 l 0.92141,-0.41123 0.66742,-0.28918 0.58166,-0.25619 c 1.77893,-0.77976 3.49985,-1.66909 5.19257,-2.6202 l 0.56021,-0.31777 c 3.38648,-1.91446 6.68905,-3.85956 9.70893,-6.32565 l 0.74109,-0.60584 0.84665,-0.66742 0.84224,-0.66962 c 0.0192,-0.0152 0.0322,-0.0279 0.0511,-0.0429 0.68746,-0.53057 1.75852,-1.39594 2.96656,-2.52344 1.82714,-1.70534 2.616,-2.98662 2.95226,-3.53447 0.0312,-0.0481 0.0686,-0.0769 0.0995,-0.127 0.22784,-0.38755 0.45649,-0.77462 0.68611,-1.16111 0.76797,-1.05597 1.36128,-2.12101 1.9,-3.30742 0.71108,-1.78432 1.11209,-3.38326 0.37385,-5.21951 -0.70995,-1.26546 -1.42068,-1.99771 -2.83681,-2.45087 -1.53066,-0.16102 -2.46365,0.1458 -3.77582,0.85929 l -0.62234,0.3546 c -0.78995,0.43296 -1.57735,0.86888 -2.35741,1.31945 -2.1623,1.3191 -4.48931,2.30287 -6.82594,3.27222 -0.74912,0.30589 -1.49359,0.60912 -2.22436,0.9566 -1.60262,0.76901 -3.25602,1.25664 -4.96112,1.74167 -0.82863,0.23511 -1.65117,0.46879 -2.46517,0.75099 -5.16745,1.38653 -5.16745,1.38655 -10.51049,1.8989 l -1.07095,0.10501 -1.00278,0.0995 c -0.54119,0.0517 -1.0819,0.11024 -1.62072,0.18252 -1.10544,0.34796 -1.10534,0.34788 -2.28594,0.32052 l -0.71361,-0.002 c -0.49589,5.6e-4 -0.99178,8.4e-4 -1.48767,0.001 -0.78394,-0.002 -1.56799,-0.003 -2.35191,-0.002 -0.5111,0.001 -1.02222,0.001 -1.53331,0.001 l -0.73175,-5.6e-4 c -0.81453,0.002 -1.62209,-0.009 -2.43657,-0.0374 -0.61517,-0.30758 -0.61524,-0.30758 -2.1573,-0.44916 -2.20775,-0.19954 -4.39957,-0.47254 -6.59063,-0.80926 l -0.94561,-0.14899 -0.92416,-0.14184 -0.86919,-0.13964 c -0.74597,-0.11894 -1.35247,-0.22824 -2.03139,-0.56022 -0.55562,-0.28409 -0.55596,-0.28436 -1.1996,-0.4596 l -0.69986,-0.14789 c -0.52529,-0.1164 -1.05088,-0.23142 -1.57674,-0.34526 -1.00917,-0.21187 -2.00698,-0.42787 -2.99074,-0.73889 -1.31278,-0.65504 -2.14459,-1.50013 -2.81482,-2.81482 -0.1353,-1.28531 -0.0274,-2.22821 0.56296,-3.37778 2.92455,-2.45826 2.92455,-2.45826 6.80835,-3.41297 1.10994,-0.31803 2.23272,-0.60215 3.30906,-1.02257 1.42421,-0.5824 2.8409,-0.8856 4.35307,-1.16441 1.79235,-0.31878 3.61792,-0.57128 5.36905,-1.07535 3.90172,-0.93049 3.90172,-0.93021 7.89194,-1.4129 0.86353,-0.11069 1.72668,-0.22277 2.58997,-0.33537 0.54847,-0.0723 1.09696,-0.14446 1.64546,-0.2166 l 0.78287,-0.0995 0.72074,-0.094 c 0.38509,-0.0493 0.76958,-0.10551 1.15177,-0.17373 1.48533,-0.47067 1.48518,-0.47073 3.06827,-0.57616 l 1.0627,-0.10775 c 4.08588,-0.41805 8.17616,-0.71281 12.27525,-0.97145 1.12429,-0.0705 2.24863,-0.14106 3.37284,-0.21276 0.71781,-0.0465 1.43563,-0.0931 2.15345,-0.13964 l 1.01432,-0.0621 0.92746,-0.0599 c 0.48704,-0.0305 0.97404,-0.0686 1.45909,-0.12205 0.58566,-0.33751 0.58542,-0.33751 1.41456,-0.3436 l 1.11328,-0.0385 c 0.6495,-0.0236 1.29881,-0.0465 1.94838,-0.0682 0.47122,-0.0157 0.94228,-0.0323 1.41346,-0.0489 0.99612,-0.0357 1.99238,-0.0711 2.98855,-0.10555 2.36078,-0.0811 4.7215,-0.16565 7.08212,-0.25125 0.77834,-0.0283 1.55654,-0.0565 2.33487,-0.0847 3.607,-0.13033 7.21407,-0.2606 10.82002,-0.41783 0.49861,-0.0222 0.9973,-0.0444 1.49592,-0.0665 3.36529,-0.1382 7.1587,0.046 10.20922,-1.54815 l 0.4871,-0.28148 c 3.95041,-2.21197 6.60671,-5.91015 7.93592,-10.22076 l 0.17427,-0.58111 c 0.11791,-0.38366 0.23557,-0.7674 0.35296,-1.15122 0.11019,-0.373 0.22121,-0.74575 0.33316,-1.11823 0.44165,-1.33101 0.62971,-2.47264 0.62618,-3.86213 l -0.0104,-0.65917 c -0.004,-4.5381 -1.73566,-10.04597 -4.99411,-13.37809 l -0.40682,-0.39694 c -0.84397,-1.3187 -1.68081,-2.24661 -2.90279,-3.23704 -0.73495,-0.5778 -1.46674,-1.14288 -2.15399,-1.77685 -2.40545,-2.27386 -5.42437,-3.78206 -8.38399,-5.20742 -0.90527,-0.41731 -1.78187,-0.79187 -2.51244,-1.48713 -0.43626,-0.79259 -0.48039,-1.45275 -0.497,-2.34861 v -0.66357 c -0.007,-0.47516 -0.0144,-0.95039 -0.0214,-1.42555 -0.0104,-1.2733 -0.028,-2.54613 -0.0517,-3.81925 l -0.0148,-0.76418 c -0.0382,-2.04169 -0.11545,-4.07054 -0.27488,-6.10684 l -0.0759,-0.87194 c -0.0766,-0.90181 -0.16753,-1.7934 -0.28148,-2.69167 -0.3292,-0.27921 -0.3294,-0.27948 -0.39913,-0.79826 l -0.11655,-0.67512 -0.1336,-0.74879 c -0.41313,-2.33145 -0.85995,-4.60478 -1.60697,-6.85452 l -0.27709,-0.77517 c -0.56454,-1.58329 -1.24984,-3.1077 -1.95278,-4.633458 l -0.29907,-0.644332 c -0.51311,-1.114291 -1.0312,-2.17483 -1.69549,-3.208452 -0.55626,-0.802511 -1.06522,-1.624838 -1.57674,-2.456372 -0.50359,-0.824649 -0.50359,-0.824649 -0.95,-1.442595 h -0.56297 c 0,-0.562964 0,-0.562964 -0.36175,-1.083044 l -0.48269,-0.605848 -0.4739,-0.614641 -0.4937,-0.634435 c -0.33334,-0.428795 -0.66763,-0.856856 -1.00278,-1.284261 -0.56457,-0.698785 -1.11901,-1.397955 -1.6493,-2.123207 -0.94348,-1.319703 -1.9038,-2.614892 -2.92478,-3.875877 -0.35496,-0.437305 -0.70723,-0.876828 -1.05556,-1.319447 -0.58266,-0.882319 -1.08193,-1.644896 -1.82963,-2.392597 -0.71528,-0.673034 -0.71528,-0.673034 -1.21389,-1.442595 -1.1215,-1.757173 -2.3457,-3.473676 -3.71204,-5.049082 -0.47321,-0.536046 -0.93186,-1.076359 -1.37992,-1.633913 -0.88746,-1.120822 -1.77686,-2.234187 -2.71916,-3.309614 -0.32276,-0.363377 -0.6453,-0.72695 -0.9676,-1.090743 -1.37144,-1.611687 -2.81776,-3.12421 -4.32118,-4.612563 l -0.74549,-0.735594 c -1.61986,-1.632176 -3.28036,-3.194677 -5.13705,-4.556489 -0.0949,-0.06894 -0.18713,-0.141436 -0.28148,-0.211112 -1.06675,-1.003911 -1.62615,-1.723283 -2.89948,-2.659236 -0.78107,-0.574113 -1.31378,-0.909268 -1.62732,-1.092941 -0.17162,-0.11751 -0.34532,-0.231986 -0.51569,-0.3513 -2.06941,-1.458443 -4.14732,-2.883139 -6.31135,-4.198041 l -0.55637,-0.336459 c -1.23437,-0.749608 -2.48044,-1.443085 -3.77691,-2.079778 -0.37813,-0.184744 -0.75537,-0.370745 -1.13198,-0.558566 -0.56234,-0.281894 -0.56241,-0.282031 -2.81427,-1.407959 -0.37569,-0.186885 -0.751,-0.37454 -1.12592,-0.562964 -1.34993,-0.706594 -2.67933,-1.307111 -4.12328,-1.797746 -0.96615,-0.320358 -1.92441,-0.646619 -2.87749,-1.004429 l -10e-4,0.0033 c 0,0 -3.91182,-1.907522 -18.0077,-3.524022 -14.01132,-1.606803 -19.52946,-0.771877 -19.52946,-0.771877 l 5.6e-4,-0.0038 -0.3502,0.04783 c -4.82755,0.658787 -9.541971,1.846377 -14.099391,3.585046 -0.97299,0.371505 -1.93372,0.660425 -2.93797,0.932409 0,-2.277993 -1.35027,-5.410353 -2.53333,-7.318531 -0.65512,-0.437225 -1.09469,-0.560289 -1.88352,-0.627837 l -0.80816,0.0121 c -0.51047,0.0035 -1.02116,0.01934 -1.53055,0.05278 -2.08798,0.695992 -3.9253,1.717234 -5.27449,3.472343 -0.52505,0.692476 -1.13313,1.278663 -1.76256,1.875814 -0.47361,0.369647 -0.94296,0.744838 -1.40741,1.125928 -1.73631,2.31382 -4.20883,3.516514 -7.03705,3.940747 0.21388,-0.653189 0.21388,-0.653189 0.56296,-1.40741 0.76382,-0.927496 1.38108,-1.829967 1.95278,-2.88519 0.53507,-1.007661 1.08236,-2.003262 1.65371,-2.990746 0.0982,-0.167189 0.16038,-0.314025 0.2397,-0.467853 l 0.0258,-0.01045 c 0,0 0.58576,-0.658782 1.24852,-2.210623 0.0935,-0.218935 0.15508,-0.410057 0.19297,-0.578357 0.18916,-0.574395 0.42472,-1.1557 0.35628,-1.851614 -0.32723,-1.057633 -1.08447,-1.685551 -1.95443,-2.327174 -0.99366,-0.56553 -2.09727,-0.820476 -3.23759,-0.837299 z" />
</svg>
