<?xml version="1.0" encoding="UTF-8" standalone="no"?>
<svg
   version="1.1"
   width="699"
   height="707"
   id="svg6"
   sodipodi:docname="scorpio.svg"
   inkscape:version="1.4 (86a8ad7, 2024-10-11)"
   xmlns:inkscape="http://www.inkscape.org/namespaces/inkscape"
   xmlns:sodipodi="http://sodipodi.sourceforge.net/DTD/sodipodi-0.dtd"
   xmlns="http://www.w3.org/2000/svg"
   xmlns:svg="http://www.w3.org/2000/svg">
  <defs
     id="defs6" />
  <sodipodi:namedview
     id="namedview6"
     pagecolor="#ffffff"
     bordercolor="#000000"
     borderopacity="0.25"
     inkscape:showpageshadow="2"
     inkscape:pageopacity="0.0"
     inkscape:pagecheckerboard="0"
     inkscape:deskcolor="#d1d1d1"
     inkscape:zoom="1.4142136"
     inkscape:cx="261.98306"
     inkscape:cy="357.44248"
     inkscape:window-width="1920"
     inkscape:window-height="1007"
     inkscape:window-x="1911"
     inkscape:window-y="-9"
     inkscape:window-maximized="1"
     inkscape:current-layer="svg6" />
  <path
     id="path1"
     style="fill:#a5b79c;fill-opacity:1"
     d="M -9.703125 -0.84375 C -13.004279 -0.7456848 -16.13355 0.00855043 -18.375 2.25 L -17.5 5.3125 C -17.12639 6.6253964 -16.751362 7.9378898 -16.375 9.25 C -9.3961653 32.803567 -6.7056657 62.158366 -15.394531 85.710938 C -15.954277 87.16048 -16.506423 88.612374 -17.033203 90.074219 C -17.525309 91.442096 -18.023887 92.80763 -18.53125 94.169922 L -19.3125 96.25 C -20.203799 98.738358 -21.14223 100.88694 -22.375 103.25 C -24.446692 104.29241 -24.446692 104.29241 -26.375 104.25 C -26.31765 101.75747 -26.35406 99.396566 -26.707031 96.925781 L -27.1875 94.5625 C -27.680889 92.053384 -28.262513 89.610054 -29.029297 87.169922 C -30.921078 81.207925 -32.215103 75.270788 -33.318359 69.115234 C -34.537902 62.117291 -35.49292 55.000608 -37.472656 48.167969 C -37.987915 46.501741 -38.473647 44.824097 -38.867188 43.125 C -39.150666 41.736503 -39.451541 40.351529 -39.761719 38.96875 L -40.375 36.25 C -42.24005 27.540124 -43.874703 18.003866 -51.375 12.25 C -53.847656 11.847656 -53.847656 11.847656 -56.375 12.25 C -61.393584 15.120478 -64.651078 19.256179 -67.1875 24.375 C -67.916069 26.000268 -68.645147 27.625308 -69.375 29.25 C -81.851053 47.964079 -78.740414 78.17722 -76.134766 99.332031 L -75.625 103.25 C -74.719813 110.29799 -73.612965 116.93566 -71.257812 123.65625 C -70.094583 126.93071 -69.109647 129.86592 -68.914062 133.34375 L -69 136.75 C -69.03642 139.98445 -69.05571 142.49168 -70.3125 145.47656 C -75.610923 154.32025 -79.328726 165.94976 -78.375 176.25 C -76.840173 183.86274 -72.908736 189.45979 -66.558594 193.78125 C -65.018029 194.81748 -63.512439 195.90664 -62.035156 197.03125 L -59.6875 198.875 C -58.246096 199.99499 -56.808136 201.11945 -55.375 202.25 C -52.744631 204.4619 -50.698026 206.10643 -47.5625 207.5 L -45.375 208.25 C -45.549534 212.61334 -46.021075 215.31883 -49.125 218.375 C -50.208874 219.33272 -51.29222 220.29104 -52.375 221.25 C -54.254359 223.6043 -54.876782 224.21474 -56.384766 225.42578 C -62.1418 227.92701 -64.285026 224.40747 -64.375 224.25391 L -64.375 224.25 L -64.378906 224.24609 C -64.380006 224.24409 -64.392578 224.22656 -64.392578 224.22656 L -64.400391 224.22852 L -67.125 221.9375 C -69.203469 220.27765 -70.722329 218.829 -72.4375 216.75 C -74.375 214.25 -74.375 214.25 -76.5625 211.9375 L -79.375 209.25 C -80.84079 207.8195 -82.321118 206.4038 -83.8125 205 C -87.226551 201.98927 -89.616896 200.02342 -94.375 200.25 C -97.375 202.25 -97.375 202.25 -98.621094 204.45703 C -101.74789 211.29498 -104.42376 216.74987 -111.375 220.25 C -117.83168 221.09325 -124.40409 220.92936 -130.39844 218.23828 L -132.375 217.25 C -136.40517 215.38015 -140.74964 213.81223 -143.98438 210.70312 C -146.55823 208.01358 -149.75912 206.29753 -153.5 206.1875 C -156.49301 207.88354 -156.49301 207.88354 -159.375 213.25 C -162.14587 223.73974 -156.93382 237.60622 -151.9375 246.93359 C -148.80049 252.07579 -147.51867 255.14864 -148.375 261.25 L -151.375 263.25 C -152.93288 264.82044 -154.38393 266.25655 -156.17188 267.56641 L -158.125 268.8125 C -161.68428 271.13471 -165.27573 272.17567 -169.375 273.25 C -169.4733 270.67561 -169.57537 268.10143 -169.68164 265.52734 L -169.8125 262.375 L -169.93164 259.24609 L -170.05859 256.25781 C -170.12579 254.58656 -170.22277 252.91566 -170.375 251.25 C -171.65519 247.5851 -171.65533 247.58484 -171.89453 243.66406 C -172.00601 242.09119 -172.12228 240.51952 -172.24219 238.94727 C -172.43645 236.40283 -172.6251 233.85745 -172.8125 231.3125 C -174.04614 214.39513 -174.42794 201.49697 -185.6875 188.125 L -187.80078 185.74219 C -189.75503 182.64836 -189.90784 180.84542 -189.375 177.25 C -186.375 175.25 -186.375 175.25 -184.94531 173.69922 C -183.44096 171.86554 -181.91985 170.04971 -180.375 168.25 C -164.35641 152.23141 -154.11951 134.32016 -149.25781 112.21484 C -148.9689 110.89205 -148.67533 109.57025 -148.375 108.25 C -145.97209 99.623836 -145.96988 91.162591 -146.375 82.25 C -147.8697 77.765897 -151.03491 73.921878 -154.94922 71.255859 C -155.01017 71.184779 -155.06824 71.114122 -155.13086 71.042969 C -157.3423 68.529967 -160.10389 66.657788 -161.31445 65.896484 L -162.0625 65.375 L -165.375 63.25 C -167.01223 61.880681 -168.68175 60.549411 -170.375 59.25 C -189.99073 49.326747 -204.85086 48.971728 -225.39453 55.152344 C -229.79819 56.774138 -232.69592 57.973335 -234.9375 62.1875 C -235.94021 66.638798 -235.94021 66.638798 -231.375 78.25 C -225.56238 92.642126 -224.13485 106.18254 -224.12109 121.56055 L -224.125 123.875 C -224.133 132.88122 -224.2468 141.6158 -226.02344 150.48828 L -226.75 153.5625 C -227.70592 157.74858 -227.7036 158.8024 -231.375 161.25 L -231.74219 158.54688 L -232.25 155 C -232.56626 152.74099 -232.93701 150.48859 -233.375 148.25 C -234.58171 145.95095 -235.42265 144.04955 -236.0293 141.50391 L -236.59375 138.38281 L -237.23047 134.94922 C -237.65879 132.57397 -238.08847 130.19897 -238.51953 127.82422 L -239.15625 124.38281 C -239.52633 122.33169 -239.93149 120.28651 -240.375 118.25 C -241.40488 115.16771 -242.38719 112.19736 -243.08984 109.02148 L -243.74219 105.55859 C -244.24851 102.93553 -244.75246 100.31222 -245.25 97.6875 C -247.4827 85.821097 -249.20871 71.377364 -256.375 61.25 C -259.37594 58.640489 -261.22499 57.376357 -265.18359 56.941406 C -275.61037 57.949626 -288.87051 69.773284 -295.25 77.5 L -297.375 80.25 C -301.92074 84.795741 -306.12802 89.033431 -309.28906 94.652344 L -311 98.1875 L -312.72656 101.71484 L -314.375 105.25 C -316.11075 108.85747 -317.31635 111.64462 -317.70312 115.63672 L -317.625 118.9375 C -317.49627 128.06681 -314.31133 135.6087 -309.4375 143.3125 C -307.57598 145.96375 -305.94699 148.64357 -304.3125 151.4375 C -302.94866 153.79257 -301.73139 155.88091 -299.83984 157.83984 C -298.33003 159.21331 -298.33003 159.21331 -297.16406 160.89844 C -295.20078 163.81042 -293.27669 166.35071 -290.8125 168.875 L -288.375 171.25 C -285.01126 175.45468 -281.75597 179.42556 -277.45312 182.72266 C -273.474 185.64717 -269.33971 188.26617 -266.375 192.25 C -265.5823 196.41931 -265.57056 199.85627 -267.71875 203.57812 C -269.32194 206.1644 -270.4984 208.75966 -271.625 211.58203 L -272.375 213.5 C -278.21064 228.0587 -281.43959 242.19427 -281.67773 257.94727 L -281.6875 260.8125 C -281.7292 267.69751 -281.52299 274.64859 -279.375 281.25 C -273.9998 289.41006 -274.00004 289.4103 -253.92188 294.51367 C -251.73077 295.06851 -249.54705 295.62435 -247.375 296.25 C -240.36248 299.09788 -233.33906 300.57071 -225.91211 301.92969 C -223.81402 302.31211 -221.71604 302.699 -219.61914 303.08789 C -218.26566 303.34136 -216.91215 303.59462 -215.55859 303.84766 C -213.15877 304.28714 -210.76368 304.75354 -208.375 305.25 C -203.51239 306.73185 -198.90734 307.66672 -193.87305 308.23828 L -191.06641 308.53906 C -188.06067 308.87532 -185.05559 309.21012 -182.04883 309.53711 C -179.96233 309.76376 -177.87509 309.99165 -175.78906 310.22266 C -174.92325 310.319 -174.05724 310.41358 -173.19141 310.50977 C -165.08442 312.25528 -156.03002 314.76002 -156.72266 317.13477 C -157.60144 320.14776 -161.47776 321.154 -163.66992 321.49219 C -165.40856 321.29739 -167.14689 321.10286 -168.875 320.77344 C -180.70752 318.16561 -192.65569 318.08546 -204.71875 318.11719 L -207.0625 318.125 C -218.99675 318.1434 -231.06486 317.89669 -242.94336 319.21484 C -242.99006 319.21884 -243.03596 319.22186 -243.08398 319.22656 C -243.18068 319.23736 -243.27836 319.239 -243.375 319.25 C -243.3864 319.257 -243.38714 319.25502 -243.39844 319.26172 C -243.43434 319.26572 -243.46734 319.26874 -243.50391 319.27344 C -248.60001 319.95473 -260.00627 322.50869 -260.28125 322.57031 C -260.5625 322.60931 -260.84375 322.64851 -261.125 322.6875 C -263.4926 323.01318 -265.86031 323.34047 -268.22656 323.67578 L -270.48438 323.99609 C -276.5267 324.80687 -281.36528 325.67718 -286.25 329.5 C -288.375 332.25 -288.375 332.25 -288.5 335.1875 C -287.37385 338.25314 -286.02508 340.46624 -283.80859 342.87109 C -277.02362 349.39724 -268.82014 351.36575 -259.5957 351.48438 L -257.35938 351.48047 C -246.26002 351.46377 -235.23509 350.49455 -224.18555 349.52148 C -220.21158 349.16332 -216.23707 348.80343 -212.26172 348.46094 C -209.62262 348.23399 -206.98441 348.00504 -204.3457 347.77344 L -200.58984 347.44141 L -196.95703 347.125 L -193.625 346.82227 C -191.8717 346.6655 -190.11971 346.48373 -188.375 346.25 C -179.58592 343.87794 -179.58508 343.87833 -170.25586 343.67969 L -167.74609 343.49609 C -165.03287 343.29403 -162.31888 343.0921 -159.60547 342.89258 C -157.72684 342.75451 -155.84924 342.61583 -153.9707 342.47656 C -151.91806 342.32406 -149.86523 342.17339 -147.8125 342.02148 C -144.26959 342.12101 -137.74629 342.60843 -136.92383 344.85742 L -136.84766 345.4707 C -137.13223 347.32733 -142.56874 348.57405 -147.42773 349.32227 C -152.41708 349.44528 -157.40052 349.69502 -162.375 350.25 C -164.27277 351.33574 -164.27351 351.33549 -166.1543 351.48047 C -173.14405 352.03247 -180.06335 353.00701 -186.99805 354.01758 C -189.28821 354.3543 -191.57772 354.68954 -193.86914 355.01758 C -195.38633 355.2346 -196.90338 355.45428 -198.41992 355.67578 L -200.60547 355.99609 C -204.53288 356.55313 -208.3312 357.23705 -212.16602 358.28516 C -215.33779 359.28331 -215.33779 359.28428 -218.48828 359.92578 C -227.42844 361.70508 -236.15466 364.00839 -244.9082 366.53711 L -247.375 367.25 C -250.09122 368.02642 -252.80715 368.80404 -255.51953 369.59375 L -258.1875 370.375 C -262.3879 371.57965 -266.33301 372.64931 -270.13281 374.83984 C -272.32984 376.35196 -272.32984 376.35196 -274.91016 377.05859 L -277.4375 377.6875 C -281.34819 378.82569 -284.22357 379.56184 -286.375 383.25 C -286.3125 386.6875 -286.3125 386.6875 -285.375 390.25 C -282.97375 394.20459 -281.22888 398.05067 -279.5625 402.375 C -277.95935 406.62311 -277.21189 408.713 -273.35547 411.1875 C -268.69349 412.84944 -268.69349 412.84944 -261 410 C -257.54886 408.64087 -254.05346 407.50098 -250.50977 406.40625 C -245.7471 404.94383 -240.96179 403.54841 -236.3125 401.75 C -233.20509 400.53195 -230.05702 399.46307 -226.88867 398.41406 C -222.97712 397.12443 -219.05197 395.87399 -215.19141 394.4375 C -210.65036 392.65749 -206.0349 391.18666 -201.375 389.75 C -197.19588 388.46214 -193.02417 387.18731 -188.9375 385.625 C -187.09849 384.91521 -185.25716 384.21006 -183.39062 383.57617 C -179.49878 382.29909 -175.61795 380.99574 -171.75391 379.63672 C -168.3967 378.452 -165.03756 377.27325 -161.67578 376.10156 C -159.05764 375.18936 -156.44167 374.27456 -153.83008 373.34375 C -152.20249 372.76364 -150.5728 372.18845 -148.94141 371.61914 L -146.625 370.8125 C -145.87241 370.53942 -145.17617 370.34592 -144.45703 370.11719 C -140.18531 369.30317 -132.99881 368.62563 -127.375 371.625 C -123.49142 373.69624 -133.25165 378.77826 -143.56445 383.20312 C -144.44807 383.48228 -145.31922 383.77762 -146.22266 384.03711 C -147.66336 384.44203 -149.10079 384.85215 -150.53906 385.26562 L -152.82422 385.92578 C -157.10994 387.16343 -161.37055 388.47172 -165.625 389.8125 C -168.20709 390.62917 -170.79032 391.44146 -173.375 392.25 L -177.08984 393.34766 L -180.5625 394.375 C -183.60192 395.25678 -186.13196 396.1073 -188.86328 397.71094 C -191.38041 399.33278 -191.38041 399.33278 -194.3125 400.53125 C -198.30429 402.11982 -202.24324 403.59549 -205.96875 405.75 C -207.51055 406.71112 -209.07216 407.64156 -210.65625 408.53125 C -212.90006 409.76377 -215.1429 410.99636 -217.375 412.25 C -220.06553 413.94928 -222.57543 415.33136 -225.53125 416.53125 C -228.83156 417.73417 -232.12003 418.92867 -235.375 420.25 C -239.64746 423.20147 -243.44121 423.98996 -248.48828 424.83789 C -250.50432 425.15559 -252.51994 425.47593 -254.53516 425.79883 L -257.44531 426.28516 C -260.92081 426.83387 -262.36463 427.24308 -265.375 429.25 C -266.46839 432.24669 -266.59191 433.70436 -265.40625 436.6875 C -263.04552 440.63812 -260.71723 444.5793 -258.625 448.67969 C -256.58393 452.69804 -254.69485 456.71909 -251.73828 460.14844 C -249.25427 462.31335 -246.72872 464.13435 -243.375 464.25 C -240.68225 462.45484 -238.00281 461.08702 -235.07227 459.73242 C -230.76177 457.7594 -226.45678 455.78489 -222.20703 453.68359 L -219.375 452.25 L -216.8125 450.96875 L -214.375 449.75 C -212.70784 448.91766 -211.04112 448.08443 -209.375 447.25 C -206.62483 445.84566 -203.87264 444.47493 -201.05859 443.20312 C -194.6714 440.33958 -188.39558 437.30199 -182.14453 434.15234 C -178.76254 432.44386 -175.37391 430.74812 -171.98438 429.05469 C -170.61593 428.37118 -169.24906 427.68597 -167.88086 427.00195 L -165.96875 426.04688 C -164.77058 425.44842 -163.57265 424.84949 -162.375 424.25 C -159.46415 422.78002 -156.55556 421.33318 -153.59375 419.96875 C -149.85257 418.29167 -146.12065 416.61885 -142.44531 414.80078 L -139.375 413.25 L -136.14844 411.63672 L -132.75 409.9375 C -130.28988 408.71186 -127.82978 407.48631 -125.375 406.25 C -122.29177 404.65959 -119.29488 403.07429 -116.22266 401.68359 C -116.11151 401.63413 -116.00182 401.58609 -115.89062 401.53711 C -114.56802 400.94576 -113.22522 400.4034 -111.85938 399.9043 C -111.40338 399.74124 -110.96379 399.59566 -110.54492 399.4668 C -110.31017 399.38825 -110.06284 399.33094 -109.82617 399.25586 C -109.81808 399.25368 -109.81081 399.25216 -109.80273 399.25 C -108.81207 398.98496 -107.98045 398.85535 -107.40039 398.91992 C -104.31451 399.26342 -115.70898 411.20508 -115.70898 411.20508 L -115.63086 411.21094 C -116.77998 411.96828 -117.90133 412.76304 -118.92188 413.75781 C -120.33191 415.28247 -120.33192 415.28247 -121.98828 416.46094 C -125.96905 419.188 -129.6829 422.1083 -133.36133 425.23828 C -133.36633 425.24228 -133.3703 425.2463 -133.375 425.25 C -135.70857 426.90999 -138.61508 429.08719 -142.09375 431.92578 C -142.41793 432.19031 -142.39195 432.17069 -142.69727 432.41992 C -143.58708 433.03754 -144.47484 433.68659 -145.22656 434.49023 L -145.22852 434.49219 C -151.00929 439.21992 -152.9375 440.82031 -152.9375 440.82031 L -152.93555 440.82617 L -153 440.875 L -155.16016 442.53906 C -156.57393 443.63119 -157.99758 444.71073 -159.43359 445.77344 C -162.65466 448.14686 -165.79137 450.56315 -168.8125 453.1875 C -172.86845 456.71481 -177.10868 459.98218 -181.375 463.25 C -184.57311 465.67558 -187.76814 468.10336 -190.9375 470.56641 C -192.08294 471.46144 -193.22878 472.35596 -194.375 473.25 C -196.21723 474.6645 -198.05462 476.08377 -199.87109 477.53125 L -201.625 478.9375 C -203.84421 480.62644 -205.46699 482.14698 -207.375 484.25 C -208.53416 488.14704 -208.88201 490.16838 -207.14453 493.875 L -205.375 496.25 C -201.19609 502.72579 -197.27767 509.73058 -189.53906 512.12891 C -186.375 512.25 -186.375 512.25 -183.55859 510.55469 L -180.8125 508.125 C -176.56184 504.44712 -172.46951 500.62647 -168.75 496.40625 C -164.7841 491.62914 -160.61385 487.2724 -155.875 483.25 C -152.88724 480.71591 -150.07443 478.09534 -147.375 475.25 C -145.07157 472.25555 -142.81728 469.68195 -139.9375 467.25 C -136.91461 464.72446 -134.08991 462.11166 -131.375 459.25 C -129.07157 456.25555 -126.81728 453.68195 -123.9375 451.25 C -120.33891 448.24096 -116.98726 445.11162 -113.91016 441.55859 C -110.38889 437.41013 -107.00054 433.15126 -102.5625 429.9375 C -98.682502 428.71807 -94.061778 428.40661 -90.375 430.25 C -86.912342 434.51809 -85.594965 438.42293 -84.392578 443.75391 C -84.008849 445.57048 -83.618327 447.38563 -83.220703 449.19922 L -82.621094 451.89062 C -82.038375 454.51133 -81.425121 457.08337 -80.644531 459.65234 C -78.73417 465.62444 -77.497435 471.56128 -76.431641 477.74023 C -75.230251 484.91446 -74.342505 492.24534 -72.308594 499.24219 C -71.6905 501.23354 -71.14075 503.2475 -70.664062 505.27734 C -69.38867 510.86657 -67.958296 515.72962 -65.322266 520.34766 C -62.824526 527.95752 -59.025336 538.09312 -53.875 547.75 C -50.487462 554.10163 -40.93626 559.32388 -29.792969 563.45703 C -24.687505 565.8862 -19.554556 567.92321 -14.023438 569.55859 C -11.336298 570.34887 -8.6784083 571.13069 -6.0703125 572.15625 C 3.0947606 576.08976 3.0955006 576.08976 26.083984 577.11523 C 39.424258 577.53106 50.109156 576.35521 60.335938 568.12109 L 60.357422 568.14062 C 60.357422 568.14062 61.683264 567.51763 67.027344 561.97852 C 67.094604 561.90882 67.1573 561.84198 67.222656 561.77344 C 74.672322 554.07901 82.629305 546.74207 90.9375 540 C 92.507478 538.7594 94.071406 537.51105 95.625 536.25 C 96.623787 535.24879 97.623595 534.24859 98.625 533.25 C 101.51582 531.34329 104.23444 529.64056 106.6875 527.1875 L 108.625 525.25 C 111.125 524 111.125 524 113.625 522.25 C 116.38614 518.80081 117.64079 515.62584 117.58984 511.1875 L 117.375 507.875 C 117.13536 501.21133 119.10301 498.15787 123.53125 493.33203 L 125.625 491.25 C 127.25337 489.54589 128.9127 487.86975 130.625 486.25 C 134.03806 483.14069 136.41511 480.23949 138.45508 476.07812 L 139.3125 474.25 C 141.62558 469.51249 144.36584 464.86842 144.89062 459.56641 C 144.83533 449.82629 142.20372 440.38372 135.5625 432.9375 L 133.625 431.25 C 128.67071 425.01718 123.60924 420.36958 117.04297 415.87891 L 114.625 414.25 L 111.5 412.125 L 108.625 410.25 C 87.682282 396.04983 63.951848 393.72274 39.626953 396.64648 L 39.052734 396.64648 C 39.052734 396.64648 37.448763 396.81185 34.869141 397.2207 C 34.787526 397.23271 34.706625 397.23788 34.625 397.25 L 34.613281 397.26172 C 31.177668 397.81444 26.082357 398.80166 20.320312 400.49023 C 17.036165 401.23913 13.801554 402.17022 10.703125 403.57031 C 4.6883579 406.96919 0.96179954 410.32246 -1.3203125 417.02734 C -2.0295878 419.19457 -2.7644939 421.35357 -3.5234375 423.50391 L -4.75 426.8125 C -6.0114299 430.26719 -7.1377418 432.94281 -9.390625 435.85938 C -11.375 438.25 -11.375 438.25 -12.710938 440.57422 C -15.140445 446.09998 -15.782968 449.89991 -14.195312 455.75781 L -13.375 458.25 L -12.617188 460.67969 C -9.3531711 469.8836 -4.2281819 479.6217 4.6679688 484.28516 L 6.625 485.25 C 13.648499 489.68344 21.712486 492.43447 30.0625 492.6875 C 35.045797 492.42947 38.564148 491.31608 42.167969 487.70312 C 44.745318 484.5799 45.686848 483.06949 45.375 478.9375 C 43.625 476.25 43.625 476.25 40.507812 475.20703 C 38.558808 474.72664 36.609801 474.24541 34.664062 473.75195 C 32.693286 473.24875 30.721892 472.74882 28.75 472.25 C 26.330138 471.65889 24.002976 471.00905 21.625 470.25 C 20.622829 466.83328 20.622829 466.83328 21.625 463.25 C 37.931819 462.59592 51.030892 459.34912 65.4375 451.625 C 68.809936 449.77963 72.171286 447.93923 75.625 446.25 L 76.625 448.25 L 77.597656 450.13281 L 78.6875 452.375 C 79.872128 454.59859 79.872128 454.59859 80.625 457.25 C 81.211008 462.9753 80.57888 466.256 77.572266 471.13867 L 76.3125 473.0625 C 74.801422 475.50866 73.255159 477.87656 71.625 480.25 C 69.458441 482.38056 68.35054 483.74214 66.8125 486.5 C 64.045626 491.50572 60.288598 495.49398 56.375 499.625 L 53.625 502.25 C 50.502314 505.62621 47.389618 508.59178 43.625 511.25 C 35.82633 515.16998 27.528125 517.37215 18.933594 515.03516 L 16.625 514.25 C 13.386084 513.36534 13.386084 513.36534 11.5 512.40234 C 1.3451822 506.16136 -4.9515502 498.48829 -9.1679688 488.42969 L -9.2382812 488.40234 C -9.2382812 488.40234 -12.76916 480.01555 -15.96875 474.60938 C -19.09321 469.33011 -24.453322 444.30982 -24.707031 443.12109 C -24.788201 442.79389 -24.893667 442.5375 -24.974609 442.19336 L -25.5 439.8125 C -27.456318 430.97589 -28.719944 422.15503 -26.375 413.25 C -22.041155 405.35621 -14.776194 399.58056 -6.625 396 C -5.1989001 395.44012 -3.782125 394.85599 -2.375 394.25 C 0.17970153 392.67343 2.4939193 391.29832 5.3164062 390.25781 C 12.625702 388.01033 19.603584 385.26701 26.625 382.25 C 32.607599 379.67935 38.55844 377.2144 44.75 375.1875 C 48.391087 374.00839 51.956993 372.75981 55.5 371.3125 C 59.545796 369.65503 63.630077 368.15139 67.75 366.6875 C 70.763406 365.62261 73.778984 364.56899 76.769531 363.44141 C 81.177515 361.7416 85.639646 360.23204 90.125 358.75 C 93.365954 357.68121 96.609707 356.62778 99.808594 355.4375 C 104.34952 353.65754 108.96447 352.1845 113.625 350.75 C 116.96217 349.73773 120.29866 348.74673 123.56641 347.52539 C 127.12184 346.15129 130.65897 344.90853 134.32422 343.85547 C 148.34515 339.88155 160.8047 337.03693 169.82031 324.73828 C 171.49414 322.30664 171.49414 322.30664 173.23047 320.59375 C 176.38428 317.55478 178.39512 314.50156 179.1875 310.1875 C 178.45346 306.35419 178.45346 306.35419 173.625 302.25 C 171.62559 302.91844 169.62546 303.58473 167.625 304.25 C 161.89845 306.11191 156.19972 307.96616 150.625 310.25 C 147.99626 311.32846 145.378 312.33408 142.6875 313.25 C 137.86328 314.82525 133.08295 316.41343 128.375 318.3125 C 124.8397 319.75697 121.29618 321.15431 117.71484 322.48047 L 115.625 323.25 C 111.25534 324.884 106.88389 326.50449 102.45312 327.9668 L 100.09375 328.73438 C 98.47953 329.26153 96.864945 329.78757 95.25 330.3125 C 91.296853 331.56665 87.560786 332.69792 83.976562 334.8125 C 81.606786 336.3788 81.606786 336.3788 78.609375 337.27734 C 74.53413 338.42412 70.445891 339.4459 66.564453 341.16016 C 61.722703 343.40362 56.951476 345.1603 51.822266 346.63672 C 50.038372 347.13658 48.254519 347.63658 46.470703 348.13672 L 43.878906 348.88281 C 42.116184 349.37591 41.598979 349.57866 40.666016 349.91602 L 40.662109 349.89648 C 40.662109 349.89648 40.319287 350.02126 40.173828 350.07422 C 39.98093 350.14552 39.872655 350.15786 39.625 350.25 C 39.609512 350.26549 39.587847 350.2756 39.572266 350.29102 C 34.956769 351.94361 16.758195 358.27275 15.736328 355.70898 C 15.750895 355.50203 15.766742 355.2111 15.787109 355.0293 C 16.664787 352.49168 18.699199 350.18767 20.306641 348.65039 C 32.339194 340.10121 34.466797 338.97816 51.019531 331.53516 L 51.666016 331.2168 C 53.870444 330.51468 57.747703 329.16557 62.835938 326.79492 C 67.19813 324.76253 81.123491 315.87767 92.855469 308.25781 C 94.761498 307.24238 96.66782 306.22724 98.574219 305.21289 C 106.61396 300.93536 114.67693 296.6962 122.625 292.25 C 129.3735 288.18346 136.29165 284.41045 143.34375 280.89453 C 147.53853 278.8436 151.61997 276.71677 155.625 274.3125 C 157.28925 273.28774 158.95596 272.26695 160.625 271.25 C 166.55966 267.91446 172.14964 265.27396 175.625 259.25 C 176.21304 255.26649 176.54938 251.17932 174.77344 247.47266 C 173.61601 245.35659 173.61674 245.35659 172.98047 243.42578 L 172.29297 241.31641 C 171.79719 239.81586 171.30377 238.31453 170.8125 236.8125 C 169.03752 231.14715 167.50184 227.02804 162.625 223.25 C 158.9375 223.3125 158.9375 223.3125 155.625 224.25 C 153.73022 226.26064 153.7302 226.26064 151.67188 227.61719 L 149.375 229.125 L 146.92188 230.74219 C 145.15155 231.90434 143.38703 233.07531 141.625 234.25 L 138.625 236.25 C 134.78198 238.78967 130.9382 241.32217 127.17578 243.98047 C 122.97147 246.97035 118.75938 249.81819 114.3125 252.4375 C 111.74409 253.94903 109.41575 255.41331 107.0625 257.25 C 96.167937 265.21201 96.167937 265.21201 84.625 272.25 L 82.289062 273.66406 L 80.1875 274.9375 C 78.378906 276.01172 78.378906 276.01172 76.625 277.25 C 74.404458 279.55069 72.429249 281.37864 69.742188 283.14453 C 64.523231 286.23189 59.374836 289.3461 54.4375 292.875 C 51.983216 294.62977 49.535587 296.30467 46.960938 297.87891 C 43.53895 299.89273 40.195769 301.80452 37.0625 304.25 C 34.965285 305.97079 32.872794 307.48792 30.625 309 C 28.957064 310.08138 27.290547 311.16495 25.625 312.25 C 22.388313 314.50527 19.154989 316.66893 15.800781 318.74609 C 11.162761 320.94245 8.4989956 320.57176 3.625 319.25 L 3.96875 317.36719 C 5.5943056 314.22071 5.5943056 314.22071 8.765625 312.375 C 10.088288 311.57473 11.388615 310.73704 12.671875 309.875 C 16.763394 307.08929 20.905024 304.48347 25.1875 302 C 26.629781 301.18337 27.072828 300.84194 27.681641 300.45508 C 30.392823 298.95116 35.042324 296.12049 40.875 291.5625 C 43.295345 289.6711 45.207288 288.03107 46.722656 286.63086 C 49.923271 284.58128 52.775285 282.51568 61.988281 275.3125 C 63.432466 274.18283 64.877864 273.05407 66.326172 271.92969 C 67.569287 270.96498 68.811454 269.99832 70.052734 269.03125 L 71.9375 267.5625 C 75.029412 265.16891 78.045559 262.82328 80.828125 260.07031 C 82.539353 258.24684 82.539353 258.24684 84.371094 256.94141 C 87.230622 255.03285 89.715827 253.16139 92.1875 250.75 C 98.951524 243.81254 107.0867 238.00374 115.08594 232.58203 C 122.59811 227.66617 134.21742 221.69263 136.5625 212.625 C 136.625 209.25 136.625 209.25 134.625 206.25 C 130.63021 200.68033 129.15492 195.7229 128.5 189 C 128.21487 185.162 127.91482 181.86938 126.25781 178.32812 C 124.625 176.25 124.625 176.25 121.625 175.25 C 116.13195 180.24368 111.93676 186.24812 108.23047 192.66406 C 102.80291 202.26787 95.542574 210.59946 87.625 218.25 C 85.08549 220.28161 82.645242 222.22976 80.34375 224.53125 C 78.000452 226.87455 75.613292 229.12604 73.164062 231.35547 C 68.885379 235.23235 64.676824 239.13229 60.625 243.25 C 57.177835 246.80508 53.864143 250.6175 49.851562 253.54297 C 48.430797 254.42644 47.027012 255.33706 45.625 256.25 C 43.500561 258.95798 41.534256 261.32929 38.933594 263.60156 C 36.152232 265.80395 33.374742 268.00823 30.625 270.25 C 19.794902 279.2512 19.794902 279.25139 7.6054688 286.45312 L 5.8085938 287.53711 C 4.9868061 287.94986 -9.9536138 295.41561 -8.921875 292.14844 C -7.861215 288.78968 -6.1738281 287.83008 -6.1738281 287.83008 L -6.1757812 287.82422 C -5.6788389 287.49415 -5.2303831 287.35036 -4.203125 286.54297 C -1.0340574 283.9549 2.0762691 281.28902 5.4765625 279.00781 C 7.9793128 277.45482 9.7704021 276.07816 11.6875 273.8125 C 14.210476 270.47566 17.011147 267.56972 20.253906 264.91797 C 23.610764 262.19193 26.412801 259.42831 29.0625 256 C 30.870027 253.58727 32.675357 251.18726 34.5625 248.83594 C 39.732515 242.4744 45.192072 235.89396 49.679688 228.83594 C 50.868235 227.35453 62.643913 212.63733 65.75 207.23242 L 67.625 205.25 C 72.679065 200.33253 77.244968 195.07844 81.78125 189.6875 L 83.9375 187.0625 C 87.597309 182.61177 89.591666 179.28338 89.6875 173.4375 C 88.635434 167.07729 88.635434 167.07729 79.148438 159.19141 C 74.451096 155.66485 71.67787 153.67709 65.625 154.25 C 60.046127 157.17891 60.046127 157.17891 51.4375 176.25 C 50.196945 179.09337 49.27472 181.58191 47.105469 183.8125 C 45.299846 185.56572 45.299846 185.56572 43.125 190.25 C 41.960376 192.75842 41.02382 194.83268 39.109375 196.83594 C 37.625 198.25 37.625 198.25 36.484375 199.97656 C 33.304953 205.4174 29.678949 210.42517 25.625 215.25 C 23.745212 217.11557 21.912939 218.85519 20.351562 220.99609 C 18.320117 224.1153 16.460095 226.39429 13.625 228.875 C 10.715968 231.17798 8.1803737 233.56358 5.625 236.25 C 2.8782592 239.75973 -0.14816851 243.22319 -3.6621094 245.89844 C -6.2631579 247.32628 -13.40383 251.08189 -13.621094 249.34375 C -13.886264 247.22243 -13.03125 245.67969 -13.03125 245.67969 L -12.0625 244.0625 L -10.375 241.25 L -5.375 236.25 C -3.8183433 233.60893 -2.3556856 231.2274 -0.359375 228.89062 C 3.3697164 224.90076 6.9860844 220.89647 10.3125 216.5625 C 12.411511 213.80755 14.548141 211.121 16.8125 208.5 C 18.42601 206.65865 19.985593 204.79926 21.515625 202.88672 L 23.625 200.25 L 25.878906 197.56641 L 28.1875 194.8125 C 31.293557 191.13028 33.676115 187.66628 35.625 183.25 C 36.822337 177.94751 36.561698 174.44257 34.820312 170.06055 C 34.667696 169.1926 34.359834 168.35109 33.853516 167.55859 C 31.250282 163.48396 28.431542 160.99336 26.736328 159.72461 C 26.561458 159.56438 26.447101 159.41598 26.25 159.25 C 23.59147 157.30766 23.59147 157.30766 21.3125 155 C 18.896894 151.06346 19.115279 148.83749 19.625 144.25 C 21.909686 140.72338 21.909686 140.72338 25.5 138.3125 C 37.032112 130.70131 45.817557 116.73016 51.65625 104.39844 L 52.625 102.25 C 53.516573 100.32007 54.390294 98.381835 55.25 96.4375 C 62.166542 79.34832 61.04532 61.4416 54.462891 44.537109 L 53.6875 42.5625 C 52.461939 39.337173 51.464933 36.167462 49.101562 33.585938 C 47.478927 32.247253 47.478922 32.247256 46.300781 30.050781 C 44.835135 27.375663 43.298831 24.8006 41.625 22.25 C 31.460533 10.008922 17.877499 2.3852146 2.2421875 0.28125 L 0 0 C -2.9289334 -0.38371038 -6.4019707 -0.9418152 -9.703125 -0.84375 z "
     transform="translate(398.375,55.75)" />
</svg>
