<svg width="250" height="250" xmlns="http://www.w3.org/2000/svg">
	<path fill="#a5b79c" d="m 147.66659,15.007483 c -1.2564,0.03732 -2.44738,0.324381 -3.30047,1.177465 l 0.33302,1.165572 c 0.1422,0.499681 0.28493,0.999209 0.42817,1.498591 2.65611,8.964364 3.6801,20.136649 0.37316,29.100633 -0.21303,0.551688 -0.42318,1.104269 -0.62366,1.660642 -0.1873,0.520608 -0.37706,1.040321 -0.57015,1.558802 l -0.29734,0.791667 c -0.33923,0.947057 -0.69639,1.764795 -1.16558,2.664163 -0.78847,0.396736 -0.78847,0.396736 -1.52238,0.380595 0.0218,-0.948644 0.008,-1.84719 -0.12636,-2.787559 l -0.18287,-0.899452 c -0.18778,-0.954958 -0.40914,-1.884877 -0.70098,-2.813578 -0.72,-2.269106 -1.2125,-4.528746 -1.63239,-6.87152 -0.46415,-2.663379 -0.82763,-5.37195 -1.58111,-7.972417 -0.1961,-0.634159 -0.38097,-1.27266 -0.53075,-1.919328 -0.10789,-0.528455 -0.2224,-1.055569 -0.34045,-1.581847 l -0.23341,-1.034742 c -0.70983,-3.314933 -1.33197,-6.944383 -4.18654,-9.134274 -0.94109,-0.15313 -0.94109,-0.15313 -1.90298,0 -1.91004,1.092489 -3.14983,2.666515 -4.11518,4.614711 -0.27729,0.618569 -0.55477,1.23705 -0.83255,1.8554 -4.74832,7.12248 -3.56443,18.621443 -2.57273,26.672853 l 0.19401,1.491158 c 0.34451,2.682429 0.76577,5.208691 1.66213,7.766515 0.44272,1.24624 0.81758,2.36337 0.89202,3.68701 l -0.0327,1.2964 c -0.0138,1.23101 -0.0212,2.18525 -0.49953,3.32128 -2.01655,3.36586 -3.43153,7.792 -3.06854,11.71221 0.58415,2.89737 2.08043,5.02758 4.49726,6.6723 0.58633,0.39439 1.15935,0.80892 1.72159,1.23694 l 0.89351,0.70172 c 0.54859,0.42626 1.09587,0.85422 1.64132,1.28451 1.0011,0.84183 1.78003,1.46773 2.97339,1.99812 l 0.83255,0.28544 c -0.0664,1.66067 -0.24589,2.69036 -1.42723,3.85353 -0.41251,0.3645 -0.82483,0.72923 -1.23693,1.09421 -0.71527,0.896027 -0.95216,1.128357 -1.5261,1.589277 -2.19109,0.95195 -3.00679,-0.38757 -3.04104,-0.44601 v -0.002 l -0.002,-0.002 c -3.8e-4,-7.6e-4 -0.005,-0.007 -0.005,-0.007 l -0.003,7.6e-4 -1.03697,-0.871947 c -0.79105,-0.63173 -1.36912,-1.18308 -2.02191,-1.97433 -0.7374,-0.95149 -0.7374,-0.95149 -1.56995,-1.83161 l -1.07031,-1.02281 c -0.55787,-0.54444 -1.12128,-1.08325 -1.68889,-1.61753 -1.29937,-1.14587 -2.20912,-1.89406 -4.02003,-1.80782 -1.14178,0.76119 -1.14178,0.76119 -1.61604,1.60117 -1.19004,2.60249 -2.20846,4.67859 -4.85407,6.01072 -2.45738,0.32094 -4.9588,0.25856 -7.24022,-0.76565 l -0.75227,-0.37613 c -1.53386,-0.71166 -3.18734,-1.3084 -4.41847,-2.49171 -0.97959,-1.02363 -2.19783,-1.67674 -3.62159,-1.71862 -1.13913,0.6455 -1.13913,0.6455 -2.236,2.68795 -1.05458,3.992337 0.9291,9.269847 2.83068,12.819797 1.19393,1.95709 1.68178,3.1266 1.35586,5.44875 l -1.14178,0.76119 c -0.59292,0.5977 -1.14518,1.14427 -1.82567,1.6428 l -0.74334,0.47425 c -1.35465,0.88383 -2.72153,1.28001 -4.2817,1.68889 -0.0374,-0.9798 -0.0763,-1.95951 -0.1167,-2.9392 l -0.0498,-1.19976 -0.0453,-1.19085 -0.0483,-1.13732 c -0.0256,-0.63607 -0.0625,-1.27201 -0.12042,-1.90595 -0.48723,-1.39484 -0.48729,-1.39494 -0.57833,-2.88717 -0.0424,-0.59863 -0.0867,-1.19679 -0.13231,-1.79519 -0.0739,-0.9684 -0.14574,-1.93715 -0.21706,-2.90575 -0.46952,-6.438657 -0.61483,-11.347627 -4.90016,-16.436927 l -0.8043,-0.90689 c -0.74378,-1.1775 -0.80194,-1.86368 -0.59914,-3.23208 1.14178,-0.76119 1.14178,-0.76119 1.68592,-1.35141 0.57254,-0.69789 1.15147,-1.38899 1.73943,-2.07395 6.09659,-6.09659 9.9927,-12.91351 11.84304,-21.326683 0.10996,-0.503447 0.22169,-1.006518 0.33599,-1.508998 0.91454,-3.283071 0.91538,-6.503378 0.76119,-9.895463 -0.56887,-1.706625 -1.77353,-3.169639 -3.2633,-4.184312 -0.0232,-0.02706 -0.0453,-0.05395 -0.0691,-0.08102 C 91.47579,41.410232 90.42474,40.69769 89.96401,40.40794 L 89.6793,40.209467 88.41858,39.400703 c -0.62312,-0.521156 -1.25853,-1.02783 -1.90297,-1.522379 -7.46564,-3.776737 -13.12133,-3.911855 -20.94014,-1.559548 -1.67601,0.617249 -2.77888,1.073654 -3.63201,2.677545 -0.38163,1.694142 -0.38163,1.694142 1.35587,6.113304 2.21225,5.477569 2.75556,10.630978 2.7608,16.483768 l -0.002,0.88087 c -0.003,3.42772 -0.0464,6.75206 -0.72254,10.12888 l -0.27652,1.17003 c -0.36382,1.5932 -0.36294,1.99428 -1.76025,2.92582 l -0.13976,-1.02879 -0.19323,-1.34993 c -0.12037,-0.85976 -0.26147,-1.71701 -0.42817,-2.56901 -0.45927,-0.87501 -0.77932,-1.59867 -1.01021,-2.56753 l -0.21483,-1.18787 -0.24233,-1.30681 c -0.16302,-0.90401 -0.32655,-1.80792 -0.49061,-2.71175 l -0.24233,-1.30978 c -0.14085,-0.78064 -0.29506,-1.55902 -0.46385,-2.33411 -0.39197,-1.173102 -0.76583,-2.303601 -1.03326,-3.512324 L 58.59196,55.503131 C 58.39926,54.504808 58.20746,53.50639 58.0181,52.507435 57.16834,47.991146 56.51143,42.493934 53.78398,38.639514 52.64184,37.646348 51.9381,37.165227 50.43148,36.999687 46.4631,37.38341 41.41636,41.883429 38.98836,44.824179 l -0.808764,1.046635 c -1.730085,1.730085 -3.331354,3.342927 -4.534429,5.481455 l -0.651175,1.345464 -0.657119,1.342487 -0.627388,1.345463 c -0.660617,1.372984 -1.119462,2.433759 -1.266665,3.953131 l 0.02972,1.256269 c 0.04899,3.47456 1.261166,6.34497 3.11612,9.27699 0.708485,1.00905 1.32847,2.02898 1.950548,3.09234 0.519071,0.89632 0.982357,1.69113 1.702271,2.43669 0.574626,0.52274 0.574626,0.52274 1.018388,1.16409 0.747214,1.10828 1.479513,2.0751 2.41737,3.03584 l 0.9277,0.90391 c 1.280222,1.60028 2.519168,3.11157 4.15681,4.36643 1.514433,1.11306 3.087922,2.10983 4.216283,3.62606 0.30169,1.58681 0.30616,2.89491 -0.511432,4.31142 -0.610166,0.98433 -1.057921,1.97207 -1.486699,3.04624 l -0.285446,0.72997 c -2.221014,5.540967 -3.449935,10.920897 -3.54057,16.916407 l -0.0038,1.09048 c -0.01587,2.6204 0.06261,5.26594 0.880125,7.77841 2.045773,3.10568 2.045682,3.10577 9.687322,5.04809 0.83393,0.21116 1.66504,0.4227 2.49171,0.66083 2.66893,1.08389 5.342,1.64444 8.16866,2.16166 0.79852,0.14555 1.597,0.2928 2.39507,0.44081 0.51513,0.0965 1.03027,0.19286 1.54543,0.28916 0.91336,0.16727 1.82491,0.34478 2.73403,0.53373 1.85069,0.56398 3.60335,0.91979 5.51937,1.13732 l 1.06819,0.11447 c 1.14397,0.12797 2.28769,0.25541 3.43205,0.37985 0.79411,0.0863 1.5885,0.17299 2.38243,0.26091 0.32952,0.0367 0.65912,0.0727 0.98865,0.10929 3.08548,0.66433 6.53154,1.61761 6.26792,2.52144 -0.33446,1.14673 -1.80976,1.5297 -2.64409,1.65841 -0.66171,-0.0741 -1.32331,-0.14818 -1.98102,-0.27355 -4.5034,-0.99253 -9.05081,-1.02303 -13.64195,-1.01096 l -0.89202,0.003 c -4.54211,0.007 -9.13517,-0.0869 -13.65606,0.41479 -0.0178,0.002 -0.0353,0.003 -0.0535,0.004 -0.0368,0.004 -0.074,0.005 -0.11076,0.009 -0.004,0.003 -0.005,0.002 -0.009,0.004 -0.0137,0.002 -0.0262,0.003 -0.0401,0.004 -1.93955,0.25929 -6.28071,1.23132 -6.38537,1.25477 -0.10704,0.0148 -0.21408,0.0298 -0.32112,0.0446 -0.9011,0.12395 -1.80224,0.24852 -2.702819,0.37614 l -0.859314,0.1219 c -2.299675,0.30858 -4.141214,0.63982 -6.000312,2.09476 -0.808764,1.04664 -0.808764,1.04664 -0.856339,2.16464 0.428607,1.16676 0.941942,2.00906 1.785526,2.92433 2.582324,2.48382 5.704526,3.23302 9.215298,3.27817 l 0.85113,-0.002 c 4.22436,-0.006 8.42039,-0.37524 12.62579,-0.74558 1.51247,-0.13631 3.02515,-0.27329 4.53814,-0.40364 1.00443,-0.0864 2.00852,-0.17351 3.0128,-0.26166 l 1.42946,-0.12636 1.38263,-0.12043 1.26815,-0.11522 c 0.6673,-0.0597 1.3341,-0.12884 1.99812,-0.2178 3.34508,-0.90279 3.3454,-0.90264 6.89605,-0.97825 l 0.95521,-0.0699 c 1.03264,-0.0769 2.06557,-0.15376 3.09828,-0.2297 0.71499,-0.0525 1.4296,-0.10532 2.14456,-0.15833 0.78122,-0.058 1.56252,-0.11539 2.34378,-0.1732 1.34841,0.0379 3.83115,0.22339 4.14417,1.07934 l 0.029,0.23341 c -0.1083,0.70663 -2.17741,1.18112 -4.02672,1.46589 -1.89892,0.0468 -3.79559,0.14187 -5.68885,0.35309 -0.72228,0.41323 -0.72256,0.41313 -1.43838,0.46831 -2.66026,0.21009 -5.29371,0.58099 -7.93302,0.96561 -0.87163,0.12816 -1.743,0.25575 -2.61511,0.3806 -0.57743,0.0826 -1.15481,0.1662 -1.732,0.2505 l -0.83181,0.12191 c -1.49475,0.21201 -2.94037,0.4723 -4.39988,0.87121 -1.20716,0.37989 -1.20716,0.38026 -2.40622,0.62441 -3.40258,0.67719 -6.72373,1.55382 -10.05528,2.51624 l -0.93885,0.27132 c -1.03378,0.2955 -2.06745,0.59146 -3.09977,0.89202 l -1.01542,0.29734 c -1.59865,0.45848 -3.10013,0.86559 -4.546316,1.69929 -0.836178,0.57551 -0.836178,0.57551 -1.818234,0.84445 l -0.961893,0.23936 c -1.488388,0.43319 -2.582742,0.71336 -3.401565,2.11706 0.02379,1.30829 0.02379,1.30829 0.380594,2.66416 0.913904,1.5051 1.577992,2.96889 2.212207,4.61471 0.610151,1.61681 0.89463,2.41221 2.362364,3.35399 1.774325,0.63253 1.774325,0.63253 4.702423,-0.45195 1.31349,-0.51728 2.64382,-0.95112 3.99253,-1.36777 1.81265,-0.55658 3.63391,-1.08767 5.4034,-1.77214 1.18267,-0.46358 2.38081,-0.87039 3.58666,-1.26964 1.48872,-0.49083 2.98261,-0.96674 4.45192,-1.51346 1.7283,-0.67746 3.48492,-1.23725 5.25845,-1.78404 1.59056,-0.49015 3.17829,-0.97534 4.73365,-1.56995 0.69992,-0.27014 1.40072,-0.53852 2.11111,-0.77977 1.48122,-0.48605 2.95824,-0.9821 4.42888,-1.49934 1.27773,-0.4509 2.5562,-0.89952 3.83568,-1.34546 0.99645,-0.34718 1.99207,-0.69535 2.98603,-1.04961 0.61945,-0.22079 1.2397,-0.4397 1.8606,-0.65638 l 0.88162,-0.307 c 0.28643,-0.10393 0.55141,-0.17758 0.82511,-0.26463 1.6258,-0.30981 4.36094,-0.56768 6.50134,0.57386 1.47807,0.78831 -2.23663,2.7225 -6.16162,4.40658 -0.3363,0.10624 -0.66786,0.21865 -1.0117,0.31741 -0.54833,0.15411 -1.09541,0.3102 -1.6428,0.46756 l -0.86972,0.25126 c -1.63113,0.47104 -3.25269,0.96897 -4.87191,1.47926 -0.98273,0.31082 -1.9659,0.61997 -2.94961,0.9277 l -1.41385,0.41776 -1.32168,0.391 c -1.15678,0.3356 -2.1197,0.65931 -3.15923,1.26965 -0.95801,0.61726 -0.95801,0.61726 -2.07395,1.07339 -1.51925,0.6046 -3.01839,1.16623 -4.4363,1.98623 -0.5868,0.3658 -1.18114,0.71992 -1.78404,1.05853 -0.85398,0.46909 -1.7076,0.93821 -2.55712,1.41534 -1.024,0.64673 -1.97926,1.17274 -3.10423,1.62942 -1.25608,0.45782 -2.50765,0.91244 -3.74648,1.41533 -1.62607,1.12332 -3.06995,1.42341 -4.99084,1.74613 -0.7673,0.12092 -1.53443,0.24283 -2.30141,0.36573 l -1.10759,0.18509 c -1.32276,0.20884 -1.87227,0.36458 -3.018,1.12841 -0.41614,1.14052 -0.46315,1.6953 -0.0119,2.83067 0.89848,1.50358 1.78461,3.00358 2.5809,4.56416 0.77682,1.52937 1.4958,3.05976 2.62105,4.36495 0.9454,0.82395 1.90662,1.51702 3.18302,1.56103 1.02485,-0.68323 2.04463,-1.20381 3.15998,-1.71936 1.64055,-0.75093 3.27901,-1.50241 4.89644,-2.30216 l 1.07786,-0.54561 0.97527,-0.48764 0.9277,-0.46385 c 0.63451,-0.31679 1.26886,-0.63391 1.90297,-0.95149 1.04671,-0.53448 2.09417,-1.05618 3.16519,-1.54022 2.43093,-1.08985 4.81947,-2.24594 7.19859,-3.44468 1.28717,-0.65024 2.57686,-1.29563 3.8669,-1.94014 0.52082,-0.26014 1.04105,-0.52093 1.56178,-0.78126 l 0.72774,-0.36349 c 0.45601,-0.22778 0.91194,-0.45572 1.36776,-0.68389 1.10785,-0.55946 2.21485,-1.11012 3.3421,-1.62942 1.42387,-0.63829 2.84422,-1.27495 4.24303,-1.9669 l 1.16855,-0.59022 1.22801,-0.61401 1.29343,-0.64671 c 0.93631,-0.46647 1.87261,-0.93291 2.80688,-1.40344 1.17347,-0.6053 2.31407,-1.20866 3.48334,-1.73795 0.0423,-0.0188 0.084,-0.0371 0.12637,-0.0557 0.50337,-0.22507 1.01444,-0.43149 1.53427,-0.62144 0.17355,-0.0621 0.34086,-0.11747 0.50028,-0.16651 0.0893,-0.0299 0.18347,-0.0517 0.27355,-0.0803 0.003,-7.6e-4 0.006,-0.002 0.009,-0.002 0.37704,-0.10087 0.69355,-0.1502 0.91432,-0.12563 1.17447,0.13074 -3.1622,4.67567 -3.1622,4.67567 l 0.0297,0.002 c -0.43735,0.28824 -0.86413,0.59073 -1.25254,0.96933 -0.53665,0.58028 -0.53666,0.58028 -1.16706,1.0288 -1.51506,1.0379 -2.92853,2.14935 -4.32852,3.34061 -0.002,0.002 -0.003,0.003 -0.005,0.004 -0.88814,0.63178 -1.99434,1.46041 -3.31831,2.54077 -0.12338,0.10068 -0.11349,0.0932 -0.22969,0.18806 -0.33866,0.23507 -0.67654,0.48209 -0.96264,0.78795 l -7.6e-4,7.6e-4 c -2.20013,1.79935 -2.934,2.40845 -2.934,2.40845 l 7.6e-4,0.002 -0.0245,0.0186 -0.82214,0.63333 c -0.53808,0.41566 -1.07991,0.82653 -1.62645,1.23099 -1.22592,0.90331 -2.41974,1.82294 -3.56956,2.82175 -1.54367,1.34248 -3.15748,2.58602 -4.78122,3.82974 -1.21719,0.92316 -2.4332,1.84716 -3.63944,2.78458 -0.43595,0.34065 -0.87205,0.6811 -1.3083,1.02136 -0.70114,0.53836 -1.40044,1.07852 -2.09178,1.62943 l -0.66753,0.53521 c -0.84462,0.6428 -1.46224,1.22151 -2.18842,2.02191 -0.44117,1.48319 -0.57356,2.2525 0.0877,3.66322 l 0.67347,0.90391 c 1.59047,2.46466 3.0818,5.13064 6.02708,6.04343 1.20422,0.0461 1.20422,0.0461 2.27613,-0.59914 l 1.04515,-0.92472 c 1.61778,-1.39978 3.1753,-2.8539 4.59093,-4.4601 1.5094,-1.81814 3.09657,-3.47629 4.90015,-5.0072 1.13713,-0.96446 2.20767,-1.96183 3.23506,-3.04476 0.87667,-1.13967 1.73464,-2.11917 2.83067,-3.04475 1.1505,-0.96121 2.22556,-1.95563 3.25884,-3.04476 0.87668,-1.13967 1.73465,-2.11917 2.83068,-3.04476 1.3696,-1.14522 2.64522,-2.33623 3.81635,-3.6885 1.34018,-1.57888 2.62977,-3.19979 4.31886,-4.42293 1.47671,-0.4641 3.23533,-0.58264 4.6385,0.11894 1.31787,1.62441 1.81926,3.11057 2.27688,5.13952 0.14604,0.69137 0.29467,1.38221 0.44601,2.07245 l 0.22821,1.02434 c 0.22178,0.99743 0.45518,1.97633 0.75227,2.95407 0.72707,2.27295 1.19777,4.53248 1.6034,6.88415 0.45724,2.73048 0.79512,5.52057 1.56921,8.18354 0.23524,0.75789 0.44447,1.5244 0.6259,2.29694 0.48541,2.12723 1.0298,3.97809 2.03306,5.73569 0.95062,2.89627 2.39658,6.75383 4.35677,10.42918 1.28928,2.4174 4.92441,4.40496 9.16549,5.97802 1.94312,0.92453 3.89669,1.6998 6.0018,2.32222 1.02271,0.30078 2.03429,0.59833 3.02692,0.98866 3.48818,1.49707 3.48846,1.49707 12.23776,1.88736 5.07724,0.15826 9.14385,-0.28926 13.03611,-3.42313 l 0.008,0.007 c 0,0 0.5046,-0.23711 2.53853,-2.34527 0.0256,-0.0265 0.0495,-0.052 0.0743,-0.0781 2.83536,-2.9285 5.86375,-5.7209 9.0258,-8.28689 0.59753,-0.47217 1.19275,-0.94729 1.78404,-1.42723 0.38014,-0.38106 0.76066,-0.76173 1.14179,-1.14179 1.10023,-0.72568 2.13492,-1.37373 3.06854,-2.30735 l 0.7374,-0.73741 c 0.95148,-0.47574 0.95148,-0.47574 1.90297,-1.14178 1.05088,-1.31275 1.52839,-2.52112 1.509,-4.21033 l -0.0818,-1.26072 c -0.0912,-2.53616 0.65767,-3.69829 2.34304,-5.53498 l 0.79687,-0.79241 c 0.61975,-0.64857 1.25128,-1.2865 1.90297,-1.90297 1.29899,-1.18339 2.20369,-2.28757 2.98009,-3.87137 l 0.32633,-0.69577 c 0.88034,-1.80307 1.92327,-3.57058 2.123,-5.5885 -0.021,-3.70704 -1.02262,-7.30083 -3.55023,-10.13482 l -0.7374,-0.64225 c -1.88558,-2.37218 -3.81195,-4.14104 -6.31104,-5.85016 l -0.92026,-0.61996 -1.18936,-0.80876 -1.09421,-0.71361 c -7.97069,-5.40451 -17.00237,-6.29019 -26.2603,-5.17743 h -0.21854 c 0,0 -0.61047,0.0629 -1.59226,0.21854 -0.031,0.005 -0.0618,0.007 -0.0929,0.0111 l -0.004,0.004 c -1.30757,0.21036 -3.24682,0.58609 -5.43983,1.22875 -1.24993,0.28503 -2.481,0.6394 -3.66025,1.17226 -2.28919,1.2936 -3.70749,2.56984 -4.57605,5.12168 -0.26995,0.82483 -0.54965,1.64654 -0.8385,2.46495 l -0.46683,1.25924 c -0.48009,1.31483 -0.90876,2.33316 -1.7662,3.44319 -0.75524,0.90986 -0.75524,0.90986 -1.2637,1.79444 -0.92465,2.10308 -1.16919,3.54931 -0.56494,5.7788 l 0.31221,0.94851 0.28842,0.92473 c 1.24226,3.50296 3.19281,7.20923 6.57864,8.98412 l 0.74483,0.36721 c 2.67311,1.68735 5.74222,2.73437 8.92019,2.83068 1.89662,-0.0982 3.23568,-0.52196 4.60728,-1.89703 0.98093,-1.18868 1.33927,-1.76354 1.22058,-3.33615 -0.66604,-1.02285 -0.66604,-1.02285 -1.85243,-1.4198 -0.74178,-0.18283 -1.48356,-0.36599 -2.2241,-0.5538 -0.75006,-0.19151 -1.50037,-0.38178 -2.25086,-0.57163 -0.92099,-0.22497 -1.80669,-0.4723 -2.71174,-0.76119 -0.38142,-1.30038 -0.38142,-1.30038 0,-2.66416 6.20629,-0.24894 11.19173,-1.48466 16.67481,-4.42442 1.28353,-0.70233 2.56285,-1.40278 3.87731,-2.04569 l 0.38059,0.76119 0.37019,0.71658 0.41479,0.85337 c 0.45087,0.84629 0.45087,0.84629 0.7374,1.8554 0.22304,2.17902 -0.0175,3.42764 -1.16185,5.28595 l -0.47946,0.7322 c -0.57511,0.931 -1.16361,1.83221 -1.78404,2.73553 -0.82458,0.81088 -1.24624,1.32909 -1.83161,2.37872 -1.05306,1.90515 -2.48296,3.42306 -3.97246,4.9953 l -1.04663,0.99906 c -1.18848,1.28497 -2.37316,2.41365 -3.80595,3.42536 -2.96814,1.49192 -6.12639,2.33005 -9.39742,1.44061 l -0.87864,-0.29883 c -1.23272,-0.3367 -1.23272,-0.3367 -1.95055,-0.70321 -3.86487,-2.37528 -6.26137,-5.29561 -7.86612,-9.12386 l -0.0268,-0.0104 c 0,0 -1.34383,-3.19197 -2.56158,-5.24953 -1.18915,-2.00926 -3.22918,-11.53185 -3.32574,-11.98428 -0.0309,-0.12453 -0.071,-0.22211 -0.10184,-0.35309 l -0.19996,-0.90612 c -0.74457,-3.36317 -1.2255,-6.72034 -0.33303,-10.10955 1.64944,-3.00434 4.41445,-5.20252 7.51675,-6.56526 0.54277,-0.21309 1.08198,-0.4354 1.61753,-0.66604 0.9723,-0.60003 1.85308,-1.12339 2.92731,-1.51941 2.78188,-0.85538 5.43762,-1.89947 8.10994,-3.04773 2.27694,-0.97837 4.5418,-1.91652 6.89828,-2.68795 1.38578,-0.44876 2.74294,-0.92396 4.09139,-1.4748 1.53981,-0.63083 3.09427,-1.2031 4.66229,-1.76025 1.14688,-0.40529 2.29459,-0.8063 3.43278,-1.23545 1.67766,-0.64694 3.37592,-1.22147 5.08302,-1.78552 1.23349,-0.40678 2.46805,-0.80771 3.68553,-1.26072 1.72825,-0.67745 3.48468,-1.23808 5.25845,-1.78404 1.27011,-0.38527 2.53996,-0.76244 3.78365,-1.22727 1.35318,-0.52298 2.69939,-0.99597 4.09437,-1.39675 5.33629,-1.51246 10.07833,-2.5951 13.50962,-7.27591 0.63705,-0.92547 0.63705,-0.92547 1.29789,-1.57738 1.20032,-1.15662 1.96564,-2.31866 2.26721,-3.96057 -0.27937,-1.45893 -0.27937,-1.45893 -2.11705,-3.02097 -0.76097,0.25441 -1.52221,0.50799 -2.28357,0.76119 -2.1795,0.70863 -4.3484,1.41435 -6.47011,2.28357 -1.00049,0.41046 -1.99698,0.79319 -3.02097,1.14178 -1.83608,0.59954 -3.65545,1.20399 -5.44727,1.92677 -1.34551,0.54975 -2.69416,1.08157 -4.0572,1.5863 l -0.79538,0.29288 c -1.66307,0.62189 -3.32682,1.23864 -5.01315,1.79519 l -0.89796,0.29214 c -0.61437,0.20063 -1.22887,0.40084 -1.84351,0.60062 -1.50455,0.47733 -2.92647,0.90788 -4.29061,1.71268 -0.90192,0.59612 -0.90192,0.59612 -2.04272,0.9381 -1.55102,0.43646 -3.10698,0.82535 -4.58424,1.47778 -1.84274,0.85385 -3.65864,1.52244 -5.61079,2.08435 -0.67895,0.19025 -1.35787,0.38055 -2.03678,0.5709 l -0.98643,0.28396 c -0.67088,0.18767 -0.86772,0.26483 -1.2228,0.39323 l -0.002,-0.007 c 0,0 -0.13048,0.0475 -0.18584,0.0676 -0.0734,0.0271 -0.11462,0.0318 -0.20888,0.0669 -0.006,0.006 -0.0141,0.01 -0.02,0.0156 -1.75664,0.62897 -8.68292,3.0378 -9.07184,2.06205 0.006,-0.0788 0.0116,-0.18949 0.0193,-0.25869 0.33404,-0.9658 1.10832,-1.84269 1.72011,-2.42778 4.57952,-3.25377 5.38928,-3.6812 11.68916,-6.51396 l 0.24605,-0.12117 c 0.83899,-0.26722 2.31466,-0.78069 4.25122,-1.68294 1.66022,-0.77352 6.96014,-4.15505 11.42527,-7.05513 0.72543,-0.38647 1.45096,-0.77282 2.17653,-1.15888 3.05988,-1.62801 6.1286,-3.24141 9.1536,-4.93361 2.56844,-1.5477 5.20145,-2.98369 7.88545,-4.32183 1.59651,-0.78057 3.14988,-1.59003 4.67418,-2.50509 0.6334,-0.39001 1.26774,-0.77852 1.90297,-1.16557 2.2587,-1.26949 4.38622,-2.27445 5.70892,-4.56713 0.22381,-1.51611 0.35181,-3.07166 -0.3241,-4.4824 -0.44051,-0.80536 -0.44023,-0.80536 -0.68239,-1.54022 l -0.26166,-0.80282 c -0.18869,-0.5711 -0.37649,-1.14249 -0.56346,-1.71416 -0.67555,-2.1562 -1.26002,-3.72391 -3.11612,-5.16182 -1.40344,0.0238 -1.40344,0.0238 -2.66416,0.3806 -0.72115,0.76524 -0.72116,0.76524 -1.50454,1.28153 l -0.87418,0.57387 -0.93365,0.61549 c -0.67377,0.44231 -1.34534,0.88798 -2.01596,1.33506 l -1.14179,0.76119 c -1.46263,0.96658 -2.92555,1.93044 -4.35751,2.94217 -1.60014,1.13793 -3.20324,2.22181 -4.8957,3.2187 -0.97752,0.57528 -1.86367,1.13258 -2.75931,1.83162 -4.14641,3.03029 -4.14641,3.03029 -8.53959,5.70892 l -0.88905,0.53818 -0.79984,0.48467 c -0.68834,0.40884 -0.68834,0.40884 -1.35587,0.88012 -0.84513,0.87563 -1.59688,1.57134 -2.61956,2.24343 -1.98631,1.17503 -3.94576,2.36028 -5.82489,3.70336 -0.93408,0.66786 -1.86564,1.30532 -2.84554,1.90447 -1.30239,0.76645 -2.57478,1.49406 -3.76729,2.4248 -0.79819,0.65492 -1.59458,1.23233 -2.45008,1.80782 -0.63481,0.41157 -1.26907,0.82397 -1.90297,1.23694 -1.23187,0.85834 -2.46245,1.68182 -3.73905,2.47238 -1.76521,0.83592 -2.77902,0.69484 -4.63404,0.19178 l 0.13083,-0.71659 c 0.61868,-1.19753 0.61868,-1.19753 1.82567,-1.9 0.5034,-0.30458 0.99829,-0.6234 1.48669,-0.95149 1.55721,-1.06022 3.1335,-2.05198 4.76339,-2.99718 0.54892,-0.3108 0.71754,-0.44075 0.94925,-0.58799 1.03186,-0.57238 2.80144,-1.64972 5.02133,-3.38447 0.92117,-0.71985 1.64884,-1.34404 2.22559,-1.87695 1.21813,-0.78006 2.3036,-1.56622 5.81001,-4.30771 0.54965,-0.42995 1.09976,-0.85955 1.65098,-1.28748 0.47312,-0.36716 0.94588,-0.73507 1.41831,-1.10313 l 0.71733,-0.55901 c 1.17676,-0.91099 2.32469,-1.80372 3.38372,-2.85149 0.65129,-0.694 0.65129,-0.694 1.34844,-1.19084 1.08832,-0.72639 2.03418,-1.43866 2.97488,-2.35642 2.57435,-2.64036 5.67056,-4.85116 8.71503,-6.91463 2.85909,-1.87095 7.28134,-4.144447 8.17386,-7.595537 0.0238,-1.28451 0.0238,-1.28451 -0.73738,-2.42629 -1.5204,-2.11979 -2.08188,-4.00656 -2.33114,-6.56526 -0.10852,-1.46073 -0.22272,-2.71388 -0.85337,-4.06167 -0.62144,-0.79092 -0.62144,-0.79092 -1.76322,-1.17151 -2.09063,1.90057 -3.68729,4.18582 -5.09789,6.6277 -2.0657,3.65516 -4.82895,6.82612 -7.84233,9.73787 -0.96653,0.77322 -1.89527,1.51468 -2.77121,2.390607 -0.89185,0.89185 -1.80039,1.74876 -2.73255,2.59727 -1.62844,1.47552 -3.2302,2.95981 -4.7723,4.52699 -1.31197,1.35305 -2.57315,2.80403 -4.10032,3.91745 -0.54073,0.33625 -1.075,0.68282 -1.6086,1.03028 -0.80855,1.03065 -1.55692,1.93315 -2.54672,2.79797 -1.05857,0.83822 -2.11567,1.67715 -3.1622,2.53036 -4.12188,3.42581 -4.12188,3.42588 -8.76112,6.16682 l -0.68388,0.41256 c -0.31276,0.15709 -5.99901,2.99852 -5.60634,1.75505 0.40368,-1.27833 1.04589,-1.64354 1.04589,-1.64354 l -7.6e-4,-0.002 c 0.18914,-0.12562 0.35982,-0.18035 0.75079,-0.48763 1.20613,-0.98501 2.3899,-1.99963 3.68404,-2.86785 0.95253,-0.59106 1.63421,-1.11501 2.36384,-1.9773 0.96024,-1.26999 2.02616,-2.37597 3.26033,-3.38522 1.27761,-1.03751 2.34405,-2.08933 3.35251,-3.39413 0.68793,-0.91827 1.37503,-1.8317 2.09327,-2.7266 1.96768,-2.42117 4.04556,-4.92565 5.75352,-7.6119 0.45236,-0.56376 4.93412,-6.165047 6.11628,-8.222127 l 0.71363,-0.7545 c 1.92355,-1.87156 3.66131,-3.87124 5.3878,-5.92301 l 0.82065,-0.99906 c 1.39291,-1.69392 2.15195,-2.96069 2.18842,-5.1856 -0.40041,-2.42066 -0.40041,-2.42066 -4.01111,-5.42199 -1.78778,-1.34219 -2.84326,-2.09872 -5.14695,-1.88067 -2.12329,1.11473 -2.12329,1.11473 -5.39969,8.37308 -0.47214,1.08217 -0.82314,2.0293 -1.64874,2.87825 -0.68721,0.66727 -0.68721,0.66727 -1.51495,2.45008 -0.44325,0.95469 -0.7997,1.74414 -1.52833,2.50657 -0.56494,0.53819 -0.56494,0.53819 -0.99906,1.19531 -1.21007,2.07075 -2.59011,3.97668 -4.13302,5.81299 -0.71544,0.71002 -1.41279,1.37211 -2.00704,2.18693 -0.77316,1.187147 -1.48107,2.054527 -2.56009,2.998667 -1.10717,0.8765 -2.0722,1.78445 -3.04476,2.80689 -1.0454,1.33578 -2.19724,2.65396 -3.53463,3.67214 -0.98994,0.54343 -3.70765,1.9728 -3.79033,1.31127 -0.10093,-0.80736 0.22449,-1.39452 0.22449,-1.39452 l 0.3687,-0.6155 0.64225,-1.07042 1.90297,-1.90297 c 0.59246,-1.00518 1.14914,-1.91158 1.90892,-2.80094 1.41928,-1.51852 2.79565,-3.042527 4.06167,-4.692017 0.79887,-1.04852 1.61206,-2.07101 2.47386,-3.06855 0.61409,-0.7008 1.20766,-1.40848 1.78998,-2.13638 l 0.80282,-1.00352 0.85783,-1.02136 0.87864,-1.04813 c 1.18215,-1.40143 2.08893,-2.71981 2.83067,-4.40062 0.4557,-2.0181 0.3565,-3.35207 -0.30626,-5.01984 -0.0581,-0.33034 -0.17526,-0.65061 -0.36796,-0.95223 -0.99078,-1.55079 -2.06357,-2.49869 -2.70876,-2.98157 -0.0666,-0.061 -0.11008,-0.11747 -0.1851,-0.18064 -1.01182,-0.73924 -1.01182,-0.73924 -1.87918,-1.61753 -0.91937,-1.49822 -0.83625,-2.34541 -0.64226,-4.09139 0.86954,-1.34221 0.86954,-1.34221 2.236,-2.25978 4.38906,-2.89678 7.73275,-8.214121 9.95493,-12.907509 l 0.3687,-0.817685 c 0.33933,-0.734522 0.67186,-1.472205 0.99906,-2.212207 2.6324,-6.504053 2.20567,-13.319256 -0.29957,-19.753017 l -0.29511,-0.751526 c -0.46644,-1.227542 -0.8459,-2.433918 -1.74538,-3.416432 -0.61757,-0.509497 -0.61757,-0.509496 -1.06596,-1.345462 -0.55782,-1.018136 -1.14253,-1.998192 -1.77958,-2.968937 -3.86855,-4.65889 -9.03818,-7.560433 -14.98889,-8.361191 l -0.85337,-0.107042 c -1.11473,-0.146038 -2.43655,-0.35845 -3.69296,-0.321127 z"/>
</svg>
