<?xml version="1.0" encoding="UTF-8" standalone="no"?>
<svg
   version="1.1"
   width="537"
   height="503"
   id="svg2"
   sodipodi:docname="spider.svg"
   inkscape:version="1.4 (86a8ad7, 2024-10-11)"
   xmlns:inkscape="http://www.inkscape.org/namespaces/inkscape"
   xmlns:sodipodi="http://sodipodi.sourceforge.net/DTD/sodipodi-0.dtd"
   xmlns="http://www.w3.org/2000/svg"
   xmlns:svg="http://www.w3.org/2000/svg">
  <defs
     id="defs2" />
  <sodipodi:namedview
     id="namedview2"
     pagecolor="#ffffff"
     bordercolor="#000000"
     borderopacity="0.25"
     inkscape:showpageshadow="2"
     inkscape:pageopacity="0.0"
     inkscape:pagecheckerboard="0"
     inkscape:deskcolor="#d1d1d1"
     inkscape:zoom="4"
     inkscape:cx="228"
     inkscape:cy="233.875"
     inkscape:window-width="1920"
     inkscape:window-height="1007"
     inkscape:window-x="1911"
     inkscape:window-y="-9"
     inkscape:window-maximized="1"
     inkscape:current-layer="svg2" />
  <path
     id="path1"
     style="fill:#a9a79c;fill-opacity:1"
     d="m 15.691407,-0.05078088 -3.595703,0.0097656 -3.9082034,0.0019531 C 6.137414,-0.01369153 4.0893285,0.00901661 2.0390631,0.00585975 L 6.2499998e-7,3.75e-7 C -13.050673,0.07181499 -13.050916,0.07132845 -13.679687,17.982422 c -0.632171,19.119578 -1.837959,38.22664 -3.462891,57.28711 l -0.257812,2.927734 c -0.262548,3.053894 -0.567136,6.081169 -0.9375,9.125 -0.580155,1.331456 -0.712738,1.508233 -1.726563,4.0625 -2.252685,10.027104 -5.587251,16.137014 -12.835937,23.562504 -2.905266,2.83077 -2.905266,2.83077 -8.4375,9.375 -5.416408,6.43351 -10.570764,11.84836 -18,16 -0.596972,-2.70934 -1.190205,-5.35067 -2,-8 -5.10115,-8.2062 -7.156996,-17.35336 -6,-27 2.884869,-6.776657 2.678518,-13.750959 2,-21.000004 -0.887016,-4.768458 -2.009398,-8.506072 -5.988281,-11.492188 -6.803034,-3.407392 -13.578314,-3.095457 -20.847657,-1.339843 l -1.976562,0.519531 c -6.70254,1.731712 -16.49064,3.329252 -20.54688,9.320312 -0.64062,1.992188 -0.64062,1.992188 0.48438,4.367188 l 1.875,2.625 c 1.30209,2.020481 2.63988,4.018116 4,6 l 1.58984,1.949219 1.66016,2.050781 c 2.8383,3.372234 3.0233,5.627154 2.75,10.000004 -6.57792,-0.41045 -12.74052,-0.86609 -19,-3 0.70621,-5.03178 1.44563,-9.919816 1,-15.000004 -2.74072,-9.410908 -8.64725,-13.919393 -16.91016,-18.53125 -3.34725,-0.750785 -5.09283,-0.07944 -8.08984,1.53125 -1.57422,3.414062 -1.57422,3.414062 -2.1582,5.472656 -0.34813,1.415608 -0.71231,2.82738 -1.09375,4.234375 l -0.57227,2.082031 c -0.56461,2.119248 -1.16066,4.172345 -1.91992,6.230469 -1.56182,3.977167 -2.79245,7.837492 -3.6875,12.017583 -1.01092,4.91345 -2.04513,9.82168 -3.23438,14.69531 l -0.70117,2.79101 c -0.45954,1.84671 -0.92045,3.69307 -1.38281,5.53907 -2.00553,7.69947 -3.52945,15.12267 -1.25,22.9375 3.8477,8.17636 10.54043,14.46051 18.5625,18.5 l 3.4375,1.5 -1,8 c -2.79079,-0.4129 -4.94537,-0.97187 -7.46484,-2.26954 l -2.47266,-1.54296 c -2.75809,-1.71108 -5.4784,-3.462 -8.1875,-5.25 -4.34723,-2.92966 -8.79021,-5.69471 -13.29297,-8.37891 -6.07251,-3.60585 -17.88844,-8.26502 -20.19726,-15.48438 l -0.33399,-2.17187 -0.38281,-2.41406 -0.35547,-2.55078 c -1.60552,-10.96953 -2.57461,-21.53419 1.53516,-32.1211 2.44297,-5.70685 4.18341,-11.37225 5.71484,-17.378904 0.96821,-3.877168 1.85922,-7.768661 3.16992,-11.546875 2.01459,-5.590632 3.15433,-11.145901 4.16211,-17 1.38962,-8.355655 2.76928,-16.669888 4.76172,-24.90625 0.50285,-1.981656 0.95426,-3.977358 1.34375,-5.984375 0.20359,-3.51245 0.6929,-5.218266 -1.67578,-7.890625 -2.32422,-1.109375 -2.32422,-1.109375 -4.86719,-1.21875 l -2.64453,0.359375 c -1.61139,0.198179 -3.2195,0.436623 -4.8125,0.75 -3.36777,2.157383 -3.36777,2.157383 -7.3125,3.3125 -3.54135,1.25712 -6.16687,2.223633 -8.98047,4.730469 l -1.70703,1.957031 c -3.27142,3.271421 -4.5942,6.422782 -6,10.75 -0.91251,2.922881 -1.80488,5.789643 -3,8.609375 -1.9431,4.159452 -3.58627,8.266898 -5,12.640625 -0.85303,2.741866 -1.73475,5.41178 -2.91992,8.029297 -2.19594,4.723129 -3.91257,9.334662 -5.20899,14.382812 l -0.62109,2.525391 c -3.36307,12.655778 -2.13898,24.397414 -0.20508,37.197264 l 0.39258,2.55274 c 0.47105,3.11479 0.95785,6.22054 1.5625,9.3125 0.96523,3.35983 1.93166,6.68056 2.65625,10.10156 l 0.71094,3.5664 c 0.50465,2.5061 1.0072,5.01263 1.50781,7.51954 l 0.73828,3.84961 0.75391,3.69335 c 0.65966,3.35621 0.65966,3.35621 1.63281,6.26954 2.1619,2.58409 3.74841,3.87474 6.76953,5.3789 l 3.04297,1.1836 3.19141,1.26562 c 1.21969,0.47706 2.43034,0.97687 3.64257,1.47266 2.01641,0.99433 6.01924,3.1126 6.32227,4.41797 0.30737,1.32407 -5.41853,1.12722 -8.23047,0.95312 -4.74698,-0.94255 -8.85156,-2.01367 -8.85156,-2.01367 l -0.35352,-0.0801 c -7.39532,-1.8391 -13.08509,-5.51035 -18.17383,-11.83984 l -1.35937,-1.73828 c -1.64,-2.09316 -3.27328,-4.1913 -4.90234,-6.29297 -2.10362,-2.71473 -4.20679,-5.43012 -6.31836,-8.13867 l -1.4668,-1.88086 c -2.38092,-3.07526 -4.72772,-6.08445 -7.4375,-8.87891 -4.83016,-4.65909 -8.91814,-9.76449 -12.6875,-15.30859 -1.00884,-1.53289 -1.40845,-2.01025 -1.88281,-2.66016 -0.0364,-0.0567 -0.0731,-0.1119 -0.11328,-0.16992 -3.47805,-5.02385 -8.05307,-11.49036 -8.19532,-11.69141 -4.00372,-6.22731 -9.31939,-11.8524 -14.875,-16.068358 -8.49271,-5.197667 -19.0019,-9.722892 -29.12109,-7.910156 -3.58235,1.89964 -3.58235,1.89964 -7.8125,2.375 -4.51348,0.851247 -7.73525,1.51189 -11.1875,4.625 0.30624,3.345094 0.79539,4.778724 3.10937,7.281254 l 2.64063,2.21875 2.74609,2.35937 c 1.83024,1.5647 3.59474,3.20721 5.31641,4.89063 l 2.1875,2.25 c 5.23987,5.10551 9.89355,10.53753 14.375,16.3125 1.8614,2.41612 3.73181,4.82106 5.63672,7.20312 2.55446,3.1724 5.11493,6.33704 7.58203,9.57813 l 1.46875,1.96875 c 0.97952,1.31223 1.95867,2.62474 2.9375,3.9375 2.98934,4.0236 5.76035,7.96695 9.625,11.1875 l 2.375,1.8125 c 3.20657,4.05536 6.40941,7.28116 10.4375,10.5625 2.43771,1.94108 4.89406,3.84298 7.22266,5.91406 3.05581,2.76181 6.29397,4.65443 9.90234,6.58594 2.92361,1.54455 5.4977,2.9837 8.125,5 4.40987,3.69476 4.40987,3.69476 15,9.5625 1.44041,0.78634 2.87833,1.57731 4.3125,2.375 12.2548,7.85563 25.98791,10.06461 40.00586,8.5625 3.00866,-0.052 6.61111,0.10746 7.61914,1.1875 1.0083,1.08032 -4.07903,2.98888 -8.57617,4.41406 -2.24541,0.18514 -4.4915,0.28021 -6.70508,0.30273 l -3.46875,-0.0293 c -14.08188,-0.063 -30.54449,-0.27309 -43.70703,-5.9375 -7.36833,-3.48883 -14.63327,-5.69932 -22.80469,-5.87305 l -2.23828,-0.002 c -8.27105,-0.0181 -14.68828,1.9049 -21.8457,5.91015 l -2.3418,1.33985 c -4.08952,2.28741 -8.12431,4.58766 -12.03516,7.17187 -2.73592,1.84113 -5.51633,3.52917 -8.35742,5.19922 -4.7352,2.78166 -9.4406,5.51831 -13.79492,8.87891 -5.95229,4.35044 -5.95229,4.35044 -12.19922,8.27734 -3.73568,2.3398 -7.40662,4.55445 -10.67578,7.53516 l -1.875,2.0625 c -2.25,2.4375 -2.25,2.4375 -4,5 -0.5625,2.4375 -0.5625,2.4375 0,5 2.51749,3.77624 4.98481,6.15415 8.8125,8.5625 1.39649,0.81136 2.79233,1.62386 4.1875,2.4375 6.31157,4.32191 12.53663,7.13415 20,9 6.59124,0.9205 13.21071,-0.30217 18.875,-3.75 2.71435,-1.95434 5.42773,-3.63007 8.3125,-5.3125 1.62636,-0.94185 3.23345,-1.91833 4.8125,-2.9375 2.49952,-2.52597 4.91333,-4.18876 7.99609,-5.94141 10e-6,0 0.004,0.004 0.004,0.004 0.375,-0.0625 6.0625,-3.625 8.3125,-5.125 2.02385,-1.34924 7.15365,-5.39738 8.21094,-6.23438 1.44982,-0.96387 2.89274,-1.93797 4.35156,-2.89062 2.0623,-1.34161 3.90281,-2.59372 5.65625,-4.32032 1.45558,-1.5367 1.45558,-1.5367 3.19531,-2.8789 4.46963,-3.06253 8.21455,-4.12829 13.20313,-3.75977 l 0.0703,-0.10351 c 1.25,0 10.75,-1.125 16,1.625 5.25,2.75 12.375,3 13.875,10.375 0.0194,0.0954 0.0268,0.18864 0.0312,0.28125 l 0.0937,-0.0312 c -0.0272,0.0815 -0.0717,0.14212 -0.0996,0.22265 -0.0266,0.41587 -0.20217,0.80371 -0.51562,1.16406 -1.78091,4.22541 -4.65834,7.10478 -8.50977,9.80079 l -2.875,1.8125 c -2.24047,2.29586 -4.33778,3.89555 -7.125,5.5 -1.09973,0.62841 -1.50119,0.96597 -1.99805,1.28906 -1.26351,0.64177 -3.46294,2.14299 -4.08593,2.94922 -0.56348,0.7292 -3.21526,3.12358 -4.50586,4.27539 -0.0144,0.0129 -0.009,0.009 -0.0234,0.0215 -1.04909,0.88354 -1.6344,1.29724 -3.57422,3.02735 l -2.6875,2.9375 c -7.02952,7.43038 -9.33074,14.45703 -11.36523,24.29882 -0.83357,4.11861 -1.69735,8.09943 -3.08008,12.07227 -1.75408,5.02085 -1.75408,5.02085 -4.61719,17.06641 l -0.77539,3.29492 -0.75977,3.13867 c -0.61623,2.76738 -0.61623,2.76738 -1.40234,5.12891 -1.64645,2.26517 -1.69064,2.30936 -3.11328,4.53906 -4.37252,11.25175 -10.52993,19.91948 -17.88672,29.46094 l -2.26172,2.65625 c -2.18568,2.94698 -2.07173,4.75921 -1.73828,8.34375 5.32865,2.66432 11.56474,4.53651 17.46094,5.33203 5.01466,0.10567 8.79067,-0.69644 12.47656,-4.14453 l 2.0625,-2.1875 c 4.86227,-4.03466 9.34475,-8.04766 13.4375,-12.875 1.8268,-2.23339 3.67954,-4.43865 5.5625,-6.625 l 1.375,-1.59375 1.625,-1.90625 c 3.26188,-3.68075 5.84716,-7.17618 8.08203,-11.55664 l 0.98047,-2.00586 c 2.51449,-5.07184 4.6141,-10.06379 6.25,-15.5 0.53519,-1.98673 1.09794,-3.96623 1.6875,-5.9375 1.57807,-3.53295 2.93927,-6.77714 3.95117,-10.51758 l 0.80274,-3.65821 c 0.60935,-2.71087 1.21358,-5.42265 1.80859,-8.13671 0.45403,-2.07336 0.90945,-4.146 1.375,-6.2168 l 0.44141,-1.95899 c 0.45061,-2.05375 0.95448,-4.09688 1.52343,-6.12109 l -0.0273,-0.0156 c 0,0 0.0544,-0.11814 0.0703,-0.1543 0.0207,-0.0729 0.0338,-0.14784 0.0547,-0.2207 0.0422,-0.0516 0.0457,-0.0427 0.0859,-0.0918 0.96651,-2.06917 5.2022,-10.47403 11.53906,-13.5332 7.1532,-3.45327 30.64051,-3.72726 31.27539,-3.73438 l 0.11133,0.55469 -0.008,0.0195 c -0.21231,15.0291 1.31649,30.49296 8.84765,43.89844 l 1.14844,1.88672 c 3.70782,6.49344 7.32988,11.86388 13.20312,16.5625 l 1.79688,1.4375 c 0.99385,1.00611 1.99309,2.00695 3,3 13.65136,7.70076 27.48437,11.03566 43,8 1.759774,-0.63312 1.603523,-0.50812 4.003906,-1.55079 7.674755,-2.21166 13.981673,-5.04056 20.808594,-9.13671 13.235776,-9.60243 27.818831,-21.42652 31.1875,-38.3125 1.289967,-16.80265 -2.938305,-27.53192 -12.644531,-41.12891 l -1.355469,-1.87109 c 11.043836,0 22.994204,3.18468 31.09375,11.02734 1.90625,1.97266 1.90625,1.97266 3.617187,3.32422 4.542141,3.4759 7.1543441,7.30211 9.9492192,12.26172 1.0709481,1.90772 2.2512871,3.75388 3.4648438,5.57422 2.6521732,3.97826 5.016934,8.03879 7.0976562,12.33984 1.7110522,3.56338 3.1139246,6.76903 5.8398438,9.66016 2.157374,1.83449 2.157374,1.83449 3.6875,4.9375 3.202172,5.88335 7.607207,11.21724 12.320312,15.95703 1.913179,1.84338 1.913177,1.84338 3.421875,3.69922 3.835489,4.76727 7.293448,7.24783 12.507813,10.6875 l 1.59375,1.40625 1.40625,1.125 1.90625,1.33203 c 3.473174,1.98243 6.966275,3.91498 10.292969,6.13672 4.237098,2.86357 7.526868,4.42784 12.800781,4.53125 3,-2 3,-2 3.875,-4.0625 0.226243,-5.31672 0.226488,-5.31574 -5.802734,-18.44336 l -1.072266,-2.30664 c -1.677153,-3.61427 -3.263947,-7.15266 -5.578125,-10.40625 -1.500563,-1.7994 -1.500563,-1.7994 -2.78125,-4.04297 -3.74874,-6.53924 -7.840197,-12.89898 -13.167969,-18.28125 -1.504959,-1.45198 -1.504951,-1.45198 -2.902344,-3.10547 -3.896768,-4.65506 -7.894044,-8.95467 -12.570312,-12.85156 l -3,-2.5 c -3.358122,-3.4029 -6.761821,-6.51786 -10.5,-9.5 -1.851733,-1.47723 -3.685393,-2.9774 -5.5,-4.5 C 10.231055,281.83095 8.1061499,279.601 5.1542975,277.74805 -5.0667982,270.69053 -5.0667974,270.69053 -14.33789,262.32227 l -1.84375,-1.63282 -1.84375,-1.61718 c -0.444396,-0.39455 -0.869818,-0.70306 -1.298828,-1.05274 2.59e-4,-1.6e-4 0.01758,-0.01 0.01758,-0.01 0,0 -0.17748,-0.12464 -0.214844,-0.15039 -0.735261,-0.58965 -1.538354,-1.1544 -2.332031,-1.66016 -1.633501,-1.1955 -3.449957,-2.60615 -3.484375,-3.00195 -0.04323,-0.49717 4.772334,-1.61743 7.773437,-2.26758 1.373815,-0.22257 2.845044,-0.50028 3.953125,-0.58399 l 2.4375,-0.36328 c 3.4864028,-0.53649 6.973221,-1.0698 10.460938,-1.59765 2.6322286,-0.3979 5.2633765,-0.79624 7.8945312,-1.20118 l 2.5195313,-0.38867 c 4.2726745,-0.63546 8.4007405,-1.31654 12.5683595,-2.47461 3.395731,-1.04674 3.394755,-1.04698 6.9375,-1.74414 1.907229,-0.35556 3.814426,-0.71164 5.720703,-1.07226 2.098315,-0.39706 4.197567,-0.78988 6.296875,-1.18164 2.102945,-0.39145 4.204906,-0.78373 6.306641,-1.18164 l 2.009765,-0.38086 c 3.529595,-0.65862 6.89247,-1.36461 10.314453,-2.45313 1.62993,-0.57157 3.268339,-1.12385 4.921875,-1.62305 l 1.908203,-0.54492 c 1.450215,-0.41904 2.90074,-0.83699 4.351563,-1.2539 4.30746,-1.22794 8.561971,-2.49845 12.753906,-4.08204 2.387264,-0.91811 4.76698,-1.78859 7.1875,-2.62109 11.090682,-3.79032 23.073642,-7.93634 32.230462,-15.46094 3.14523,-3.02685 4.3619,-5.23529 4.70313,-9.58593 -0.29713,-3.34273 -0.62538,-4.28863 -3.1875,-6.4375 -4.30649,-1.93353 -7.33974,-1.29362 -12.00184,-0.84467 -2.48917,0.68358 -3.0195,0.72826 -4.60168,0.99506 l -3.36523,0.56054 c -2.53062,0.43337 -5.061908,0.86286 -7.593748,1.28907 -6.608188,1.0991 -13.193312,2.0411 -19.546875,4.21875 -7.710768,2.78066 -15.713005,3.4113 -23.849609,3.76171 -10.642328,0.43375 -21.268493,1.05292 -31.896485,1.75 -3.019513,0.20058 -6.038554,0.39928 -9.058594,0.5918 -2.024569,0.12896 -4.0499263,0.26129 -6.0742183,0.39453 l -2.8710937,0.18946 c -3.07749224,0.19316 -7.0605083,0.64683 -10.1753968,1.55844 -5.0912872,0.73471 -1.776479,0.38067 -6.4144472,0.60367 l -2.675781,0.11914 c -12.687968,0.58729 -25.293554,0.93762 -37.9375,-0.5625 v -2 c 3.484099,-1.53211 6.929151,-2.97473 10.515625,-4.25391 9.542138,-3.34374 18.286617,-7.59113 27.167969,-12.41016 3.380301,-1.8414 6.791227,-3.59054 10.253906,-5.27343 1.3705682,-0.6542 2.7272698,-1.33891 4.0625,-2.0625 3.0837149,-2.33175 6.1295044,-4.20644 9.5625,-6 2.579572,-1.34404 4.892039,-2.467 6.976562,-4.50391 1.482658,-1.6292 1.482653,-1.6292 3.730469,-2.96094 3.646133,-2.11151 7.264748,-4.23101 10.792969,-6.53515 3.959597,-2.6959 7.930135,-5.37551 11.9375,-8 1.673341,-0.9888 3.341519,-1.98649 5,-3 2.46526,-1.99965 4.890989,-3.92817 7.542969,-5.67579 14.154507,-8.76032 29.252899,-17.514 37.097656,-32.61718 l 1.359375,-2.70703 c 1.950273,-3.70407 3.17237,-6.9644 3.25,-11.1875 -0.477781,-7.286215 -2.855548,-10.89432 -8.25,-15.812504 -4.016634,-2.661099 -7.770217,-5.190111 -12.703125,-4.769531 -2.296875,0.769532 -2.296875,0.769531 -3.921875,3.144531 l -1.375,2.625 c -0.955661,0.932602 -1.783224,1.813627 -2.556641,2.748047 -0.488958,0.564099 -2.428511,2.849219 -3.396484,4.785156 -0.758666,1.51734 -3.408664,5.836716 -5.037109,8.466801 h -0.0098 l -1.25,2 c -1.815833,3.11285 -3.834444,5.89831 -6.019531,8.75781 l -1.730469,2.24219 c -6.463814,8.53812 -13.834341,17.71531 -24.078125,21.83593 -1.975308,0.71765 -3.948701,1.44057 -5.921875,2.16407 -3.532977,2.65145 -3.532977,2.65145 -7.876953,3.80664 -4.4089523,1.20379 -8.8827049,2.26892 -13.1132814,4.01562 -3.9284979,1.75969 -6.6720594,2.49513 -11.0097656,2.17774 l 2,-2 c 4.9585533,-4.82807 8.751758,-9.41672 12.0625,-15.5 0.9725912,-1.83683 1.9516456,-3.67026 2.9375,-5.5 2.3800562,-3.62183 3.7242816,-6.95866 4.8945312,-11.0918 1.1876448,-4.35597 2.2996648,-8.7448 3.8769528,-12.97852 8.301894,-21.190295 8.301253,-21.18996 8.591797,-78.445309 l 0.01172,-2.546875 c 0.02282,-2.450335 0.04129,-4.899166 0.03516,-7.349609 L 22.060547,10.66211 C 22.088793,7.3253954 22.25829,4.359668 20.546876,1.3867191 18.661378,0.32275436 18.662355,0.32153357 15.691407,-0.05078088 Z"
     transform="translate(379.33789,44.677734)"
     sodipodi:nodetypes="ccccccccccccccccccccccccccccccccccccccccccccccccccccccccccccccccccccccccccccccccccsccccccccccccccccccccccccccccccccccccsccccccccccccccccccccccscsccccccssccccccccssccccccccccccccccccccccccccccccccccscccccscccccccccccsccccccccccccccccccscscccccccccscccccccccccccccccccccccccccccccccccccccccccccccccccccccsccccccccccccccccccccc" />
</svg>
