<svg width="250" height="250" xmlns="http://www.w3.org/2000/svg">
	<path fill="#a9a79c" d="m 183.31501,31.569847 -1.65608,0.0045 -1.79999,9.2e-4 c -0.94421,0.012 -1.88749,0.022 -2.83178,0.021 l -0.93911,-0.0027 c -6.01072,0.033 -6.01084,0.033 -6.30044,8.282137 -0.2912,8.805878 -0.8465,17.605996 -1.59489,26.384644 l -0.1187,1.348424 c -0.1209,1.406525 -0.2612,2.800799 -0.4318,4.202694 -0.2672,0.613202 -0.3283,0.694602 -0.7952,1.871056 -1.03752,4.618165 -2.57331,7.432204 -5.91183,10.852155 -1.33808,1.303754 -1.33808,1.303754 -3.88606,4.317827 -2.49462,2.96308 -4.86855,5.45698 -8.29022,7.3691 -0.2749,-1.24784 -0.5482,-2.46436 -0.92111,-3.68455 -2.34942,-3.77952 -3.29629,-7.992417 -2.7634,-12.435351 1.32867,-3.12112 1.23364,-6.333261 0.9211,-9.671941 -0.4085,-2.196208 -0.9255,-3.917633 -2.75801,-5.292947 -3.13327,-1.569335 -6.25375,-1.425665 -9.60178,-0.617102 l -0.9103,0.2393 c -3.08698,0.797603 -7.59508,1.533345 -9.46325,4.292644 -0.29501,0.917503 -0.29501,0.917503 0.2231,2.011377 l 0.8636,1.208993 c 0.5997,0.930603 1.21585,1.850616 1.84227,2.763409 l 0.73221,0.897703 0.7646,0.944503 c 1.30722,1.553145 1.39243,2.591688 1.26656,4.605685 -3.02959,-0.189001 -5.86789,-0.398901 -8.7508,-1.381704 0.3253,-2.317488 0.6658,-4.568755 0.4606,-6.908533 -1.2623,-4.334374 -3.98266,-6.41083 -7.7883,-8.534917 -1.54163,-0.345801 -2.3456,-0.037 -3.72592,0.705302 -0.725,1.572405 -0.725,1.572405 -0.994,2.520538 -0.1603,0.652002 -0.3281,1.302195 -0.5037,1.950217 l -0.26361,0.958903 c -0.26,0.976103 -0.5346,1.921656 -0.8843,2.869559 -0.7193,1.831766 -1.28612,3.609701 -1.69835,5.534918 -0.46561,2.262987 -0.94191,4.523564 -1.48966,6.768201 l -0.3229,1.285453 c -0.2116,0.8505 -0.4239,1.70092 -0.6369,2.55112 -0.9237,3.54614 -1.62556,6.96503 -0.5757,10.564286 1.77213,3.76579 4.85459,6.66006 8.5493,8.52053 l 1.58321,0.6909 -0.4606,3.68454 c -1.28535,-0.1902 -2.27768,-0.4476 -3.43807,-1.04527 l -1.13883,-0.7106 c -1.27029,-0.7881 -2.52318,-1.59449 -3.77091,-2.41799 -2.0022,-1.3493 -4.048492,-2.6228 -6.122322,-3.85906 -2.79681,-1.66074 -8.23886,-3.8066 -9.30223,-7.131606 l -0.1538,-1.00031 -0.1763,-1.11183 -0.1637,-1.17481 c -0.7395,-5.05222 -1.18578,-9.917976 0.707,-14.793972 1.12517,-2.628398 1.92676,-5.237707 2.63208,-8.004175 0.4459,-1.785706 0.8563,-3.578002 1.45997,-5.318127 0.9279,-2.574879 1.45278,-5.133457 1.91693,-7.829676 0.64,-3.848352 1.27545,-7.677624 2.19311,-11.471036 0.2316,-0.912703 0.4395,-1.831846 0.6189,-2.756219 0.094,-1.617715 0.3191,-2.403368 -0.7718,-3.634172 -1.07047,-0.510901 -1.07047,-0.510901 -2.24167,-0.561302 l -1.21799,0.165501 c -0.74221,0.091 -1.4828,0.201101 -2.21649,0.345401 -1.55109,0.993603 -1.55109,0.993603 -3.3679,1.525635 -1.631036,0.579002 -2.84027,1.024133 -4.136124,2.178697 l -0.786203,0.901303 c -1.506715,1.506715 -2.115937,2.958129 -2.763409,4.951116 -0.420301,1.346184 -0.831302,2.666528 -1.381704,3.965202 -0.894903,1.915717 -1.651725,3.807473 -2.302848,5.821879 -0.392901,1.262814 -0.799002,2.492498 -1.344824,3.698042 -1.011373,2.175327 -1.802006,4.299254 -2.399098,6.624271 l -0.286,1.163114 c -1.548925,5.828859 -0.985104,11.236686 -0.094,17.131898 l 0.180801,1.17571 c 0.217001,1.43458 0.441201,2.86499 0.719602,4.28904 0.444602,1.54744 0.889703,3.07686 1.223384,4.65247 l 0.327401,1.642556 c 0.232401,1.15424 0.463902,2.30867 0.694502,3.46328 l 0.340001,1.773 0.347202,1.70105 c 0.303801,1.54576 0.303801,1.54576 0.752002,2.88755 0.995703,1.19015 1.726395,1.78458 3.11783,2.47735 l 1.401504,0.54511 1.469855,0.5829 c 0.561802,0.2197 1.119344,0.4499 1.677656,0.6783 0.928702,0.4579 2.77228,1.43356 2.91184,2.03478 0.1416,0.6098 -2.495599,0.5192 -3.790693,0.439 -2.186307,-0.4341 -4.076753,-0.92741 -4.076753,-0.92741 l -0.162801,-0.037 c -3.406051,-0.847 -6.026579,-2.53788 -8.370297,-5.45305 l -0.626102,-0.80061 c -0.755302,-0.9641 -1.507575,-1.93038 -2.257867,-2.89834 -0.968903,-1.25033 -1.937516,-2.50095 -2.910039,-3.74842 l -0.675602,-0.8663 c -1.096574,-1.41636 -2.177437,-2.802296 -3.425471,-4.089336 -2.224628,-2.14584 -4.107424,-4.49723 -5.843469,-7.05067 -0.464602,-0.706 -0.648702,-0.9258 -0.867203,-1.22518 -0.017,-0.026 -0.034,-0.052 -0.052,-0.078 -1.601886,-2.31383 -3.708993,-5.292096 -3.774513,-5.384697 -1.843986,-2.868099 -4.292224,-5.458837 -6.850962,-7.400573 -3.911473,-2.393888 -8.751678,-4.478065 -13.412263,-3.643172 -1.649915,0.874903 -1.649915,0.874903 -3.598192,1.093843 -2.078766,0.392102 -3.562611,0.696303 -5.152606,2.130137 0.141,1.540645 0.366301,2.200927 1.432074,3.353511 l 1.216194,1.021893 1.264764,1.086644 c 0.843003,0.720602 1.655626,1.477144 2.448568,2.252477 l 1.007493,1.036273 c 2.413328,2.351444 4.556665,4.853264 6.620682,7.513034 0.857302,1.11278 1.718755,2.22043 2.596088,3.31753 1.176504,1.46111 2.355778,2.91864 3.492051,4.411386 l 0.676502,0.9067 c 0.451102,0.6044 0.902103,1.20887 1.352915,1.81348 1.376794,1.85315 2.653038,3.66934 4.432974,5.15262 l 1.093853,0.8348 c 1.476845,1.86777 2.95197,3.35347 4.807186,4.86476 1.122733,0.894 2.254047,1.76995 3.32653,2.72383 1.407415,1.272 2.89881,2.14368 4.560705,3.03328 1.346524,0.7114 2.532068,1.37419 3.742122,2.30283 2.031047,1.7017 2.031047,1.7017 6.908532,4.4042 0.663402,0.3622 1.325664,0.7265 1.986197,1.09385 5.644178,3.61805 11.969213,4.63544 18.425453,3.94361 1.38569,-0.024 3.04487,0.049 3.50914,0.54691 0.4644,0.4976 -1.87868,1.37658 -3.94993,2.03297 -1.03416,0.085 -2.06863,0.129 -3.08815,0.1394 l -1.59759,-0.013 c -6.485672,-0.029 -14.067836,-0.1258 -20.130085,-2.73463 -3.393621,-1.60684 -6.739632,-2.62492 -10.503124,-2.70493 l -1.030883,-9.2e-4 c -3.809392,-0.008 -6.764962,0.8773 -10.061443,2.72202 l -1.078563,0.61711 c -1.883506,1.0535 -3.741802,2.11292 -5.543018,3.30314 -1.260084,0.848 -2.540648,1.62542 -3.849162,2.39459 -2.180887,1.28115 -4.348044,2.54156 -6.35351,4.08935 -2.741439,2.00367 -2.741439,2.00367 -5.618578,3.81228 -1.720536,1.07764 -3.411261,2.09764 -4.916936,3.47046 l -0.863603,0.9499 c -1.036283,1.12264 -1.036283,1.12264 -1.842276,2.30285 -0.259101,1.12264 -0.259101,1.12264 0,2.30284 1.159484,1.73921 2.295847,2.83441 4.058763,3.94362 0.643202,0.3737 1.286064,0.7479 1.928636,1.12264 2.90691,1.99053 5.773979,3.28577 9.21137,4.14512 3.03572,0.424 6.084439,-0.1392 8.693228,-1.72714 1.250154,-0.9001 2.499848,-1.67189 3.828482,-2.44676 0.749102,-0.43381 1.489225,-0.88351 2.216487,-1.35293 1.151204,-1.16338 2.262927,-1.92922 3.682752,-2.73643 0,0 0.0018,0.002 0.0018,0.002 0.1727,-0.029 2.792199,-1.66955 3.828472,-2.36041 0.932103,-0.6214 3.294751,-2.48586 3.781702,-2.87135 0.667702,-0.44391 1.332305,-0.89261 2.004197,-1.33134 0.949803,-0.6179 1.797505,-1.19458 2.605088,-1.98981 0.670402,-0.7077 0.670402,-0.7077 1.471665,-1.32592 2.058566,-1.4105 3.783362,-1.90137 6.080939,-1.73164 l 0.032,-0.048 c 0.575702,0 4.951116,-0.5181 7.369104,0.74841 2.417978,1.26656 5.699538,1.3817 6.39039,4.77839 0.0089,0.044 0.012,0.087 0.014,0.1295 l 0.043,-0.014 c -0.013,0.038 -0.033,0.065 -0.046,0.1025 -0.012,0.1915 -0.093,0.3702 -0.2375,0.5361 -0.820203,1.9461 -2.145487,3.27225 -3.919333,4.51394 l -1.324134,0.8348 c -1.031893,1.05741 -1.997847,1.79417 -3.281551,2.53313 -0.506501,0.2894 -0.691402,0.4449 -0.920203,0.5937 -0.581901,0.2956 -1.594915,0.98701 -1.881846,1.35832 -0.2595,0.3359 -1.480854,1.43862 -2.075256,1.96911 -0.0066,0.006 -0.0041,0.004 -0.011,0.01 -0.483202,0.4069 -0.752803,0.5975 -1.646176,1.39431 l -1.237774,1.35291 c -3.23758,3.4222 -4.297453,6.65846 -5.234476,11.19128 -0.383902,1.8969 -0.781703,3.73034 -1.418585,5.56011 -0.807902,2.31244 -0.807902,2.31244 -2.126537,7.86025 l -0.357101,1.51754 -0.349901,1.44557 c -0.283801,1.27457 -0.283801,1.27457 -0.645902,2.36222 -0.758302,1.04326 -0.778702,1.06362 -1.433885,2.09054 -2.013846,5.18221 -4.849755,9.17429 -8.238056,13.56879 l -1.041683,1.22339 c -1.006654,1.35729 -0.954203,2.19194 -0.800603,3.84286 2.454208,1.22711 5.326357,2.08938 8.041956,2.45577 2.309597,0.049 4.048713,-0.3208 5.746318,-1.90883 l 0.949903,-1.0075 c 2.239408,-1.85824 4.303894,-3.7065 6.18889,-5.92983 0.841403,-1.02862 1.694686,-2.04429 2.561908,-3.05126 l 0.633302,-0.734 0.748403,-0.878 c 1.502315,-1.69524 2.693018,-3.30512 3.722322,-5.32263 l 0.451601,-0.9238 c 1.158094,-2.33593 2.125107,-4.63507 2.878549,-7.13881 0.246501,-0.91501 0.505702,-1.82673 0.777203,-2.73463 0.726802,-1.62717 1.353734,-3.12134 1.819786,-4.84407 l 0.369701,-1.68485 c 0.280601,-1.24855 0.558902,-2.49751 0.833003,-3.74753 0.2091,-0.9549 0.418901,-1.90951 0.633302,-2.86326 l 0.2033,-0.9023 c 0.207501,-0.9459 0.439602,-1.88688 0.701603,-2.81918 l -0.013,-0.007 c 0,0 0.025,-0.054 0.032,-0.071 0.0095,-0.034 0.016,-0.068 0.025,-0.1017 0.019,-0.024 0.021,-0.02 0.04,-0.042 0.445101,-0.953 2.395967,-4.824 5.314528,-6.23296 3.29454,-1.59047 14.112062,-1.71666 14.404462,-1.71994 l 0.051,0.2555 -0.004,0.009 c -0.098,6.92193 0.6063,14.04409 4.07495,20.21824 l 0.5289,0.86901 c 1.70771,2.99066 3.37592,5.46412 6.08095,7.62816 l 0.8276,0.6621 c 0.4577,0.4634 0.9179,0.9243 1.38171,1.38171 6.28739,3.54673 12.65844,5.08267 19.80445,3.68455 0.8105,-0.2916 0.7385,-0.234 1.84408,-0.7143 3.53475,-1.01862 6.43952,-2.32152 9.58379,-4.20809 6.09598,-4.42257 12.81248,-9.86838 14.36397,-17.64553 0.5941,-7.73877 -1.35328,-12.68034 -5.82367,-18.94269 l -0.6243,-0.8618 c 5.08645,0 10.59042,1.46676 14.32081,5.07885 0.878,0.9085 0.878,0.9085 1.66596,1.53102 2.09197,1.6009 3.29507,3.36313 4.58231,5.64737 0.4932,0.8786 1.03686,1.72892 1.59579,2.56731 1.22151,1.83227 2.31064,3.70241 3.26896,5.68335 0.78811,1.64117 1.43418,3.1176 2.68965,4.44916 0.99361,0.8449 0.99361,0.8449 1.69835,2.27406 1.47481,2.70969 3.50364,5.16631 5.67435,7.3493 0.8812,0.84901 0.8812,0.84901 1.576,1.70375 1.76652,2.19566 3.35914,3.33813 5.76071,4.92233 l 0.734,0.64771 0.6477,0.5181 0.87801,0.6135 c 1.59963,0.913 3.20845,1.80312 4.74061,2.82638 1.95148,1.31886 3.46664,2.03933 5.89564,2.08695 1.3817,-0.92111 1.3817,-0.92111 1.78471,-1.87106 0.1042,-2.44872 0.1043,-2.44827 -2.67256,-8.49444 l -0.4939,-1.06236 c -0.77241,-1.66462 -1.50328,-3.29429 -2.56911,-4.7928 -0.6911,-0.8287 -0.6911,-0.8287 -1.28096,-1.86206 -1.72655,-3.01177 -3.61095,-5.94086 -6.06475,-8.41977 -0.6931,-0.6687 -0.6931,-0.6687 -1.33673,-1.43028 -1.79474,-2.14398 -3.63575,-4.12425 -5.78949,-5.91903 l -1.38019,-1.15252 c -1.54665,-1.56727 -3.11428,-3.00193 -4.83597,-4.3754 -0.8528,-0.6804 -1.69737,-1.3713 -2.53313,-2.07256 -1.11959,-1.14746 -2.09825,-2.1745 -3.45779,-3.02792 -4.70751,-3.25047 -4.70751,-3.25047 -8.97749,-7.10462 l -0.8492,-0.752 -0.8492,-0.7448 c -0.2047,-0.18171 -0.4006,-0.32381 -0.5982,-0.48491 1.2e-4,-7e-5 0.008,-0.005 0.008,-0.005 0,0 -0.082,-0.057 -0.099,-0.069 -0.33861,-0.2716 -0.70851,-0.5317 -1.07407,-0.7646 -0.7523,-0.5506 -1.58894,-1.20031 -1.60479,-1.3826 -0.02,-0.229 2.19798,-0.74491 3.5802,-1.04438 0.6327,-0.1025 1.31033,-0.2304 1.82068,-0.269 l 1.12264,-0.1673 c 1.60573,-0.2471 3.21165,-0.4927 4.81798,-0.7358 1.21232,-0.1833 2.42415,-0.3667 3.63598,-0.5532 l 1.16041,-0.179 c 1.96787,-0.2927 3.86912,-0.6064 5.78859,-1.13974 1.56397,-0.4821 1.56352,-0.4822 3.1952,-0.8033 0.8784,-0.1638 1.7568,-0.3278 2.63478,-0.4939 0.9664,-0.1829 1.93326,-0.3638 2.90014,-0.5442 0.9685,-0.1803 1.93665,-0.361 2.90463,-0.5442 l 0.92561,-0.1754 c 1.62561,-0.30331 3.17445,-0.62851 4.7505,-1.12984 0.75071,-0.2632 1.50531,-0.5176 2.26687,-0.7475 l 0.8789,-0.251 c 0.66791,-0.193 1.33599,-0.3855 2.00419,-0.5775 1.98389,-0.56561 3.94337,-1.15072 5.87405,-1.88007 1.0995,-0.4228 2.19553,-0.8238 3.31034,-1.20718 5.10802,-1.74571 10.62699,-3.65523 14.84434,-7.12083 1.44859,-1.39407 2.00895,-2.41121 2.16611,-4.41498 -0.1369,-1.53956 -0.288,-1.97521 -1.46806,-2.96491 -1.98344,-0.8905 -3.38045,-0.5958 -5.52767,-0.389 -1.14643,0.3148 -1.39068,0.3354 -2.11939,0.4583 l -1.54992,0.2582 c -1.16552,0.1996 -2.33136,0.3974 -3.49744,0.5937 -3.04353,0.50621 -6.07643,0.94011 -9.00268,1.94303 -3.55134,1.28068 -7.23691,1.57113 -10.98439,1.73253 -4.90151,0.1998 -9.79559,0.4849 -14.69051,0.806 -1.3907,0.092 -2.78117,0.1839 -4.17211,0.2726 -0.9324,0.059 -1.86527,0.1203 -2.7976,0.1817 l -1.32233,0.087 c -1.41739,0.089 -3.25185,0.2979 -4.68646,0.7178 -2.34489,0.3384 -0.81821,0.1753 -2.9543,0.278 l -1.23238,0.055 c -5.84369,0.2705 -11.64942,0.4318 -17.47282,-0.2591 v -0.9211 c 1.60466,-0.7056 3.19135,-1.37007 4.84316,-1.95922 4.39482,-1.54002 8.42224,-3.49624 12.51272,-5.71573 1.55686,-0.8481 3.12782,-1.65369 4.72263,-2.42877 0.6312,-0.3013 1.25609,-0.61671 1.87105,-0.94991 1.42027,-1.07393 2.82306,-1.93735 4.4042,-2.76342 1.18806,-0.619 2.25311,-1.13621 3.21318,-2.07435 0.6829,-0.7503 0.6829,-0.7503 1.71813,-1.36372 1.6793,-0.9725 3.34592,-1.94866 4.97091,-3.00989 1.82366,-1.24164 3.65237,-2.47578 5.49804,-3.68454 0.7707,-0.4554 1.53899,-0.9149 2.30284,-1.38171 1.13542,-0.92101 2.25264,-1.809186 3.47405,-2.614086 6.51913,-4.03472 13.47298,-8.0664 17.08603,-15.022449 l 0.6261,-1.246774 c 0.8982,-1.705975 1.4611,-3.20758 1.49685,-5.152616 -0.2201,-3.355791 -1.31518,-5.017576 -3.7997,-7.282733 -1.84993,-1.225624 -3.57872,-2.390408 -5.85065,-2.196698 -1.05788,0.354402 -1.05788,0.354402 -1.8063,1.448265 l -0.6333,1.208994 c -0.4401,0.429501 -0.82131,0.835303 -1.17751,1.265674 -0.2252,0.259801 -1.11849,1.312254 -1.56431,2.203887 -0.3494,0.698802 -1.56993,2.688209 -2.31994,3.899543 h -0.005 l -0.5757,0.921103 c -0.8363,1.433684 -1.76603,2.716578 -2.77241,4.033572 l -0.797,1.032684 c -2.97703,3.932388 -6.37166,8.159118 -11.08963,10.056938 -0.9098,0.33051 -1.81865,0.66351 -2.72743,0.99671 -1.62718,1.22118 -1.62718,1.22118 -3.62788,1.75322 -2.03062,0.5544 -4.09109,1.045 -6.03957,1.84947 -1.80933,0.8105 -3.07294,1.149176 -5.07074,1.003 l 0.9211,-0.9211 c 2.28376,-2.22366 4.03079,-4.33704 5.55561,-7.13881 0.448,-0.84601 0.8989,-1.69041 1.35292,-2.53313 1.09618,-1.66811 1.71529,-3.204942 2.25427,-5.108538 0.547,-2.006227 1.05915,-4.027583 1.7856,-5.977499 3.8236,-9.759582 3.8233,-9.759432 3.95712,-36.129446 l 0.005,-1.173014 c 0.011,-1.128544 0.019,-2.256397 0.016,-3.385001 l -0.005,-1.035263 c 0.013,-1.536795 0.091,-2.902709 -0.6971,-4.271954 -0.86841,-0.490001 -0.86801,-0.490601 -2.23628,-0.662102 z" />
</svg>
