<svg width="250" height="250" xmlns="http://www.w3.org/2000/svg">
	<path fill="#878d22" d="m 146.73549,28.634645 c -2.10517,0.03228 -4.43377,0.570501 -6.22384,1.094729 -0.18129,0.10042 -0.36423,0.197706 -0.54528,0.298689 -3.3678,1.66477 -3.36802,1.664572 -7.21576,1.570547 -0.55882,-0.0099 -1.11725,-0.01763 -1.67613,-0.02292 -1.97144,-0.01675 -3.94235,-0.05176 -5.91334,-0.09655 l -1.19892,-0.02848 c -3.38694,-0.07872 -6.77324,-0.165948 -10.15959,-0.266736 -0.74493,-0.02228 -1.49033,-0.04425 -2.2353,-0.06529 -1.20446,-0.03376 -2.40844,-0.06988 -3.61274,-0.109056 l -1.34688,-0.04515 -1.29687,-0.03612 -1.18572,-0.04307 c -1.00541,-0.01432 -1.00507,-0.01414 -1.85743,-0.145871 -0.92364,-0.923641 -0.92364,-0.923641 -3.571766,-1.607362 -1.9993,-0.324854 -3.5535,0.07972 -5.23052,1.18503 l -0.80021,0.777979 c -1.68131,1.564007 -2.39302,2.909337 -3.20083,5.023527 -0.22181,0.583969 -0.45686,1.163279 -0.7113,1.733784 -0.71129,0.711296 -0.71138,0.711122 -0.93844,1.399669 l -0.1938,0.837023 -0.22158,0.92663 c -0.47916,2.073862 -0.91003,4.148788 -1.67613,6.139094 -0.27009,0.684505 -0.52423,1.359337 -0.73769,2.063729 -0.78525,2.82914 -1.51411,5.279996 -3.33698,7.640182 -0.71478,0.903819 -1.38673,1.828198 -2.0547,2.766688 l -0.4654,0.655033 c -3.72868,5.215125 -7.23675,10.669068 -9.18016,16.826592 -0.23777,0.789788 -0.48617,1.576666 -0.75575,2.356168 -0.61052,0.912856 -0.66091,0.963507 -0.97665,1.547623 l -0.24589,1.03777 -0.27508,1.135715 c -0.18615,0.79024 -0.37323,1.58026 -0.56125,2.37006 l -0.27507,1.13988 c -0.15926,0.67466 -0.32906,1.34696 -0.51125,2.0158 -0.37342,0.91218 -0.70275,1.73553 -0.90023,2.70279 l -0.14171,0.97594 c -0.1139,0.72954 -0.2259,1.45937 -0.33619,2.18946 -0.26563,1.85012 -0.39331,3.53619 -1.42954,5.11939 -0.83515,0.835149 -0.83516,0.835149 -2.85491,3.632889 l -0.73908,1.02804 c -1.57128,2.16219 -3.00242,4.35956 -4.3289,6.6809 -0.33564,0.59023 -0.67167,1.18044 -1.01346,1.76713 -1.15445,1.97227 -2.33322,3.92995 -3.25987,6.02239 -0.35224,0.8385 -0.70746,1.6709 -1.0864,2.49788 -0.77019,1.66343 -1.51238,3.32188 -2.13666,5.04575 l -0.26674,0.74742 c -0.36765,1.00241 -0.73507,2.0048 -1.09751,3.00911 l -0.32508,0.90301 c -0.43971,1.20343 -0.72893,2.24321 -0.93358,3.51203 l -0.13337,1.1114 c -1.3595,0.11353 -1.3595,0.11353 -2.18668,-0.41678 l -0.79187,-0.56125 -0.84605,-0.59182 -0.79882,-0.56404 c -0.71954,-0.46159 -1.43278,-0.93345 -2.13389,-1.42259 -0.46731,-0.48098 -0.94226,-0.95461 -1.42259,-1.42259 -2.29304,-1.595 -4.82763,-3.22797 -7.69088,-3.17861 -2.663164,0.73977 -3.885398,2.2539 -5.273595,4.55119 -2.312305,4.69467 -2.075924,10.61923 -0.439005,15.52069 0.449408,1.19766 0.862966,2.40043 1.257273,3.61761 0.485338,1.50129 0.953353,2.96939 1.639313,4.39281 0.383541,0.73989 0.747988,1.48986 1.097508,2.24641 1.277556,2.79486 2.635176,5.52573 4.102456,8.22575 0.22831,0.41836 0.45617,0.83698 0.68351,1.25588 l 0.61683,1.16697 0.56125,1.05583 c 0.30244,0.57196 0.61899,1.13692 0.95581,1.68933 0.66295,0.65588 1.13268,1.17385 1.6282,1.97968 1.427,2.55727 2.85682,5.38198 4.96934,7.45194 0.55426,0.47669 0.55426,0.47669 1.22671,1.23782 0.17843,1.12714 0.17843,1.12714 0,2.13389 -0.37031,0.42827 -0.37022,0.42844 -1.13432,0.57515 l -1.02319,0.2445 c -0.76981,0.18734 -1.53994,0.37344 -2.31032,0.55848 -2.00432,0.47911 -4.00691,0.91487 -5.92793,1.67127 -1.1995,0.4765 -2.38767,0.77272 -3.65025,1.03429 -2.185572,0.44076 -4.330403,0.92297 -6.448201,1.6289 -0.637197,0.22971 -1.274397,0.4594 -1.911608,0.68907 -1.755709,0.4867 -2.88445,0.9376 -4.089951,2.35617 -1.059785,1.55377 -1.174581,2.92479 -0.88912,4.75679 0.542232,1.62669 1.736821,2.37209 3.200832,3.20083 3.011466,0.41537 4.939192,-0.8723 7.290782,-2.559 1.883536,-1.35968 3.581786,-2.41655 5.801506,-3.1536 1.05455,-0.32741 2.09927,-0.65051 3.13137,-1.04332 3.88778,-1.51848 8.06089,-2.5435 12.22818,-2.84658 -0.7565,0.70606 -1.49261,1.30102 -2.45064,1.70878 -3.5966,1.32043 -3.59678,1.32069 -12.03993,6.01545 l -0.73561,0.41122 c -1.25334,0.69969 -2.4832,1.41936 -3.68568,2.20474 l -1.004428,0.6849 -0.830772,0.5432 -0.725188,0.50152 c -0.74186,0.49874 -0.74186,0.49874 -1.289224,1.08917 -0.17261,1.29152 -0.0053,1.76788 0.600156,2.95632 0.274425,0.43698 0.548552,0.87414 0.822436,1.31145 0.262013,0.50631 0.528834,1.01015 0.800208,1.51151 0.804739,1.23993 1.546414,1.9748 2.984102,2.39367 2.22818,0.0185 2.22818,0.0185 7.10741,-3.54953 1.25375,-0.9503 2.50896,-1.80711 3.86767,-2.60067 0.54063,-0.3063 1.07527,-0.62367 1.60041,-0.95581 0.58535,-0.58983 1.01411,-1.03913 1.75324,-1.42815 0.7363,-0.35009 0.7363,-0.35009 1.45037,-0.81132 1.96824,-1.35089 3.98638,-2.59561 6.04324,-3.80654 -0.26442,2.03983 -0.82276,3.10338 -2.2228,4.62342 l -0.86134,0.9044 c -1.40964,1.48769 -3.37497,3.31407 -3.31752,5.49726 0.44588,1.23856 0.85378,1.95626 1.86715,2.80073 1.24414,0.50897 2.13419,0.54556 3.46757,0.4001 0.88753,-0.53985 1.4322,-1.07931 2.07137,-1.90188 2.9599,-4.31264 6.17768,-7.66361 10.64026,-10.4416 1.85704,-1.02448 3.00877,-1.39823 5.07076,-0.81549 0.33213,0.92257 0.34608,1.58852 0.28897,2.57845 -0.51723,2.38722 -1.25007,3.92687 -3.22306,5.42363 -2.18135,1.5999 -4.53594,3.02816 -5.0013,5.86819 -0.0194,1.57421 0.28013,2.7252 1.21559,3.99826 1.98756,1.84412 4.67167,2.46466 7.29773,2.78128 2.76393,0.11267 4.82309,-0.52934 6.86845,-2.40063 1.48171,-2.37971 1.88956,-4.09161 1.64487,-6.9129 -0.28635,-3.16257 -0.38584,-6.76354 1.20032,-9.62472 l 0.73352,-1.00026 0.51124,-0.84467 c 0.72525,-0.75426 1.31251,-0.82315 2.33394,-0.93357 0.36103,0.58968 0.71895,1.18156 1.05861,1.78379 1.32773,2.57438 1.51489,5.74659 0.71963,8.53 -0.24055,0.59135 -0.47717,1.18431 -0.71129,1.77824 -0.73705,2.26187 -1.85372,5.18377 -0.7113,7.4686 2.16212,1.35133 4.22624,1.65883 6.69063,1.13363 1.41709,-0.97252 1.71985,-1.78824 2.25753,-3.38282 l 0.29869,-0.95164 c 0.8211,-2.13928 1.22183,-4.07585 1.3823,-6.36971 l 0.0403,-0.74325 c 1.11484,0.28806 1.11484,0.28806 1.91161,1.15586 l 0.93357,0.97803 c 0.60002,0.58539 1.19304,1.17804 1.77824,1.77824 1.23953,1.77076 2.63824,2.74024 4.623436,3.55648 1.44747,0.193 2.18969,0.13688 3.51202,-0.46679 0.75575,-0.60015 0.75575,-0.60015 1.1114,-1.6671 l -0.42233,-0.76964 -0.64462,-0.87523 -0.69601,-0.95025 -0.72658,-0.96136 c -0.81176,-1.08235 -1.62251,-2.16201 -2.48953,-3.20083 -0.47554,-0.47286 -0.94984,-0.94695 -1.42259,-1.42259 -0.683406,-1.0251 -1.283746,-1.99503 -2.156126,-2.86741 l -0.68907,-0.68907 c -0.6064,-1.02824 -1.10498,-1.81628 -1.95606,-2.66736 -1.25022,-1.25022 -1.92118,-2.37958 -2.31171,-4.08995 3.97974,0.29072 7.941386,0.40569 11.931576,0.40427 1.02913,-0.002 2.05847,-0.004 3.08761,-0.002 3.30612,0.007 6.61211,0.0492 9.90535,-0.28133 l 1.03777,-0.12081 c 1.41656,-0.16071 2.83225,-0.32575 4.24693,-0.50221 0.74574,-0.0938 1.49132,-0.18738 2.23739,-0.27855 2.27059,-0.27702 4.53845,-0.54458 6.78023,-1.0072 1.5395,-0.32796 3.08165,-0.56821 4.6401,-0.78771 l 0.98914,-0.13615 c 1.17053,-0.16406 2.3411,-0.32774 3.51203,-0.48901 -0.19691,1.43163 -0.42226,2.85164 -0.7113,4.26777 -1.54119,4.08415 -5.30125,6.55336 -8.98011,8.55778 -1.25033,0.65712 -1.25033,0.65712 -2.40062,1.40037 -1.21279,1.13807 -1.98424,2.21611 -2.13389,3.91212 1.36634,1.29537 2.76459,2.73161 4.55674,3.40366 2.46945,0.48508 5.2483,0.56621 7.53529,-0.55847 4.33334,-2.45231 6.08751,-5.66649 7.48597,-10.28948 0.21836,-0.72356 0.45471,-1.44127 0.69393,-2.1582 0.80742,-0.80742 0.80742,-0.80742 1.60042,-3.37866 0.39453,-1.27924 0.63079,-2.40903 1.60041,-3.37865 0.007,0.75435 0.0132,1.50871 0.0174,2.26309 l 0.005,0.93774 c 0.0291,2.91146 -0.15933,5.59904 -0.86828,8.42858 -0.4847,1.87942 -0.95264,3.75968 -1.37189,5.65494 l -0.24937,1.14266 c -0.26821,1.12035 -0.50978,2.23018 -0.6974,3.36684 -0.0577,1.55683 0.42189,2.25634 1.38647,3.45715 1.6797,1.21094 3.33328,1.35663 5.33472,1.06694 1.71015,-0.46042 3.12351,-1.05715 4.11218,-2.57844 0.80594,-1.75606 0.71441,-3.34297 0.26813,-5.17913 -0.60128,-2.39359 -0.90811,-4.60819 -0.95095,-7.07475 l -0.006,-1.08292 c -0.0383,-2.71275 0.28153,-4.99721 1.20031,-7.55752 0.86407,-0.0502 0.86407,-0.0502 1.77824,0 0.70261,0.70424 1.04363,1.36987 1.44482,2.27698 0.33569,0.90775 0.67058,1.80938 1.04472,2.70209 1.79408,2.83348 1.82129,5.93493 1.73378,9.22462 -0.0695,1.29895 -0.0695,1.29895 0.0445,2.51176 0.97681,1.84607 1.90557,2.61132 3.80376,3.35504 1.31453,0.32306 2.10109,0.06 3.3092,-0.50985 1.8213,-1.2142 2.88617,-2.52361 3.55648,-4.62343 0.64349,-2.96006 0.64331,-2.96006 -2.10472,-7.85342 -0.26119,-0.46277 -0.51975,-0.92683 -0.77659,-1.39203 -1.35855,-2.46731 -2.76207,-4.9073 -4.1872,-7.33663 -0.78521,-1.32386 -1.50126,-2.66296 -2.17834,-4.0455 5.29724,0.95525 11.27949,3.89799 15.16088,7.677 l 0.48763,0.50291 c 1.89147,1.50347 3.46887,3.12896 5.05687,4.94434 l 0.6335,0.74602 c 0.98159,1.15137 1.77943,2.3218 2.50551,3.65095 l 0.3619,0.68351 c 0.95155,1.79101 1.71979,3.51148 2.24503,5.47781 0.25544,0.98506 0.53484,1.95491 0.84466,2.92438 0.71308,1.92614 1.4449,2.71692 3.28974,3.62316 1.04412,-0.0992 1.86157,-0.38927 2.83546,-0.78215 2.06885,-0.9965 3.73952,-1.6519 4.63315,-3.84127 0.2083,-1.90742 -0.15303,-3.03621 -1.0857,-4.64427 l -0.44803,-0.73491 c -0.42424,-0.72397 -0.84915,-1.44715 -1.28228,-2.16584 l -0.38482,-0.63489 c -1.10337,-1.84591 -2.23304,-3.67205 -3.39672,-5.48059 l -0.55987,-0.85439 c -0.4937,-0.75389 -0.95498,-1.4211 -1.5893,-2.06164 l -0.50013,-0.49458 c -0.59035,-1.04654 -1.00861,-1.73157 -1.95606,-2.48953 -0.944,-0.7552 -1.36682,-1.44809 -1.95606,-2.48954 2.24367,0.24833 4.64407,0.34789 6.75731,1.17809 0.87632,0.38184 1.72691,0.69731 2.64096,0.98914 2.54937,0.79554 4.86907,1.67901 7.19353,3.0244 0.49777,0.29733 0.99803,0.59062 1.50317,0.87523 l 0.59877,0.33481 1.22254,0.71129 0.9044,0.52375 0.96275,0.56542 c 0.57139,0.33449 1.13562,0.68171 1.68933,1.04472 1.21576,1.23888 1.21577,1.23888 4.27333,2.96883 l 1.06139,0.58765 c 2.16055,1.26032 4.30958,1.30558 6.75731,1.06694 1.82008,-0.52948 2.67311,-1.50811 3.58704,-3.11192 0.71842,-1.76837 0.52967,-3.34893 -0.0306,-5.13466 -1.66362,-2.33947 -3.57976,-3.24721 -6.33498,-3.93436 -0.85489,-0.1955 -1.70767,-0.40093 -2.55622,-0.62238 -1.06694,-0.7113 -1.06694,-0.7113 -1.97968,-0.96414 -5.56868,-1.23426 -10.72093,-3.44185 -14.73578,-7.57141 l 0.84327,0.14309 1.09056,0.19033 c 0.66159,0.11406 1.32177,0.23756 1.97829,0.37787 0.35565,0.14186 -0.18944,-0.0728 0.96553,0.40908 l 0.79049,0.25499 c 0.5999,0.12073 1.20007,0.24015 1.80046,0.35842 1.46461,0.28561 2.92615,0.55513 4.34975,1.0079 1.79222,0.62438 3.56802,1.11635 5.42293,1.52331 l 1.05236,0.22506 c 2.91771,0.64967 6.07547,1.6182 9.02456,0.84467 1.34057,-0.84115 2.26581,-1.74198 2.91187,-3.20084 0.17389,-1.17709 0.0692,-1.66269 -0.54736,-2.69236 l -0.74186,-0.90857 c -1.84085,-2.32046 -3.69247,-2.88662 -6.53712,-3.23904 -0.69387,-0.0781 -1.38757,-0.15776 -2.08109,-0.23895 l -1.01624,-0.12434 c -0.62873,-0.0714 -1.25556,-0.16095 -1.87965,-0.26534 -1.66323,-0.49254 -3.2622,-0.86 -4.9763,-1.0989 l -0.92385,-0.12364 c -1.00082,-0.13916 -2.00173,-0.27783 -3.00286,-0.41469 -1.02859,-0.14007 -2.05705,-0.28072 -3.08552,-0.42164 -0.66013,-0.0917 -1.32025,-0.18339 -1.98038,-0.27507 -1.69301,-0.22689 -3.35841,-0.46561 -5.01589,-0.88495 -1.28705,-0.33777 -1.28714,-0.33759 -2.57636,-0.56265 l -1.20031,-0.17505 -1.22254,-0.1806 -0.91135,-0.13059 c -0.10075,-1.05895 -0.10075,-1.05895 0.47096,-1.75184 0.59598,-0.73769 0.59598,-0.73769 1.09195,-1.46427 l 0.50429,-0.7627 0.56265,-0.84883 c 0.36875,-0.55715 0.73823,-1.11382 1.10862,-1.66988 l 0.52931,-0.79326 c 0.35521,-0.53376 0.71086,-1.06723 1.06694,-1.60042 1.7227,-2.54548 3.26473,-5.08833 4.62342,-7.84648 0.34849,-0.70746 0.70326,-1.41189 1.06695,-2.11166 0.9901,-1.41014 1.6773,-2.70573 2.28948,-4.31223 0.4338,-1.17766 0.86712,-2.34389 1.3698,-3.49396 0.90903,-2.04393 1.57758,-4.04972 2.09777,-6.21967 0.20637,-0.89952 0.42001,-1.79414 0.64461,-2.68959 0.7308,-1.54221 0.80377,-2.81717 0.80854,-4.50256 l -0.008,-1.00998 c 0.0135,-1.63558 0.0874,-3.17944 -0.41122,-4.74846 l -0.38899,-0.76409 c -0.82676,-2.33748 -1.57682,-4.45634 -3.55648,-6.04601 -2.79585,-1.78205 -5.48287,-3.07193 -8.8912,-2.48954 -0.35296,0.40964 -0.35262,0.40981 -0.98775,0.54251 l -0.81827,0.19935 c -0.61284,0.15393 -1.22599,0.30669 -1.83937,0.45846 -1.58207,0.38424 -3.06801,0.72076 -4.51089,1.48927 -1.88551,1.31166 -3.46744,1.74017 -5.71399,1.93384 l -0.71129,-2.13389 c -0.38783,-1.12217 -0.73828,-2.23593 -1.04194,-3.38421 -1.52088,-6.00809 -4.10854,-11.3727 -7.43249,-16.59459 l -0.41677,-0.64878 c -1.48846,-2.36101 -3.20686,-4.602929 -5.1569,-6.601719 -0.54231,-0.52875 -1.07571,-1.06712 -1.59208,-1.62125 l -0.76408,-0.84605 c -1.63533,-1.80714 -2.51097,-3.26582 -2.90076,-5.66675 -0.18643,-1.2563 -0.38855,-2.50748 -0.61127,-3.75792 -0.53176,-1.25188 -0.2468,-0.539 -0.5807,-1.37397 l -0.25146,-1.35313 c -0.19073,-1.009744 -0.38038,-2.019667 -0.5682,-3.029956 -0.14158,-0.76225 -0.28329,-1.524193 -0.42719,-2.286009 l -0.13823,-0.730053 c -0.23917,-1.285895 -0.49296,-2.511724 -0.89052,-3.757922 -0.26006,-0.742895 -0.48317,-1.498846 -0.68767,-2.258919 -0.47923,-1.866881 -0.91898,-3.747434 -1.61292,-5.548662 -0.31246,-0.778613 -0.59932,-1.552887 -0.8655,-2.349222 -0.54302,-1.667096 -1.09132,-3.319177 -1.75741,-4.941561 -0.6717,-1.631666 -1.249,-3.288943 -1.82269,-4.956843 -0.68372,-2.032795 -1.48209,-3.929056 -2.48954,-5.823735 -1.58448,-2.881861 -2.40027,-5.532661 -2.25197,-8.509154 l -0.01,0.0069 c 0,0 0.59607,-7.488205 -2.97299,-9.574015 -0.97001,-0.566892 -2.25817,-0.765201 -3.6447,-0.743943 z" />
</svg>
